<?xml version="1.0" encoding="utf-8"?>
<!-- Generator: Adobe Illustrator 23.0.3, SVG Export Plug-In . SVG Version: 6.00 Build 0)  -->
<svg version="1.1" xmlns="http://www.w3.org/2000/svg" xmlns:xlink="http://www.w3.org/1999/xlink" x="0px" y="0px"
	 viewBox="0 0 750 500" style="enable-background:new 0 0 750 500;" xml:space="preserve">
<style type="text/css">
	.st0{display:none;}
	.st1{opacity:0.15;fill:#6B99D1;}
	.st2{fill:#DCEEFF;}
	.st3{fill:#FFFFFF;}
	.st4{fill:#C8E2FF;}
	.st5{fill:#A5CBFA;}
	.st6{fill:#FFA8A7;}
	.st7{fill:#F5FBFB;}
	.st8{fill:#6A89CE;}
	.st9{fill:#2D2979;}
	.st10{fill:#C4D9FF;}
	.st11{fill:#AACAF9;}
	.st12{fill:#F28F8F;}
	.st13{fill:#7FA8E6;}
	.st14{fill:#3A2C6D;}
	.st15{fill:#EFF6FE;}
	.st16{fill:#AAD1FC;}
	.st17{fill:#AEB5B7;}
</style>
<g id="Background" class="st0">
</g>
<g id="Objects">
	<g id="XMLID_3437_">
		<g id="XMLID_135_">
			<path id="XMLID_3963_" class="st1" d="M700.48,226.01l-22.77-13.15c-1.41-0.81-3.69-0.81-5.09,0l-22.77,13.15
				c-1.41,0.81-1.41,2.13,0,2.94l22.77,13.15c1.41,0.81,3.69,0.81,5.09,0l22.77-13.15C701.89,228.14,701.89,226.82,700.48,226.01z"
				/>
			<path id="XMLID_2365_" class="st2" d="M700.48,198.95l-22.77-13.15c-1.41-0.81-3.69-0.81-5.09,0l-22.77,13.15
				c-1.41,0.81-1.41,2.13,0,2.94l22.77,13.15c1.41,0.81,3.69,0.81,5.09,0l22.77-13.15C701.89,201.08,701.89,199.76,700.48,198.95z"
				/>
			<g id="XMLID_1870_">
				<path class="st3" d="M675.16,186.19c0.78,0,1.52,0.17,2.05,0.47l22.77,13.15c0.41,0.24,0.55,0.47,0.55,0.6
					c0,0.13-0.15,0.37-0.55,0.6l-22.77,13.15c-0.52,0.3-1.27,0.47-2.05,0.47s-1.52-0.17-2.05-0.47l-22.77-13.15
					c-0.41-0.24-0.55-0.47-0.55-0.6c0-0.13,0.15-0.37,0.55-0.6l22.77-13.15C673.64,186.36,674.38,186.19,675.16,186.19
					 M675.16,185.19c-0.92,0-1.84,0.2-2.55,0.61l-22.77,13.15c-1.41,0.81-1.41,2.13,0,2.94l22.77,13.15
					c0.7,0.41,1.62,0.61,2.55,0.61s1.84-0.2,2.55-0.61l22.77-13.15c1.41-0.81,1.41-2.13,0-2.94l-22.77-13.15
					C677,185.39,676.08,185.19,675.16,185.19L675.16,185.19z"/>
			</g>
			<path id="XMLID_1812_" class="st4" d="M701.53,223.4c-0.01,0.61-0.41,1.08-1.05,1.47l-22.77,13.15c-0.66,0.38-1.5,0.59-2.55,0.61
				v-22.99c1-0.01,1.85-0.21,2.55-0.61l22.77-13.15c0.57-0.32,1.05-0.81,1.05-1.47V223.4z"/>
			<path id="XMLID_136_" class="st5" d="M648.79,223.4c0.01,0.61,0.41,1.08,1.05,1.47l22.77,13.15c0.66,0.38,1.5,0.59,2.55,0.61
				v-22.99c-1-0.01-1.85-0.21-2.55-0.61l-22.77-13.15c-0.57-0.32-1.05-0.81-1.05-1.47V223.4z"/>
		</g>
		<g id="XMLID_46_">
			<path id="XMLID_3017_" class="st6" d="M658.54,187.22c-1.46,2.72-3.05,4.59-5.08,6.92c-0.55,0.63-0.81,1.24-1.72,2.58
				c-0.91,1.33-2.29,2.66-3.51,3.23c-1.22,0.58-1.76,0.59-1.98,0.4c-0.28-0.25-0.16-0.58,0.37-0.91c0.53-0.33,1.46-0.78,2.32-1.81
				c0,0-1.12,0.77-1.83,1.18c-0.71,0.4-1.46,0.69-2.01,0.82c-0.68,0.16-1.46-0.53-0.94-0.88c0.53-0.35,1.02-0.47,2.07-1.08
				c0.95-0.56,1.53-1.16,1.53-1.16s-1.17,0.61-2.24,0.93c-1.07,0.32-1.58,0.23-1.91,0.16c-0.33-0.08-0.65-0.61,0.06-0.95
				c0.63-0.31,1.57-0.42,2.69-1.19c0.81-0.56,1.31-1.07,1.12-1.12c-0.19-0.05-0.65,0.31-1.5,0.42c-0.82,0.1-1.68-0.28-1.7-0.75
				c-0.02-0.46,0.17-0.24,0.99-0.48c0.82-0.24,1.45-0.75,2.63-0.99c1.05-0.21,1.72-0.38,2.6-0.84c0.88-0.45,2.72-3.31,4.1-5.88
				c1.21-2.84,2.44-7.54,2.96-9.39c0.87-3.14,2.07-9.57,2.71-11.74c0.64-2.18,1.67-2.67,2.97-2.97c1.52-0.35,2.32,1.55,2.04,3.39
				C664.79,168.34,662.27,180.88,658.54,187.22z"/>
			<path id="XMLID_3016_" class="st7" d="M652.31,189.44l-1.33,1.71c0,0,0.25,0.8,1.54,1.54s1.76,0.64,1.76,0.64l1.29-1.65
				L652.31,189.44z"/>
			<path id="XMLID_3015_" class="st8" d="M663.37,161.39c-1.55-0.24-2.82,1.2-3.48,3.45c-0.66,2.25-2.01,8.8-2.4,10.54
				c-2.17,9.64-5.83,14.78-5.83,14.78s1.38,1.92,3.53,2.19c0,0,3.86-4.6,6.58-10.82c2.02-4.62,3.04-10.92,3.35-12.73
				C665.84,164.53,666.15,161.83,663.37,161.39z"/>
			<path id="XMLID_2926_" class="st9" d="M647.88,228.73c0,0,0.1,0.87,0.3,1.58c0.19,0.71,0.36,1.89,0.23,2.46
				c-0.13,0.58-1.77,1.4-2.68,1.52c-0.91,0.12-2.32,1.09-2.84,1.75c-0.74,0.94-2.71,1.64-3.99,1.49c-1.27-0.15-2.71-0.45-3.01-0.96
				c-0.31-0.51,0.12-1.09,2.79-2.99c2.67-1.9,4.46-3.06,5.3-4.82L647.88,228.73z"/>
			<path id="XMLID_2923_" class="st9" d="M657.56,246.79c-0.68,0.97-1.82,1.42-2.98,1.59c-0.61,0.09-1.23,0.08-1.85,0.07
				c-0.65-0.01-1.65-0.39-1.59-1.2c0.02-0.26,0.18-0.48,0.34-0.68c1.04-1.35,2.17-2.65,3.13-4.07c1.08-1.6,2.15-3.11,2.54-5.52
				l4.01,0.05c0.01,0.34,0.11,0.81,0.17,1.25c0.06,0.45,0.18,0.88,0.28,1.32c0.2,0.87,0.33,1.78-0.11,2.6
				c-0.34,0.61-1,0.96-1.54,1.4C658.91,244.45,658.32,245.7,657.56,246.79z"/>
			<path id="XMLID_2922_" class="st10" d="M678.47,194.38c1.45,9.07-2.58,12.45-7.81,14.38c-3.76,1.38-9.14,3.52-9.14,3.52
				s0.07,1.99,0.12,6.46c0.04,3.93-0.48,18.29-0.48,18.29s-2.17,1.12-4.01-0.05c0,0-2.11-11-2.56-15.96
				c-0.61-6.73-1.64-11.13-1.3-12.58c0.3-1.28,7.66-4.89,9.99-6.83l-15.41,5.16c0,0,0.51,2.63,0.45,5.07
				c-0.14,5.34-0.44,16.89-0.44,16.89s-2.11,1.53-3.91,0.03c0,0-3.88-22.88-3.41-25.91c0.45-2.87,14.02-8.75,16.41-10.77
				c1.36-1.15,2.89-2.39,2.89-2.39L678.47,194.38z"/>
			<path id="XMLID_2917_" class="st11" d="M663.27,201.61c0,0-2.59-1.65-3.47-4.3c0,0-0.16,1.94,0.83,3.58
				c0.11,0.65-12.77,5.89-12.77,5.89L663.27,201.61z"/>
			<path id="XMLID_2912_" class="st6" d="M673.18,159.71c0,0-0.22,4.32-0.13,4.7c0.1,0.38,1.98,1.65,2.53,2.1
				c0.55,0.45-2.99,3.94-4.71,4.73c-1.72,0.79-7.17-1.29-7.26-3.96c-0.1-2.68,0.93-4.92,1.77-5.04
				C666.22,162.12,673.18,159.71,673.18,159.71z"/>
			<path id="XMLID_2911_" class="st12" d="M666.09,164.66c-0.57-0.51,0.09-1.65,0.48-2.43c1.78-0.54,6.62-2.51,6.62-2.51
				s-0.05,1-0.08,1.69l0,0c0,0.81-0.51,1.64-1.16,2.13c-0.48,0.37-1.12,0.81-1.93,1.12C669.31,164.93,667.4,165.84,666.09,164.66z"
				/>
			<path id="XMLID_598_" class="st7" d="M673.67,165.06c0,0-1.86,3.05-7.81,3.62c-0.83-1.69-0.6-4.42,0.71-6.25
				c0,0-1.75-1.41-2.95-1.14c0,0-1.89,0.98-2.7,3.44c-0.81,2.46-1.62,5.41-1.54,10c0.07,4.58-0.15,15.96-0.15,15.96
				s-0.75,3.35,4.8,5.89c3.57,1.64,6.92,2.06,9.6,1.43c2.21-0.52,4.58-1.36,5.06-2.4c-0.44-3.66-1.57-10.07-1.26-13.91
				c0.33-4.06,1.19-7.02,1.41-10.28c0.22-3.26-0.43-3.2-2.07-4.36C674.56,165.49,673.67,165.06,673.67,165.06z"/>
			<path id="XMLID_595_" class="st13" d="M666.57,162.43c0,0-5.22,6.81-1.75,14.61c0,0-0.79,16.66-0.93,20.61
				c-2.14-0.78-3.27-2.25-3.27-2.25s-1.95-1.33-1.91-4.76c0,0,0.31-6.08,0.49-11.42c0.18-5.35-0.16-9.85,1.15-13.65
				c1.31-3.8,3.57-4.48,3.57-4.48L666.57,162.43z"/>
			<path id="XMLID_565_" class="st8" d="M666.08,163.22v-1.86c0,0-1.75,1.42-2.47,3.05c-0.72,1.64-1.66,5.27-1.83,6.38
				c-0.17,1.11,1.55,3.51,1.55,3.51s-1.18,1.17-0.98,1.95c0.2,0.78,2.24,5.07,2.17,6.4c-0.01-0.23,0.29-5.62,0.29-5.62
				s-1-4.23-0.73-7.23C664.53,165.09,666.08,163.22,666.08,163.22z"/>
			<path id="XMLID_554_" class="st13" d="M673.05,164.42c-0.01,1.38-2.07,5.08-8.23,12.62c-0.44,7.59-0.93,20.61-0.93,20.61
				s10.69,5.69,15.67,0.54c0,0-0.33-2.42-1.18-6.55c-0.85-4.14-0.59-10.15-0.07-14.43c0.53-4.28,1.77-8.03,0.07-9.47
				C676.67,166.28,673.05,164.42,673.05,164.42z"/>
			<path id="XMLID_339_" class="st6" d="M663.41,153.28L663.41,153.28c0.52-3.35,2.93-5.89,6.39-5.7c3.68,0.2,6.49,3.35,6.29,7.03
				c-0.12,2.15-1.25,3.98-2.9,5.11c0,0-0.32,1.21-0.54,1.47c-1.22,1.43-4.92,2.31-5.98,2.16c-1.36-0.19-2.1-0.76-2.75-2.25
				C662.76,158.45,663.12,154.93,663.41,153.28z"/>
			<path id="XMLID_336_" class="st14" d="M663.91,150.57c1.43-2.17,4.05-3.46,6.91-2.86c2.82,0.59,4.99,3.03,5.25,5.89
				c0.24,2.58-0.99,4.81-2.88,6.11c0.07-0.23,1.82-2.83,0.02-3.41c-0.29,0.33-0.36,0.84-0.37,1.37c0,0-0.89-0.08-0.69-1.13
				c0.06-0.29,0.11-0.56,0.16-0.8c0.16-0.81-0.05-1.63-0.51-2.31c-0.37-0.55-0.69-1.32-0.47-2.18c0,0-2.22,0.99-5.06,0.39
				C665.05,151.4,664.24,150.95,663.91,150.57z"/>
			<path id="XMLID_333_" class="st14" d="M671.31,151.26c0,0-1.13,0.99-3.91,1.28c-2.78,0.3-5.25-1.31-5.84-2.45
				c-0.88-1.71,0.88-0.48,2.48-1.33c1.6-0.85,7.58-3.71,10.1,0.69c0,0,1.44,0.23,1.82,1.08c0.38,0.85,0.51,3.91-0.33,5.82
				L671.31,151.26z"/>
			<path id="XMLID_332_" class="st6" d="M673.18,159.69c0,0,0.15,0.36,0.8,0.39c1.21,0.06,2.63-2.19,1.66-3.72
				c-0.61-0.96-1.99-0.62-2.44-0.05L673.18,159.69z"/>
			<g id="XMLID_124_">
				<g id="XMLID_125_">
					<path id="XMLID_126_" class="st6" d="M672.23,203.21c0.73-0.45,1.24-1.07,2.32-1.61c0.95-0.48,1.34-0.69,1.99-1.45
						c0.7-0.82,1.71-3.76,2.37-6.6c0.78-3.35,0.58-7.8,0.23-9.7c-0.71-3.85-2.58-9.15-3.12-11.35c-0.55-2.2,0.1-3.15,1.07-4.06
						c1.14-1.07,2.86-0.79,4.02,2.26c1.17,3.05,2.66,8.65,3.14,13.08c0.23,2.15,0.3,5.61-0.68,9.92c-0.69,3.01-1.73,5.23-3.07,8.01
						c-0.37,0.76-0.45,1.41-0.98,2.94c-0.53,1.53-1.5,3.17-2.53,4.05c-1.03,0.88-1.54,1.04-1.8,0.91c-0.34-0.16-0.3-0.52,0.12-0.97
						c0.42-0.46,1.2-1.14,1.76-2.35c0,0-0.88,1.04-1.46,1.62c-0.58,0.58-1.23,1.05-1.73,1.32c-0.62,0.34-1.55-0.13-1.14-0.6
						c0.42-0.47,0.86-0.72,1.71-1.59c0.77-0.79,1.18-1.52,1.18-1.52s-0.97,0.89-1.92,1.49c-0.95,0.59-1.46,0.64-1.8,0.66
						c-0.34,0.01-0.79-0.42-0.2-0.93c0.53-0.46,1.4-0.82,2.28-1.86c0.64-0.76,0.98-1.38,0.79-1.37c-0.2,0-0.54,0.47-1.34,0.8
						c-0.76,0.31-1.7,0.17-1.84-0.27C671.46,203.57,671.5,203.65,672.23,203.21z"/>
				</g>
			</g>
			<path id="XMLID_123_" class="st7" d="M677.72,197.49l-0.78,1.78c0,0,0.19,0.85,1.8,1.58c1.61,0.73,2.13,0.45,2.13,0.45l0.9-2
				L677.72,197.49z"/>
			<path id="XMLID_121_" class="st8" d="M664.82,177.03c0,0,4.17-5.93,5.68-7.93c1.52-2,2.51-5.2,2.51-5.2l0.04-1.08
				c0,0,0.66-0.05,0.92,0.53s1.67,2.5,1.67,2.5s-1.32,5.22-2.77,6.84c-1.45,1.62-3.55,2.15-3.55,2.15s0.61,2.24-0.09,2.72
				c-0.7,0.48-3.23,2.68-4.71,5.09L664.82,177.03z"/>
			<path id="XMLID_120_" class="st8" d="M677.4,167.87c-1.08,0.6-2.23,1.95-1.44,5.15c0.79,3.2,2.14,7.19,2.78,10.08
				c0.64,2.88,0.73,6.5,0.13,9.26c-0.6,2.76-1.55,5.73-1.55,5.73s2.21,2.05,4.28,1.95c0,0,2.16-4.34,2.79-9.73
				s-0.48-13.29-2.77-18.9C679.56,166.34,677.4,167.87,677.4,167.87z"/>
			<g id="XMLID_47_">
				<g id="XMLID_48_">
					<path id="XMLID_594_" class="st15" d="M641.53,198.15l10.35-5.98c0.18-0.11,0.41-0.11,0.59,0l18.16,10.49l-10.65,6.15
						L641.53,198.15z"/>
					<polygon id="XMLID_573_" class="st16" points="660.08,207.93 665.67,204.71 649.34,195.28 643.73,198.49 					"/>
					<polygon id="XMLID_374_" class="st17" points="662.83,198.97 662.72,199.03 659.99,200.61 655.12,197.8 655.02,197.74 
						657.86,196.1 					"/>
					<polygon id="XMLID_204_" class="st16" points="662.72,199.03 659.99,200.61 655.12,197.8 657.86,196.22 					"/>
					<path id="XMLID_166_" class="st4" d="M670.64,202.66v0.24c0,0.36-0.19,0.69-0.5,0.87l-9.65,5.57c-0.15,0.09-0.33,0.13-0.5,0.13
						c-0.17,0-0.34-0.04-0.5-0.13l-17.46-10.08c-0.31-0.18-0.5-0.51-0.5-0.87v-0.24l18.46,10.66L670.64,202.66z"/>
					<path id="XMLID_165_" class="st16" d="M659.99,208.81v0.66c-0.17,0-0.34-0.04-0.5-0.13l-17.46-10.08
						c-0.31-0.18-0.5-0.51-0.5-0.87v-0.24L659.99,208.81z"/>
					<path id="XMLID_119_" class="st15" d="M659.71,208.96c-0.33,0.13-0.71,0.1-1.02-0.08l-17.38-10.04
						c-0.31-0.18-0.52-0.48-0.58-0.83l-1.9-11.35c-0.01-0.06-0.02-0.13-0.02-0.19c0-0.32,0.13-0.62,0.35-0.84l18.07,10.43
						c0.23,0.13,0.38,0.35,0.42,0.61L659.71,208.96z"/>
					<path id="XMLID_118_" class="st4" d="M659.99,208.81l-0.12,0.07c-0.05,0.03-0.11,0.06-0.16,0.08l-2.06-12.28
						c-0.04-0.26-0.2-0.48-0.42-0.61l-18.07-10.43c0.07-0.07,0.15-0.13,0.24-0.18l18.1,10.45c0.23,0.13,0.38,0.35,0.42,0.61
						L659.99,208.81z"/>
					<path id="XMLID_117_" class="st16" d="M649.92,198.48c-0.13-0.76-0.91-1.77-1.75-2.25c-0.84-0.49-1.42-0.26-1.29,0.5
						c0.13,0.76,0.91,1.77,1.75,2.25C649.46,199.46,650.04,199.24,649.92,198.48z"/>
				</g>
			</g>
		</g>
		<path id="XMLID_3440_" class="st1" d="M662.97,238.21l-9.13-5.27c-6.2-3.58-14.75-4.44-19.11-1.92
			c-4.36,2.52-2.87,7.46,3.33,11.03l9.13,5.27c6.2,3.58,14.75,4.44,19.11,1.92C670.65,246.73,669.16,241.79,662.97,238.21z"/>
	</g>
</g>
<g id="Designed_by_Freepik">
</g>
</svg>
