<?xml version="1.0" encoding="utf-8"?>
<!-- Generator: Adobe Illustrator 23.0.3, SVG Export Plug-In . SVG Version: 6.00 Build 0)  -->
<svg version="1.1" xmlns="http://www.w3.org/2000/svg" xmlns:xlink="http://www.w3.org/1999/xlink" x="0px" y="0px"
	 viewBox="0 0 750 500" style="enable-background:new 0 0 750 500;" xml:space="preserve">
<style type="text/css">
	.st0{display:none;}
	.st1{opacity:0.15;fill:#6B99D1;}
	.st2{fill:#FFA8A7;}
	.st3{fill:#E4F2F2;}
	.st4{fill:#2D2979;}
	.st5{fill:#7FA8E6;}
	.st6{fill:#6795D6;}
	.st7{fill:#F28F8F;}
	.st8{fill:#F5FBFB;}
	.st9{fill:#C8DBDA;}
	.st10{fill:#3A2C6D;}
	.st11{fill:#C8E2FF;}
	.st12{fill:#A5CBFA;}
	.st13{fill:#031F60;}
	.st14{fill:#1E3779;}
	.st15{fill:#344593;}
	.st16{fill:#2B3D89;}
	.st17{fill:#DCEEFF;}
	.st18{opacity:0.4;}
	.st19{fill:#FAFDFF;}
	.st20{fill:#7AA3E5;}
	.st21{fill:#57F7E0;}
	.st22{fill:#6CFFE6;}
	.st23{fill:#ABFFEF;}
	.st24{fill:#FFFFFF;}
</style>
<g id="Background" class="st0">
</g>
<g id="Objects">
	<g id="XMLID_193_">
		<path id="XMLID_3960_" class="st1" d="M478.82,135.9l8.12-4.69c5.51-3.18,13.11-3.94,16.99-1.71c3.87,2.24,2.55,6.63-2.96,9.81
			l-8.12,4.69c-5.51,3.18-13.11,3.94-16.99,1.71C471.99,143.47,473.31,139.08,478.82,135.9z"/>
		<g id="XMLID_129_">
			<path id="XMLID_525_" class="st2" d="M511.14,76.58c-0.84-0.19-1.49-0.67-2.68-0.85c-1.05-0.16-1.74-0.29-2.64-0.7
				c-0.91-0.41-2.89-3.17-4.41-5.65c-1.79-2.94-3.01-6.92-3.13-8.85c-0.21-3.25-0.06-9.79-0.23-12.05
				c-0.17-2.26-1.09-2.96-2.29-3.52c-1.42-0.66-2.55-0.36-2.69,2.9c-0.15,3.26-0.22,9.56,0.73,13.92c0.46,2.11,1.48,5.42,3.77,9.2
				c1.6,2.64,3.29,4.42,5.44,6.64c0.59,0.6,0.87,1.2,1.85,2.48c0.98,1.28,2.42,2.53,3.68,3.04c1.25,0.51,1.78,0.5,2,0.29
				c0.27-0.26,0.12-0.59-0.42-0.89c-0.54-0.3-1.5-0.7-2.42-1.68c0,0,1.16,0.71,1.89,1.08c0.73,0.37,1.5,0.61,2.06,0.71
				c0.69,0.13,1.43-0.61,0.89-0.93c-0.54-0.32-1.05-0.41-2.12-0.97c-0.98-0.51-1.59-1.07-1.59-1.07s1.2,0.54,2.29,0.81
				c1.09,0.26,1.59,0.15,1.92,0.06c0.33-0.09,0.62-0.65-0.11-0.95c-0.65-0.27-1.59-0.33-2.75-1.04c-0.84-0.52-1.37-1-1.18-1.06
				c0.19-0.06,0.66,0.28,1.52,0.34c0.82,0.06,1.66-0.37,1.66-0.84C512.15,76.54,511.97,76.77,511.14,76.58z"/>
			<path id="XMLID_385_" class="st3" d="M493.8,44.73c-1.33,0.96-1.87,2.79-1.48,8.25c0.39,5.47,1.14,9.63,2.47,13.12
				c1.33,3.49,3.65,7.5,7.18,10.69c0,0,0.55-1.81,2.72-3.01c0,0-3.81-5.23-5.09-8.55c-1.28-3.32-1.34-8.66-1.35-11.67
				c-0.01-3.01,0.33-5.77-0.88-7.47C496.2,44.44,494.3,44.36,493.8,44.73z"/>
			<g id="XMLID_2503_">
				<path id="XMLID_2524_" class="st4" d="M491.87,125.83c0,0-0.06,0.87-0.22,1.59c-0.16,0.72-0.27,1.9-0.11,2.47
					c0.16,0.57,1.55,1.32,2.47,1.4c0.92,0.08,2.37,0.98,2.92,1.61c0.79,0.9,2.79,1.51,4.06,1.3c1.26-0.21,2.68-0.58,2.96-1.11
					c0.28-0.53-0.17-1.08-2.93-2.85c-2.76-1.77-4.6-2.83-5.53-4.56L491.87,125.83z"/>
				<path id="XMLID_2521_" class="st4" d="M480.43,129.96c-0.28,0.72-0.81,1.12-0.66,3.01c0.15,1.89-0.02,2.64-0.21,4.19
					c-0.19,1.54,0.6,3.66,1.34,4.65c0.74,0.99,2.76,1.19,3.4-0.56c0.64-1.75,0.79-3.23,0.34-5c-0.45-1.76,0.15-3.11-0.15-4.29
					c-0.3-1.18-0.71-1.99-0.71-1.99H480.43z"/>
				<path id="XMLID_2520_" class="st5" d="M480.43,81.27c0.06,1.98,0.68,10.58,0.96,15.14c0.28,4.55,0.34,10.13,0.34,10.13
					s-0.79,3.32-1.29,7.22c-0.51,3.9,0,16.2,0,16.2s1.47,1.09,3.35,0c0,0,2.1-9.85,3.07-14.28c0.97-4.44,1.14-7,1.64-9.75
					c0.61-3.33,1.92-18.85,1.92-18.85l0.53,0.03l1.4,17.53c0,0-0.55,1.45-0.88,3.98c-0.38,2.86,0.4,17.22,0.4,17.22
					s1.63,1.07,3.63-0.15c0,0,3.5-19.02,3.5-21.92c0-1.91-0.33-27.16-0.33-27.16L480.43,81.27z"/>
				<path id="XMLID_2519_" class="st6" d="M490.42,87.08c0,0,2.98-1.2,4.58-2.43c0,0-1.6,1.67-2.39,2.17
					c-0.79,0.49-0.55,14.2-0.55,14.2l-1.11-13.91L490.42,87.08z"/>
				<path id="XMLID_2518_" class="st2" d="M485.18,42.99c0,0,0.22,4.32,0.13,4.7c-0.1,0.38-1.98,1.65-2.53,2.1
					c-0.55,0.45,2.99,3.94,4.71,4.73c1.72,0.79,7.17-1.29,7.26-3.96c0.1-2.68-0.93-4.92-1.77-5.04
					C492.14,45.4,485.18,42.99,485.18,42.99z"/>
				<path id="XMLID_2517_" class="st7" d="M492.28,47.93c0.57-0.51-0.09-1.65-0.48-2.43c-1.78-0.54-6.61-2.51-6.61-2.51
					s0.05,1,0.08,1.69l0,0c0,0.81,0.51,1.64,1.16,2.13c0.48,0.37,1.12,0.81,1.93,1.12C489.05,48.21,490.97,49.11,492.28,47.93z"/>
			</g>
			<path id="XMLID_524_" class="st8" d="M484.7,48.44c0,0,3.13,4.67,7.51,5.11c1.38-1.36,1.5-6.19-0.4-7.74c0,0,1.75-1.41,2.95-1.14
				c0,0,1.89,0.98,2.7,3.44c0.81,2.46,1.62,5.41,1.54,10c-0.07,4.58,0,18.58,0,18.58s-0.62,2.96-4.57,5.16
				c-3.95,2.2-6.89,2.42-9.57,1.79c-2.21-0.52-4.04-1.3-4.8-2.9c0.2-3.21,1.63-11.59,1.1-15.63c-0.54-4.04-1.39-7.05-1.61-10.32
				c-0.22-3.26,0.43-3.2,2.07-4.36C483.81,48.87,484.7,48.44,484.7,48.44z"/>
			<path id="XMLID_382_" class="st2" d="M482.49,87.33c-0.67-0.53-1.1-1.21-2.11-1.89c-0.89-0.59-1.52-0.88-2.08-1.71
				c-0.6-0.9-0.95-3.91-1.26-6.81c-0.36-3.42,0.38-7.81,0.96-9.65c1.18-3.73,3.68-8.77,4.49-10.88c0.81-2.12,0.29-3.14-0.56-4.17
				c-1-1.2-2.74-1.13-4.27,1.75c-1.53,2.89-3.71,8.25-4.72,12.59c-0.49,2.1-0.99,5.53-0.55,9.93c0.31,3.07,1.08,5.4,2.07,8.33
				c0.27,0.8,0.27,1.46,0.61,3.04c0.34,1.58,1.1,3.33,2.02,4.33c0.91,1,1.4,1.22,1.68,1.12c0.36-0.12,0.36-0.48,0-0.98
				c-0.36-0.5-1.05-1.28-1.46-2.55c0,0,0.74,1.14,1.25,1.79c0.5,0.64,1.09,1.19,1.55,1.52c0.57,0.41,1.55,0.06,1.2-0.45
				c-0.36-0.52-0.77-0.82-1.5-1.79c-0.67-0.88-0.98-1.65-0.98-1.65s0.85,1,1.72,1.71c0.87,0.71,1.37,0.82,1.71,0.87
				c0.34,0.06,0.84-0.32,0.31-0.9c-0.47-0.52-1.29-0.98-2.04-2.12c-0.54-0.83-0.81-1.49-0.61-1.46c0.2,0.03,0.48,0.54,1.23,0.96
				c0.72,0.41,1.66,0.38,1.86-0.04C483.21,87.79,483.16,87.86,482.49,87.33z"/>
			<path id="XMLID_529_" class="st3" d="M480.72,51.04c-1.62,0.28-3.22,2.06-5.26,7.14c-2.04,5.09-3.19,9.16-3.52,12.88
				c-0.33,3.72,0.24,8.86,2.08,12.89c0,0,1.41-1.74,3.89-1.87c0,0-0.86-6.38-0.55-9.93c0.31-3.55,2.06-8.06,3.37-10.78
				c1.31-2.71,2.71-4.9,2.39-7.26C482.79,51.76,481.33,50.93,480.72,51.04z"/>
			<g id="XMLID_384_">
				<path id="XMLID_523_" class="st3" d="M492.21,53.55c0,0,0.37-2.08,0.38-3.19c-0.1-1.5-1.22-3.45-1.22-3.45v-1.21
					c0,0,0.86,0.14,1.6,1.04c0.74,0.9,1.86,2.85,1.58,4.75C494.55,51.49,493.99,52.6,492.21,53.55z"/>
			</g>
			<path id="XMLID_519_" class="st8" d="M492.21,53.55c0.32-0.62,0.92-2.69,1.22-3c0.58-0.19,1.12,0.94,1.12,0.94
				s-0.02,1.21-0.74,1.89C493.08,54.06,492.21,53.55,492.21,53.55z"/>
			<path id="XMLID_393_" class="st9" d="M493.43,50.54c-0.3,0.31-0.9,2.39-1.22,3c0,0,0.33-0.58,0.66-1
				c0.33-0.42,0.72-1.21,1.68-1.06C494.55,51.49,494,50.35,493.43,50.54z"/>
			<path id="XMLID_356_" class="st3" d="M485.34,46.93c0.08,0.66,3.59,3.28,4.43,3.62c0.84,0.34,2.44,3,2.44,3
				c-1.25-0.21-2.29,0.3-3.2,1.25c0,0-4.99-2.1-5.8-5.46c0,0,0.93-1.8,1.07-2.26c0.14-0.46,0.51-0.98,1.03-1L485.34,46.93z"/>
			<path id="XMLID_353_" class="st8" d="M489.01,54.79c0,0,0.37-2.57,0.91-2.81c0.54-0.23,2.29,1.56,2.29,1.56
				C491.51,54.15,490.56,54.74,489.01,54.79z"/>
			<path id="XMLID_350_" class="st9" d="M489.92,51.98c-0.54,0.23-0.91,2.81-0.91,2.81s1.4-1.29,1.83-1.42
				c0.43-0.13,1.36,0.17,1.36,0.17S490.45,51.75,489.92,51.98z"/>
			<path id="XMLID_2511_" class="st2" d="M494.96,36.55L494.96,36.55c-0.52-3.35-2.93-5.89-6.39-5.7c-3.68,0.2-6.49,3.35-6.29,7.03
				c0.12,2.15,1.25,3.98,2.9,5.11c0,0,0.32,1.21,0.54,1.47c1.22,1.43,4.92,2.31,5.98,2.16c1.36-0.2,2.1-0.76,2.75-2.25
				C495.6,41.73,495.24,38.21,494.96,36.55z"/>
			<path id="XMLID_2510_" class="st10" d="M494.45,33.85c-1.43-2.17-4.05-3.46-6.91-2.86c-1.74,0.36-3.24,1.44-4.19,2.88
				c-1.33,0.52-1.29,2.45-1.26,3.05c0.11,2.58,1.19,4.77,3.09,6.07c-0.07-0.23-1.82-2.83-0.02-3.41c0.29,0.33,0.36,0.84,0.37,1.37
				c0,0,0.89-0.08,0.69-1.13c-0.06-0.29-0.11-0.56-0.15-0.8c-0.16-0.81,0.05-1.63,0.51-2.31c0.37-0.55,0.69-1.32,0.47-2.18
				c0,0,2.22,0.99,5.06,0.39C493.31,34.67,494.12,34.22,494.45,33.85z"/>
			<path id="XMLID_2509_" class="st10" d="M483.36,33.87c0,0-0.41-1.32,1.28-2.61c2.02-1.53,4.86-1.19,7.86,0
				c1.91,0.76,4.88-0.17,4.31,2.02c-0.84,3.22-7.05,3.49-9.76,1.25C486.86,34.47,484.9,33.52,483.36,33.87z"/>
			<path id="XMLID_2504_" class="st2" d="M485.18,42.97c0,0-0.16,0.36-0.8,0.39c-1.21,0.06-2.63-2.19-1.66-3.72
				c0.61-0.96,1.99-0.62,2.44-0.05L485.18,42.97z"/>
		</g>
		<g id="XMLID_3267_">
			<g id="XMLID_2637_">
				<path id="XMLID_3962_" class="st1" d="M664.02,129.68l-65.14-37.61c-1.41-0.81-3.69-0.81-5.09,0l-100.88,58.28
					c-1.41,0.81-1.41,2.13,0,2.94l65.14,37.61c1.41,0.81,3.69,0.81,5.09,0l100.88-58.28C665.43,131.81,665.43,130.49,664.02,129.68z
					"/>
				<path id="XMLID_2824_" class="st11" d="M665.08,122.43L665.08,122.43l0-5.75l-2.51-1.88L600.8,86.06
					c-5.38-3.1-7.66-3.1-9.06-2.29l-84.94,49.08l-14.94,4.52v5.75c0,0,0,0,0,0v0.01l0,0c0,0.53,0.35,1.05,1.05,1.46l65.14,37.61
					c1.41,0.81,3.69,0.81,5.09,0l100.88-58.28C664.74,123.51,665.09,122.97,665.08,122.43z"/>
				<path id="XMLID_2821_" class="st12" d="M491.86,137.37v5.75c0,0,0,0,0,0v0.01l0,0c0,0.53,0.35,1.05,1.05,1.46l65.14,37.61
					c0.7,0.41,1.62,0.61,2.55,0.61l-0.07-35.38l-36.6-24.51l-17.14,9.93L491.86,137.37z"/>
				<path id="XMLID_2820_" class="st13" d="M658.83,116.82l-24.96-14.36c-0.94-0.54-2.46-0.54-3.4,0l-0.59,0.34
					c-0.94,0.54-2.46,0.54-3.39,0l-12.53-7.23c-0.94-0.54-0.94-1.42,0-1.96l0.58-0.34c0.94-0.54,0.94-1.42,0-1.96l-18.57-10.76
					c-0.94-0.54-2.46-0.54-3.39,0l-94.58,54.67c-0.94,0.54-0.94,1.42,0,1.96l62.85,36.27c0.94,0.54,2.46,0.54,3.4,0l94.58-54.67
					C659.77,118.24,659.77,117.36,658.83,116.82z"/>
				<polygon id="XMLID_2819_" class="st14" points="632.18,101.48 660.57,117.77 658.66,121.32 632.18,106.07 				"/>
				<polygon id="XMLID_2818_" class="st14" points="594.29,84.17 594.29,79.57 616.25,92.28 612.27,94.58 				"/>
				<path id="XMLID_2817_" class="st15" d="M564.25,173.45l94.24-54.47l-24.61-14.16c-0.94-0.54-2.46-0.54-3.4,0l-0.59,0.34
					c-0.94,0.54-2.46,0.54-3.39,0l-12.53-7.23c-0.94-0.54-0.94-1.42,0-1.96l0.34-0.2l-0.34-0.2c-0.94-0.54-0.94-1.42,0-1.96
					l0.24-0.14L595.99,82.9c-0.94-0.54-2.46-0.54-3.39,0l-94.24,54.47l62.5,36.07C561.79,173.99,563.32,173.99,564.25,173.45z"/>
				<path id="XMLID_2816_" class="st16" d="M633.88,104.81c-0.94-0.54-2.46-0.54-3.4,0l-0.59,0.34c-0.94,0.54-2.46,0.54-3.39,0
					l-12.53-7.23c-0.94-0.54-0.94-1.42,0-1.96l0.34-0.2l-0.34-0.2c-0.94-0.54-0.94-1.42,0-1.96l0.24-0.14L595.99,82.9
					c-0.47-0.27-1.08-0.41-1.7-0.41c0,0,11.6,13.29,10.03,36.52c-0.99,14.5-27.59,46.95-38.03,53.26l92.2-53.3L633.88,104.81z"/>
				<path id="XMLID_2815_" class="st14" d="M613.27,94.58v2.36c0.01,0.4,0.26,0.72,0.7,0.98l12.53,7.23c0.43,0.26,1.01,0.4,1.79,0.4
					v-3.02L613.27,94.58z"/>
				<path id="XMLID_2807_" class="st17" d="M664.02,115.22l-65.14-37.61c-1.41-0.81-3.69-0.81-5.09,0L492.91,135.9
					c-1.41,0.81-1.41,2.13,0,2.94l65.14,37.61c1.41,0.81,3.69,0.81,5.09,0l100.88-58.28C665.43,117.35,665.43,116.04,664.02,115.22z
					 M658.83,118.78l-94.58,54.67c-0.94,0.54-2.46,0.54-3.4,0l-62.85-36.27c-0.94-0.54-0.94-1.42,0-1.96l94.58-54.67
					c0.94-0.54,2.46-0.54,3.39,0l18.57,10.76c0.94,0.54,0.94,1.42,0,1.96l-0.58,0.34c-0.94,0.54-0.94,1.42,0,1.96l12.53,7.23
					c0.94,0.54,2.46,0.54,3.39,0l0.59-0.34c0.94-0.54,2.46-0.54,3.4,0l24.96,14.36C659.77,117.36,659.77,118.24,658.83,118.78z"/>
				<g id="XMLID_3380_" class="st18">
					<polygon id="XMLID_3381_" class="st19" points="529.98,116.74 537.75,112.25 533.85,112.25 526.07,116.74 					"/>
					<polygon id="XMLID_3382_" class="st19" points="559.21,99.85 574.74,90.87 570.86,90.87 555.31,99.85 					"/>
					<polygon id="XMLID_3383_" class="st19" points="507.43,129.77 522.97,120.79 519.06,120.79 503.52,129.77 					"/>
					<polygon id="XMLID_3390_" class="st19" points="599.72,82.71 605.21,85.89 613.21,85.89 607.7,82.71 					"/>
					<path id="XMLID_3391_" class="st19" d="M621.84,90.87h-8.03l0.75,0.44c0.94,0.54,0.94,1.42,0,1.96l-0.58,0.34
						c-0.94,0.54-0.94,1.42,0,1.96l7.42,4.29h16L621.84,90.87z"/>
					<polygon id="XMLID_3392_" class="st19" points="517.44,148.39 509.66,143.9 501.67,143.9 509.45,148.39 					"/>
					<polygon id="XMLID_3394_" class="st19" points="583.35,85.89 588.86,82.71 584.98,82.71 579.47,85.89 					"/>
					<polygon id="XMLID_3395_" class="st19" points="655.35,120.79 639.81,129.77 643.93,129.77 659.47,120.79 					"/>
					<path id="XMLID_3397_" class="st19" d="M664.02,115.22l-5.15-2.97h-7.98l7.8,4.49h6.37
						C665.09,116.19,664.75,115.64,664.02,115.22z"/>
					<polygon id="XMLID_3402_" class="st19" points="615.37,143.9 607.6,148.39 611.71,148.39 619.48,143.9 					"/>
					<polygon id="XMLID_3403_" class="st19" points="600.59,152.44 585.06,161.42 589.15,161.42 604.7,152.44 					"/>
					<polygon id="XMLID_3404_" class="st19" points="540.02,161.42 524.46,152.44 516.47,152.44 532.03,161.42 					"/>
					<polygon id="XMLID_3405_" class="st19" points="558.45,172.06 550.86,167.68 542.86,167.68 550.45,172.06 					"/>
					<polygon id="XMLID_3406_" class="st19" points="574.24,167.68 566.65,172.06 570.74,172.06 578.33,167.68 					"/>
				</g>
				<path id="XMLID_2769_" class="st13" d="M619.94,94.42l6.08,3.51c0.52,0.3,0.61,0.74,0.21,0.97c-0.41,0.24-1.16,0.18-1.68-0.12
					l-6.08-3.51c-0.52-0.3-0.61-0.74-0.21-0.97C618.67,94.07,619.42,94.12,619.94,94.42z"/>
				<path id="XMLID_2766_" class="st20" d="M520.65,158.04c0-0.66,1.38-0.39,3.09,0.59c1.71,0.99,3.09,2.32,3.09,2.98l0,1.19
					l-6.18-3.57C520.65,159.23,520.65,158.69,520.65,158.04z"/>
				<g id="XMLID_2685_">
					<g>
						<g id="XMLID_577_">
							<path id="XMLID_585_" class="st20" d="M528.75,163.52c0,0.25,0.17,0.55,0.39,0.68c0.21,0.12,0.39,0.02,0.39-0.23
								c0-0.25-0.17-0.55-0.39-0.68C528.92,163.17,528.75,163.28,528.75,163.52z"/>
							<path id="XMLID_584_" class="st20" d="M530.67,164.64c0,0.25,0.18,0.55,0.39,0.68c0.22,0.12,0.39,0.02,0.39-0.23
								c0-0.25-0.17-0.55-0.39-0.68C530.85,164.29,530.67,164.39,530.67,164.64z"/>
							<path id="XMLID_583_" class="st20" d="M532.6,165.75c0,0.25,0.17,0.55,0.39,0.68c0.22,0.13,0.39,0.02,0.39-0.23
								c0-0.25-0.17-0.55-0.39-0.68C532.78,165.4,532.6,165.5,532.6,165.75z"/>
							<path id="XMLID_582_" class="st20" d="M534.53,166.87c0,0.25,0.17,0.55,0.39,0.68c0.22,0.12,0.39,0.02,0.39-0.23
								c0-0.25-0.17-0.55-0.39-0.68C534.71,166.52,534.53,166.62,534.53,166.87z"/>
							<path id="XMLID_581_" class="st20" d="M536.46,167.98c0,0.25,0.17,0.55,0.39,0.68c0.22,0.12,0.39,0.02,0.39-0.23
								c0-0.25-0.17-0.55-0.39-0.68S536.46,167.73,536.46,167.98z"/>
							<path id="XMLID_580_" class="st20" d="M538.39,169.09c0,0.25,0.17,0.55,0.39,0.68c0.21,0.13,0.39,0.02,0.39-0.23
								c0-0.25-0.17-0.55-0.39-0.68C538.56,168.74,538.39,168.84,538.39,169.09z"/>
							<path id="XMLID_579_" class="st20" d="M540.32,170.21c0,0.25,0.17,0.55,0.39,0.68c0.21,0.12,0.39,0.02,0.39-0.23
								c0-0.25-0.17-0.55-0.39-0.68C540.49,169.86,540.32,169.96,540.32,170.21z"/>
						</g>
						<g id="XMLID_569_">
							<path id="XMLID_576_" class="st20" d="M528.7,161.51c0,0.25,0.18,0.55,0.39,0.68c0.22,0.13,0.39,0.02,0.39-0.23
								c0-0.25-0.17-0.55-0.39-0.68C528.87,161.16,528.7,161.26,528.7,161.51z"/>
							<path id="XMLID_575_" class="st20" d="M530.62,162.63c0,0.25,0.17,0.55,0.39,0.68c0.22,0.12,0.39,0.02,0.39-0.23
								c0-0.25-0.17-0.55-0.39-0.68C530.8,162.28,530.62,162.38,530.62,162.63z"/>
							<path id="XMLID_574_" class="st20" d="M532.55,163.74c0,0.25,0.17,0.55,0.39,0.68c0.22,0.12,0.39,0.02,0.39-0.23
								s-0.17-0.55-0.39-0.68C532.73,163.39,532.55,163.49,532.55,163.74z"/>
							<path id="XMLID_573_" class="st20" d="M534.48,164.85c0,0.25,0.17,0.55,0.39,0.68c0.22,0.13,0.39,0.02,0.39-0.23
								c0-0.25-0.17-0.55-0.39-0.68C534.66,164.5,534.48,164.6,534.48,164.85z"/>
							<path id="XMLID_572_" class="st20" d="M536.41,165.97c0,0.25,0.17,0.55,0.39,0.68c0.22,0.12,0.39,0.02,0.39-0.23
								s-0.17-0.55-0.39-0.68C536.59,165.62,536.41,165.72,536.41,165.97z"/>
							<path id="XMLID_571_" class="st20" d="M538.34,167.08c0,0.25,0.17,0.55,0.39,0.68c0.21,0.13,0.39,0.02,0.39-0.23
								s-0.17-0.55-0.39-0.68C538.51,166.73,538.34,166.83,538.34,167.08z"/>
							<path id="XMLID_570_" class="st20" d="M540.27,168.19c0,0.25,0.18,0.55,0.39,0.68c0.21,0.13,0.39,0.02,0.39-0.23
								s-0.17-0.55-0.39-0.68C540.44,167.84,540.27,167.95,540.27,168.19z"/>
						</g>
					</g>
				</g>
				<g id="XMLID_2647_">
					<g>
						<g id="XMLID_561_">
							<path id="XMLID_568_" class="st20" d="M506.06,150.42c0,0.25,0.17,0.55,0.39,0.68c0.21,0.12,0.39,0.02,0.39-0.23
								c0-0.25-0.17-0.55-0.39-0.68C506.24,150.07,506.06,150.17,506.06,150.42z"/>
							<path id="XMLID_567_" class="st20" d="M507.99,151.54c0,0.25,0.17,0.55,0.39,0.68c0.21,0.12,0.39,0.02,0.39-0.23
								c0-0.25-0.17-0.55-0.39-0.68C508.17,151.19,507.99,151.29,507.99,151.54z"/>
							<path id="XMLID_566_" class="st20" d="M509.92,152.65c0,0.25,0.18,0.55,0.39,0.68c0.22,0.13,0.39,0.02,0.39-0.23
								c0-0.25-0.17-0.55-0.39-0.68C510.09,152.3,509.92,152.4,509.92,152.65z"/>
							<path id="XMLID_565_" class="st20" d="M511.85,153.76c0,0.25,0.17,0.55,0.39,0.68c0.22,0.12,0.39,0.02,0.39-0.23
								c0-0.25-0.17-0.55-0.39-0.68S511.85,153.51,511.85,153.76z"/>
							<path id="XMLID_564_" class="st20" d="M513.78,154.88c0,0.25,0.17,0.55,0.39,0.68c0.22,0.12,0.39,0.02,0.39-0.23
								c0-0.25-0.17-0.55-0.39-0.68C513.95,154.53,513.78,154.63,513.78,154.88z"/>
							<path id="XMLID_563_" class="st20" d="M515.71,155.99c0,0.25,0.17,0.55,0.39,0.68c0.22,0.13,0.39,0.02,0.39-0.23
								c0-0.25-0.18-0.55-0.39-0.68C515.88,155.64,515.71,155.74,515.71,155.99z"/>
							<path id="XMLID_562_" class="st20" d="M517.63,157.1c0,0.25,0.17,0.55,0.39,0.68c0.21,0.12,0.39,0.02,0.39-0.23
								c0-0.25-0.17-0.55-0.39-0.68C517.81,156.75,517.63,156.85,517.63,157.1z"/>
						</g>
						<g id="XMLID_550_">
							<path id="XMLID_560_" class="st20" d="M506.01,148.41c0,0.25,0.17,0.55,0.39,0.68c0.21,0.13,0.39,0.02,0.39-0.23
								c0-0.25-0.17-0.55-0.39-0.68C506.19,148.06,506.01,148.16,506.01,148.41z"/>
							<path id="XMLID_558_" class="st20" d="M507.94,149.53c0,0.25,0.18,0.55,0.39,0.68c0.22,0.12,0.39,0.02,0.39-0.23
								c0-0.25-0.17-0.55-0.39-0.68C508.12,149.18,507.94,149.28,507.94,149.53z"/>
							<path id="XMLID_557_" class="st20" d="M509.87,150.64c0,0.25,0.17,0.55,0.39,0.68c0.22,0.13,0.39,0.02,0.39-0.23
								s-0.17-0.55-0.39-0.68C510.04,150.29,509.87,150.39,509.87,150.64z"/>
							<path id="XMLID_554_" class="st20" d="M511.8,151.75c0,0.25,0.17,0.55,0.39,0.68c0.22,0.12,0.39,0.02,0.39-0.23
								c0-0.25-0.17-0.55-0.39-0.68C511.97,151.4,511.8,151.5,511.8,151.75z"/>
							<path id="XMLID_553_" class="st20" d="M513.73,152.87c0,0.25,0.17,0.55,0.39,0.68c0.22,0.12,0.39,0.02,0.39-0.23
								s-0.17-0.55-0.39-0.68C513.9,152.52,513.73,152.62,513.73,152.87z"/>
							<path id="XMLID_552_" class="st20" d="M515.66,153.98c0,0.25,0.17,0.55,0.39,0.68c0.22,0.13,0.39,0.02,0.39-0.23
								c0-0.25-0.18-0.55-0.39-0.68C515.83,153.63,515.66,153.73,515.66,153.98z"/>
							<path id="XMLID_551_" class="st20" d="M517.58,155.09c0,0.25,0.17,0.55,0.39,0.68c0.21,0.12,0.39,0.02,0.39-0.23
								c0-0.25-0.17-0.55-0.39-0.68C517.76,154.74,517.58,154.84,517.58,155.09z"/>
						</g>
					</g>
				</g>
				<path id="XMLID_2644_" class="st13" d="M626.94,99.28c-0.39,0.23-0.39,0.6,0,0.83c0.39,0.23,1.04,0.23,1.43,0
					c0.39-0.23,0.39-0.6,0-0.83C627.97,99.05,627.33,99.05,626.94,99.28z"/>
			</g>
			<g id="XMLID_3019_">
				<g id="XMLID_2987_">
					<g id="XMLID_3005_">
						<polygon id="XMLID_3013_" class="st21" points="592.38,115.25 608.3,124.46 608.3,73.9 592.38,64.69 						"/>
						<polygon id="XMLID_3009_" class="st22" points="608.3,124.46 620.24,117.56 620.24,67 608.3,73.9 						"/>
						<polygon id="XMLID_3006_" class="st23" points="620.24,67 604.32,57.79 592.38,64.69 608.3,73.9 						"/>
					</g>
					<g id="XMLID_2997_">
						<path class="st24" d="M608.3,124.46c-0.39-0.53-0.38-1.05-0.37-1.58l0-1.58l0.01-3.16l0.02-6.32l0.05-12.64l0.11-12.64
							l0.19-12.64l0.19,12.64l0.1,12.64l0.05,12.64l0.02,6.32l0.01,3.16l0,1.58C608.68,123.41,608.69,123.93,608.3,124.46z"/>
					</g>
					<g id="XMLID_2988_">
						<path class="st24" d="M620.24,67c0.06,0.4-0.05,0.48-0.19,0.54l-0.37,0.21l-0.75,0.43l-1.5,0.85c-1.01,0.55-2,1.13-3.02,1.67
							c-2.02,1.1-4.05,2.18-6.12,3.19c1.91-1.29,3.86-2.5,5.82-3.7c0.97-0.61,1.97-1.19,2.95-1.78l1.49-0.87l0.74-0.43l0.37-0.22
							C619.8,66.81,619.93,66.75,620.24,67z"/>
					</g>
				</g>
				<g id="XMLID_2938_">
					<g id="XMLID_2945_">
						<polygon id="XMLID_2956_" class="st21" points="572.47,126.71 588.39,135.94 588.4,92.23 572.48,83 						"/>
						<polygon id="XMLID_2951_" class="st22" points="588.39,135.94 600.34,129.04 600.34,85.33 588.4,92.23 						"/>
						<polygon id="XMLID_2947_" class="st23" points="600.34,85.33 584.41,76.1 572.48,83 588.4,92.23 						"/>
					</g>
					<g id="XMLID_2942_">
						<path class="st24" d="M588.39,135.94c-0.39-0.46-0.39-0.91-0.37-1.37l0-1.37l0.01-2.73l0.02-5.46l0.05-10.93l0.11-10.93
							l0.19-10.93l0.19,10.93l0.1,10.93l0.05,10.93l0.02,5.46l0.01,2.73l0,1.37C588.78,135.03,588.79,135.48,588.39,135.94z"/>
					</g>
					<g id="XMLID_2939_">
						<path class="st24" d="M600.34,85.33c0.06,0.4-0.05,0.48-0.19,0.54l-0.37,0.21l-0.75,0.43l-1.5,0.85
							c-1.01,0.55-2,1.13-3.02,1.67c-2.02,1.1-4.05,2.18-6.12,3.19c1.91-1.29,3.86-2.5,5.82-3.7c0.97-0.61,1.97-1.19,2.95-1.78
							l1.49-0.87l0.74-0.43l0.37-0.22C599.89,85.14,600.02,85.08,600.34,85.33z"/>
					</g>
				</g>
				<g id="XMLID_2962_">
					<g id="XMLID_2973_">
						<polygon id="XMLID_2982_" class="st21" points="552.57,138.23 568.49,147.43 568.49,115.25 552.57,106.06 						"/>
						<polygon id="XMLID_2978_" class="st22" points="568.49,147.43 580.44,140.53 580.43,108.36 568.49,115.25 						"/>
						<polygon id="XMLID_2975_" class="st23" points="580.43,108.36 564.51,99.16 552.57,106.06 568.49,115.25 						"/>
					</g>
					<g id="XMLID_2968_">
						<path class="st24" d="M568.49,147.43c-0.39-0.34-0.39-0.67-0.37-1.01l0-1.01l0.01-2.01l0.02-4.02l0.05-8.04
							c0.06-5.36,0.13-10.73,0.29-16.09c0.16,5.36,0.23,10.73,0.29,16.09l0.05,8.04l0.02,4.02l0.01,2.01l0,1.01
							C568.88,146.76,568.88,147.09,568.49,147.43z"/>
					</g>
					<g id="XMLID_2963_">
						<path class="st24" d="M580.43,108.36c0.06,0.4-0.05,0.48-0.19,0.54l-0.37,0.21l-0.75,0.43l-1.5,0.85
							c-1.01,0.55-2,1.13-3.02,1.67c-2.02,1.1-4.05,2.18-6.12,3.19c1.91-1.29,3.86-2.5,5.82-3.7c0.97-0.61,1.97-1.19,2.95-1.78
							l1.49-0.87l0.74-0.43l0.37-0.22C579.99,108.16,580.12,108.1,580.43,108.36z"/>
					</g>
				</g>
				<g id="XMLID_2636_">
					<g id="XMLID_2823_">
						<polygon id="XMLID_2935_" class="st21" points="532.67,149.73 548.62,158.92 548.62,135.94 532.67,126.75 						"/>
						<polygon id="XMLID_2932_" class="st22" points="548.62,158.92 560.56,152.03 560.56,129.04 548.62,135.94 						"/>
						<polygon id="XMLID_2929_" class="st23" points="560.56,129.04 544.61,119.85 532.67,126.75 548.62,135.94 						"/>
					</g>
					<g id="XMLID_2800_">
						<path class="st24" d="M548.62,158.92c-0.39-0.24-0.39-0.48-0.37-0.72l0-0.72l0.01-1.44l0.02-2.87
							c0.02-1.92,0.01-3.83,0.05-5.75c0.06-3.83,0.13-7.66,0.29-11.49c0.16,3.83,0.23,7.66,0.29,11.49
							c0.04,1.92,0.03,3.83,0.05,5.75l0.02,2.87l0.01,1.44l0,0.72C549,158.44,549.01,158.68,548.62,158.92z"/>
					</g>
					<g id="XMLID_2791_">
						<path class="st24" d="M560.56,129.04c0.06,0.4-0.05,0.48-0.19,0.54L560,129.8l-0.75,0.43l-1.5,0.85
							c-1.01,0.55-2,1.13-3.02,1.67c-2.02,1.1-4.05,2.18-6.12,3.19c1.91-1.29,3.86-2.5,5.82-3.7c0.97-0.61,1.97-1.19,2.95-1.78
							l1.49-0.87l0.74-0.43l0.37-0.22C560.11,128.85,560.25,128.79,560.56,129.04z"/>
					</g>
				</g>
			</g>
		</g>
	</g>
</g>
<g id="Designed_by_Freepik">
</g>
</svg>
