<?xml version="1.0" encoding="utf-8"?>
<!-- Generator: Adobe Illustrator 23.0.3, SVG Export Plug-In . SVG Version: 6.00 Build 0)  -->
<svg version="1.1" xmlns="http://www.w3.org/2000/svg" xmlns:xlink="http://www.w3.org/1999/xlink" x="0px" y="0px"
	 viewBox="0 0 750 500" style="enable-background:new 0 0 750 500;" xml:space="preserve">
<style type="text/css">
	.st0{display:none;}
	.st1{fill:#C8E2FF;}
	.st2{fill:#A5CBFA;}
	.st3{fill:#DCEEFF;}
	.st4{fill:#031F60;}
	.st5{fill:#1E3779;}
	.st6{fill:#2B3D89;}
	.st7{fill:#344593;}
	.st8{opacity:0.2;fill:#E9FFFB;}
	.st9{fill:none;stroke:#E9FFFB;stroke-miterlimit:10;}
	.st10{opacity:0.8;fill:#57F7E0;}
	.st11{fill:none;stroke:#E9FFFB;stroke-linecap:round;stroke-miterlimit:10;}
	.st12{opacity:0.8;fill:#0B3FA5;}
	.st13{opacity:0.8;}
	.st14{fill:#0B3FA5;}
	.st15{fill:#FFA8A7;}
	.st16{fill:#6A89CE;}
	.st17{fill:#2D2979;}
	.st18{fill:#C4D9FF;}
	.st19{fill:#AACAF9;}
	.st20{fill:#F28F8F;}
	.st21{fill:#543354;}
	.st22{fill:#7FA8E6;}
	.st23{fill:#F5FBFB;}
	.st24{opacity:0.15;fill:#6B99D1;}
</style>
<g id="Background" class="st0">
</g>
<g id="Objects">
	<g id="XMLID_3980_">
		<g id="XMLID_795_">
			<g id="XMLID_1776_">
				<path id="XMLID_1784_" class="st1" d="M85.13,452.63L85.13,452.63l5.22,3.02l0.89-7.31l41.19-23.79
					c1.47-0.85,2.67-2.92,2.67-4.62l0-90.16l3.73-15.92l-5.22-3.02c0,0,0,0,0,0l-0.01,0l0,0c-0.48-0.27-1.14-0.23-1.87,0.19
					l-44.72,25.82c-1.47,0.85-2.67,2.92-2.67,4.62l0.01,109.44C84.32,451.75,84.63,452.35,85.13,452.63z"/>
				<path id="XMLID_1777_" class="st2" d="M138.82,313.84l-5.22-3.02c0,0,0,0,0,0l-0.01,0l0,0c-0.48-0.27-1.14-0.23-1.87,0.19
					l-44.72,25.82c-0.74,0.43-1.4,1.16-1.89,1.99l23.86,13.78l26.13-14.73l0-8.11L138.82,313.84z"/>
				<g id="XMLID_1774_">
					<path id="XMLID_1771_" class="st3" d="M139.62,315.58c0-1.71-1.19-2.39-2.66-1.54l-44.73,25.82c-1.48,0.85-2.67,2.92-2.67,4.62
						l0.01,109.45c0,1.69,1.19,2.38,2.66,1.54l44.73-25.83c1.48-0.85,2.67-2.92,2.67-4.62L139.62,315.58z M135.7,425.53l-42.3,24.43
						c-0.99,0.56-1.78,0.11-1.78-1.03l-0.03-101.84c0-1.13,0.8-2.52,1.78-3.08l10.84-6.28l0.26-0.14c0.99-0.56,1.78-0.1,1.78,1.03
						v0.71c0,0.5,0.15,0.87,0.42,1.09c0.03,0.02,0.06,0.04,0.1,0.06v0.01c0.32,0.18,0.77,0.15,1.26-0.13l13.13-7.58
						c0.99-0.56,1.78-1.94,1.78-3.08v-0.71c0-1.13,0.8-2.51,1.78-3.08l10.97-6.33c0.98-0.56,1.78-0.11,1.78,1.03l0.02,101.83
						C137.48,423.57,136.69,424.95,135.7,425.53z"/>
					<path id="XMLID_1764_" class="st4" d="M110.13,334.34l6.37-3.68c0.55-0.32,0.99-0.17,0.99,0.32s-0.44,1.15-0.99,1.46
						l-6.37,3.68c-0.55,0.32-0.99,0.17-0.99-0.32C109.14,335.31,109.58,334.66,110.13,334.34z"/>
					<path id="XMLID_1739_" class="st4" d="M118.2,330.54c0,0.48,0.34,0.67,0.75,0.43c0.41-0.24,0.75-0.82,0.75-1.3
						c0-0.48-0.34-0.67-0.75-0.43C118.53,329.48,118.2,330.06,118.2,330.54z"/>
				</g>
				<path id="XMLID_1843_" class="st4" d="M137.48,422.43c0,1.14-0.79,2.52-1.78,3.09l-42.3,24.43c-0.99,0.56-1.78,0.11-1.78-1.03
					v-0.39l-0.03-101.45c0-1.13,0.8-2.52,1.78-3.08l10.84-6.28l0.26-0.14c0.99-0.56,1.78-0.1,1.78,1.03v0.71
					c0,1.14,0.8,1.6,1.79,1.03l13.13-7.58c0.99-0.56,1.78-1.94,1.78-3.08v-0.71c0-1.13,0.8-2.51,1.78-3.08l10.71-6.18l0.26-0.14
					c0.98-0.56,1.78-0.11,1.78,1.03L137.48,422.43z"/>
				<path id="XMLID_1782_" class="st5" d="M135.68,319.58l-0.26,0.14l-2.12,1.22l0,100.46l3.91,2.26c0.16-0.41,0.26-0.83,0.26-1.22
					l-0.02-101.83C137.46,319.47,136.66,319.02,135.68,319.58z"/>
				<path id="XMLID_1787_" class="st6" d="M135.45,421.16c0,1.14-0.79,2.52-1.78,3.09l-42.04,24.29l-0.03-101.45
					c0-1.13,0.8-2.52,1.78-3.08l10.84-6.28v0.32c0,1.14,0.8,1.6,1.79,1.03l0.25-0.14v0.39c0,1.14,0.8,1.6,1.79,1.03l13.13-7.58
					c0.99-0.56,1.78-1.94,1.78-3.08v-0.71c0-1.13,0.8-2.51,1.78-3.08l10.71-6.18L135.45,421.16z"/>
				<path id="XMLID_1783_" class="st7" d="M127.64,388.74c4.91-18.53,7.1-51.36,7.79-64l0-5.02l-10.71,6.18
					c-0.98,0.58-1.78,1.95-1.78,3.08v0.71c0,1.14-0.79,2.52-1.78,3.08l-13.13,7.58c-0.99,0.58-1.79,0.11-1.79-1.03v-0.39l-0.25,0.14
					c-0.99,0.58-1.79,0.11-1.79-1.03v-0.32l-10.84,6.28c-0.98,0.56-1.78,1.95-1.78,3.08l0.03,89.43
					C92.2,436.15,119.76,418.45,127.64,388.74z"/>
				<path id="XMLID_1797_" class="st4" d="M106.67,340.42l-1.97-1.23c-0.33-0.23-0.48-0.62-0.48-1.13v-0.32l0.26-0.14
					c0.99-0.56,1.78-0.1,1.78,1.03v0.71C106.25,339.83,106.4,340.2,106.67,340.42z"/>
			</g>
			<g id="XMLID_1785_">
				<path id="XMLID_1856_" class="st8" d="M151.87,417.82c0.07-0.18,0.13-0.37,0.18-0.56c0.01-0.03,0.02-0.07,0.02-0.1
					c0.04-0.19,0.07-0.38,0.07-0.56l-0.02-101.83c0-1.14-0.8-1.59-1.78-1.03l-0.26,0.14l-2.12,1.22v0l-8.59,4.96
					c-0.98,0.58-1.78,1.95-1.78,3.08v0.71c0,1.14-0.79,2.52-1.78,3.08l-13.12,7.58c-0.99,0.58-1.79,0.11-1.79-1.03v-0.39v-0.32
					c0-1.13-0.79-1.59-1.78-1.03l-0.26,0.14l-10.84,6.28c-0.98,0.56-1.78,1.95-1.78,3.08l0.03,101.45v0.39
					c0,1.14,0.79,1.59,1.78,1.03l42.3-24.43C151,419.31,151.56,418.59,151.87,417.82L151.87,417.82L151.87,417.82z"/>
				<path id="XMLID_1778_" class="st9" d="M151.87,417.82c0.07-0.18,0.13-0.37,0.18-0.56c0.01-0.03,0.02-0.07,0.02-0.1
					c0.04-0.19,0.07-0.38,0.07-0.56l-0.02-101.83c0-1.14-0.8-1.59-1.78-1.03l-0.26,0.14l-2.12,1.22v0l-8.59,4.96
					c-0.98,0.58-1.78,1.95-1.78,3.08v0.71c0,1.14-0.79,2.52-1.78,3.08l-13.12,7.58c-0.99,0.58-1.79,0.11-1.79-1.03v-0.39v-0.32
					c0-1.13-0.79-1.59-1.78-1.03l-0.26,0.14l-10.84,6.28c-0.98,0.56-1.78,1.95-1.78,3.08l0.03,101.45v0.39
					c0,1.14,0.79,1.59,1.78,1.03l42.3-24.43C151,419.31,151.56,418.59,151.87,417.82L151.87,417.82L151.87,417.82z"/>
			</g>
			<g id="XMLID_1866_">
				<path id="XMLID_1788_" class="st10" d="M129.42,343.28V419c0,1.7,1.19,2.39,2.67,1.54l36.38-21c1.47-0.85,2.67-2.92,2.67-4.62
					v-75.73c0-1.7-1.19-2.39-2.67-1.54l-36.38,21C130.61,339.5,129.42,341.57,129.42,343.28z"/>
				<path id="XMLID_1790_" class="st11" d="M129.42,343.28V419c0,1.7,1.19,2.39,2.67,1.54l36.38-21c1.47-0.85,2.67-2.92,2.67-4.62
					v-75.73c0-1.7-1.19-2.39-2.67-1.54l-36.38,21C130.61,339.5,129.42,341.57,129.42,343.28z"/>
				<path id="XMLID_2238_" class="st12" d="M134.66,389.06l14.55-8.4c0.59-0.34,1.07-0.06,1.07,0.62v0.06
					c0,0.68-0.48,1.51-1.07,1.85l-14.55,8.4c-0.59,0.34-1.07,0.06-1.07-0.62v-0.06C133.59,390.22,134.07,389.4,134.66,389.06z"/>
				<path id="XMLID_2235_" class="st12" d="M153.36,378.26l12.54-7.24c0.59-0.34,1.07-0.06,1.07,0.62v0.06
					c0,0.68-0.48,1.51-1.07,1.85l-12.54,7.24c-0.59,0.34-1.07,0.06-1.07-0.62v-0.06C152.29,379.43,152.77,378.6,153.36,378.26z"/>
				<g id="XMLID_2222_" class="st13">
					<g>
						<g id="XMLID_57_">
							<path class="st14" d="M134.66,400.93l14.55-8.4c0.59-0.34,1.07-0.06,1.07,0.62v0.06c0,0.68-0.48,1.51-1.07,1.85l-14.55,8.4
								c-0.59,0.34-1.07,0.06-1.07-0.62v-0.06C133.59,402.1,134.07,401.27,134.66,400.93z"/>
						</g>
						<g id="XMLID_56_">
							<path class="st14" d="M153.36,390.14l12.54-7.24c0.59-0.34,1.07-0.06,1.07,0.62v0.06c0,0.68-0.48,1.51-1.07,1.85l-12.54,7.24
								c-0.59,0.34-1.07,0.06-1.07-0.62v-0.06C152.29,391.31,152.77,390.48,153.36,390.14z"/>
						</g>
					</g>
				</g>
				<g id="XMLID_2199_" class="st13">
					<g>
						<g id="XMLID_67_">
							<path class="st14" d="M134.66,395l7.88-4.55c0.59-0.34,1.07-0.06,1.07,0.62v0.06c0,0.68-0.48,1.51-1.07,1.85l-7.88,4.55
								c-0.59,0.34-1.07,0.06-1.07-0.62v-0.06C133.59,396.16,134.07,395.34,134.66,395z"/>
						</g>
						<g id="XMLID_66_">
							<path class="st14" d="M146.07,388.4l6.68-3.88c0.59-0.34,1.07-0.07,1.07,0.61v0.06c0,0.68-0.48,1.51-1.07,1.85l-6.68,3.88
								c-0.59,0.34-1.07,0.07-1.07-0.61v-0.06C145.01,389.58,145.49,388.75,146.07,388.4z"/>
						</g>
						<g id="XMLID_65_">
							<path class="st14" d="M156.54,382.33l9.35-5.37c0.59-0.34,1.07-0.06,1.07,0.62v0.06c0,0.68-0.48,1.51-1.07,1.85l-9.35,5.37
								c-0.59,0.34-1.07,0.06-1.07-0.62v-0.06C155.48,383.5,155.95,382.67,156.54,382.33z"/>
						</g>
					</g>
				</g>
				<g id="XMLID_1851_" class="st13">
					<g>
						<g id="XMLID_60_">
							<path class="st14" d="M134.66,406.94l12.69-7.31c0.59-0.34,1.07-0.06,1.07,0.62v0.06c0,0.68-0.48,1.51-1.07,1.85l-12.69,7.31
								c-0.59,0.34-1.07,0.06-1.07-0.62v-0.06C133.59,408.11,134.07,407.28,134.66,406.94z"/>
						</g>
						<g id="XMLID_59_">
							<path class="st14" d="M150.89,397.58l6.68-3.88c0.59-0.34,1.07-0.07,1.07,0.61v0.06c0,0.68-0.48,1.51-1.07,1.85l-6.68,3.88
								c-0.59,0.34-1.07,0.07-1.07-0.61v-0.06C149.82,398.75,150.3,397.92,150.89,397.58z"/>
						</g>
						<g id="XMLID_58_">
							<path class="st14" d="M161.36,391.51l4.54-2.61c0.59-0.34,1.07-0.06,1.07,0.62v0.06c0,0.68-0.48,1.51-1.07,1.85l-4.54,2.61
								c-0.59,0.34-1.07,0.06-1.07-0.62v-0.06C160.29,392.68,160.77,391.85,161.36,391.51z"/>
						</g>
					</g>
				</g>
				<polygon id="XMLID_1853_" class="st12" points="135.68,379.92 164.87,363.07 164.87,329.37 135.63,346.25 				"/>
			</g>
		</g>
		<g id="XMLID_3_">
			<path id="XMLID_2492_" class="st15" d="M199.93,376.04c0.19,1.65,2.21,8.44,1.79,10.88c-0.42,2.43-7.19,6.8-7.19,6.8l-0.93-4.16
				l2.86-2.8c0.54-0.52,0.79-1.27,0.68-2.01l-0.83-5.72L199.93,376.04z"/>
			<path id="XMLID_2191_" class="st16" d="M196.39,384.33l-2.78-12.53c-0.37-4.65,3.89-4.24,4.87-2.61
				c0.99,1.63,2.99,12.34,3.09,13.29c0.37,2.42,0.43,3.6,0.21,4.6c-0.21,1-2.58,3.83-7.24,6.63l-0.93-4.16L196.39,384.33z"/>
			<path id="XMLID_2176_" class="st17" d="M195.68,443.51c0,0,0.08,0.73,0.3,1.64c0.17,0.71,0.21,1.64-0.59,1.9
				c-0.8,0.26-1.72,0.17-2.23-0.52c-0.64-0.87-0.98-1.94-1.9-2.78c-0.89-0.81-1.99-1.72-2.32-3c-0.29-1.16-0.11-1.89,0.69-2
				c1-0.15,2.59,0.69,3.4,1.29C193.61,440.46,195.68,443.51,195.68,443.51z"/>
			<path id="XMLID_15_" class="st17" d="M184.88,450.26c0,0,0.06,0.92,0.11,1.66c0.05,0.73,0.32,1.9,0.08,2.45
				c-0.23,0.54-1.44,0.94-2.87,0.93c-0.92-0.01-2.71,0.71-3.34,1.25c-0.9,0.79-2.98,1.1-4.2,0.72c-1.22-0.38-2.58-0.95-2.78-1.51
				c-0.2-0.56,0.43-0.84,3.41-2.21c2.98-1.37,5.18-2.31,6.33-3.88L184.88,450.26z"/>
			<path id="XMLID_14_" class="st18" d="M196.4,427.67c-0.51-3.9-1.31-6.22-1.31-6.22s0.4-5.36,0.59-10.45
				c0.21-5.49,0.55-12.37,0.65-13.74l-17.81,3.96c0,0,1.12,21.29,1.31,24.08c0.2,2.79,0.41,6.66,0.7,10.24
				c0.37,4.53,0.75,14.55,0.75,14.55c1.88,1.09,3.63,0.7,3.63,0.7s1.54-12.5,1.8-15.71c0.35-4.33-0.75-8.03-0.75-8.03
				s0.49-5.52,0.93-10.06c0.38-4.05,0.86-6.47,0.93-8.45l0.35-0.19c0,0,0.36,7.86,0.56,10.65c0.19,2.79,0.61,5.46,1.36,10.65
				c0.65,4.5,2.35,13.75,2.35,13.75c1.88,1.09,3.25,0.11,3.25,0.11S196.91,431.57,196.4,427.67z"/>
			<path id="XMLID_13_" class="st19" d="M187.81,408.54c0,0,4-2.12,6-4.03c0,0-1.86,2.82-4.3,4.06c0,0-0.87,9.76-0.86,9.57
				l-0.5-9.62L187.81,408.54z"/>
			<path id="XMLID_12_" class="st15" d="M193.8,368.16c-1.36,0.06-2.37,0.41-2.54,0.01c-0.13-0.31-0.31-2.12-0.31-2.12
				c0.16-0.39,0.29-0.82,0.29-0.82c1.7-1.05,2.92-2.82,3.15-4.96c0.38-3.66-2.28-6.94-5.94-7.33c-3.44-0.36-5.98,2.06-6.66,5.38
				c-0.36,1.64-0.69,4.9,0.12,7.82c0.44,1.57,0.81,2.01,1.48,2.23c0.24,0.08,1.81,0.2,2.29,0.15l0,0c0,0,0.18,1.02,0.31,1.67
				c0.13,0.65,0.08,1-1.22,1.8c-1.3,0.8,1.97,2.45,4.1,2.29c2.13-0.16,4.54-1.45,5.19-2.83C194.8,369.93,194.73,368.12,193.8,368.16
				z"/>
			<path id="XMLID_11_" class="st20" d="M193.8,368.16c-1.36,0.06-2.37,0.41-2.54,0.01c-0.13-0.31-0.31-2.12-0.31-2.12
				c0.16-0.39,0.29-0.82,0.29-0.82c0.6-0.37,1.14-0.83,1.6-1.37l-4.5,1.49l-1.32-0.27l-0.53-0.31l-0.35-0.62
				c0,0.09-0.21,2.05-0.64,2.72c-0.44,0.67-1.56,1.44-2.17,1.48c0.03,0.01,0.05,0.02,0.07,0.03c0.24,0.08,1.81,0.2,2.29,0.15l0,0
				c0,0,0.18,1.02,0.31,1.67c0.11,0.59,0.07,0.93-0.89,1.58l1.83,1.4l5.47-0.09c0.15-0.09,0.29-0.19,0.43-0.29l1.63-2.51
				C194.71,369.15,194.5,368.13,193.8,368.16z"/>
			<path id="XMLID_10_" class="st21" d="M191.97,365.47c1.67-1.53,2.2-3.04,2.42-5.19c0.38-3.66-2.28-6.94-5.94-7.33
				c-2.37-0.25-4.31,0.83-5.51,2.6c0,0,0.25,0.5,0.62,0.87c0,0-0.3,0.85,0.24,1.45c0.39,0.43,0.41,0.88,0.41,1.62
				c0,0.63-0.08,1.74-0.02,2.43c0.09,0.97,1.17,1.18,1.17,1.18s0.06-2.16,0.25-2.39c0.37-0.8,1.84-1.04,2.27,0.11
				c0.36,0.95,0.17,1.8-0.13,2.72c-0.3,0.92-1.21,0.88-1.61,0.62c0.01,0.44-0.16,1.95,1.29,2.35c1.45,0.41,2.8,0.03,3.54-0.35
				C191.41,365.94,191.97,365.47,191.97,365.47z"/>
			<path id="XMLID_9_" class="st21" d="M183.56,356.43c0,0-1.73,0.16-3.31-1.65c-1.58-1.81-0.69-3.48,1.22-2.73
				c1.9,0.75,5.09,0.33,6.7,0.16c1.61-0.16,5.88,0.7,5.44,4.16L183.56,356.43z"/>
			<path id="XMLID_8_" class="st22" d="M191.84,368.36c0.38,0.94-0.58,2.08-3.13,2.88c-2.55,0.8-2.78-0.23-2.78-0.23
				s-3.73,1.7-4.95,2.55c-1.53,1.07-2.21,4.16-2.41,9.38c-0.24,6.04-0.74,17.96-0.54,19.5c0,0,1.73,1,3.29-1.27
				c0.93,1.53,2.63,2.78,4.85,3.44c3.59,1.07,8.6-0.28,11.01-5.03c-0.04-5.3-1.52-9.74-0.67-12.79c1.96-6.99,3-9.85,2.04-14.49
				c-0.79-3.83-1.89-4.3-3.4-4.27C193.65,368.09,191.84,368.36,191.84,368.36z"/>
			<path id="XMLID_7_" class="st16" d="M191.1,367.3c0,0,0.24-0.15,0.51,0.05c0.27,0.19,1.02,0.91,1.02,0.91s0.23,1.49-1.57,2.61
				c-1.8,1.12-3.96,1.71-6.19,0.65c0,0,0.41-1.45,0.56-1.7c0.15-0.25,0.43-0.28,0.43-0.28s0.57,0.73,2.72,0
				c2.15-0.73,2.56-1.77,2.56-1.77L191.1,367.3z"/>
			<path id="XMLID_4_" class="st15" d="M172.82,388.93c3,0.76,3.71-1.14,4.1-2.7c0.95-3.79,1.47-7.22,2.18-9.37
				c0.84-2.54,1.72-2.94,2.95-3.44c1.45-0.58,2.69,0.64,2.21,3.87c-0.57,3.82-1.32,6.51-2.75,11.03c-0.37,1.18-1.21,3.28-2.46,4.29
				c-1.55,1.25-3.88,1.2-7.41,0.32c-1.5-0.37-3.15-1.27-6-2.6c-0.76-0.36-1.36-0.59-2.82-1.28c-1.47-0.68-2.99-1.82-3.76-2.94
				c-0.77-1.11-0.87-1.64-0.71-1.89c0.2-0.32,0.55-0.25,0.96,0.22c0.41,0.47,1.01,1.31,2.16,2c0,0-0.95-0.98-1.46-1.62
				c-0.51-0.64-0.92-1.33-1.14-1.86c-0.27-0.65,0.29-1.53,0.71-1.07c0.43,0.46,0.63,0.93,1.4,1.87c0.71,0.85,1.39,1.33,1.39,1.33
				s-0.79-1.05-1.28-2.06c-0.49-1.01-0.49-1.52-0.47-1.86c0.02-0.34,0.5-0.74,0.95-0.1c0.41,0.58,0.67,1.48,1.61,2.46
				c0.69,0.71,1.27,1.12,1.28,0.92c0.02-0.2-0.42-0.59-0.66-1.41c-0.23-0.79,0.01-1.7,0.46-1.8c0.45-0.1,0.37-0.07,0.74,0.71
				c0.37,0.77,0.93,1.35,1.36,2.48c0.38,1,0.55,1.4,1.23,2.12C168.34,387.34,169.97,388.21,172.82,388.93z"/>
			<path id="XMLID_2_" class="st23" d="M170.88,388.32l-1.68-0.76c-0.98,0.42-1.78,2.12-1.47,3.88l2.04,0.84L170.88,388.32z"/>
			<path id="XMLID_1_" class="st16" d="M182.27,372.81c-1.95,0.23-2.82,0.79-3.76,5.09c-0.94,4.31-1.54,8.5-2.28,9.45
				c-0.74,0.95-1.09,2.28-5.59,0.6c0,0-2.09,0.81-1.88,4.31c0,0,2.43,0.92,5.15,1.45c2.72,0.53,5.21,0.28,6.86-3.14
				c1.65-3.42,3.41-10.1,3.69-12.82C184.75,375.04,184.05,372.6,182.27,372.81z"/>
			<path id="XMLID_3611_" class="st24" d="M173.22,446.85l8.54-4.93c5.79-3.34,13.79-4.15,17.87-1.79
				c4.08,2.35,2.68,6.97-3.11,10.32l-8.54,4.93c-5.79,3.34-13.79,4.15-17.87,1.8C166.04,454.82,167.43,450.2,173.22,446.85z"/>
		</g>
		<path id="XMLID_3639_" class="st24" d="M83.43,463.97l50.32-28.91c0.47-0.27,1.23-0.27,1.7,0l4.28,2.43
			c0.47,0.27,0.47,0.71,0,0.98l-50.33,28.89c-0.47,0.27-1.23,0.27-1.7,0l-4.27-2.41C82.96,464.68,82.96,464.25,83.43,463.97z"/>
	</g>
</g>
<g id="Designed_by_Freepik">
</g>
</svg>
