<?xml version="1.0" encoding="utf-8"?>
<!-- Generator: Adobe Illustrator 23.0.3, SVG Export Plug-In . SVG Version: 6.00 Build 0)  -->
<svg version="1.1" xmlns="http://www.w3.org/2000/svg" xmlns:xlink="http://www.w3.org/1999/xlink" x="0px" y="0px"
	 viewBox="0 0 750 500" style="enable-background:new 0 0 750 500;" xml:space="preserve">
<style type="text/css">
	.st0{display:none;}
	.st1{opacity:0.15;fill:#6B99D1;}
	.st2{fill:#98BFF9;}
	.st3{fill:#DCEEFF;}
	.st4{fill:#C8E2FF;}
	.st5{fill:none;}
	.st6{fill:#A5CBFA;}
	.st7{fill:#031F60;}
	.st8{fill:#57F7E0;}
</style>
<g id="Background" class="st0">
</g>
<g id="Objects">
	<g id="XMLID_2218_">
		<path id="XMLID_3973_" class="st1" d="M205.17,241.64l-14.56-8.41c-0.94-0.54-2.46-0.54-3.39,0.01l-27.19,15.86l-4.68-2.69
			c-0.47-0.27-1.23-0.27-1.7,0l-4.28,2.43c-0.47,0.27-0.47,0.71,0,0.98l25.91,14.87c0.47,0.27,1.23,0.27,1.7,0l4.27-2.41
			c0.47-0.27,0.47-0.71,0-0.98l-3.38-1.94l27.3-15.76C206.1,243.06,206.1,242.18,205.17,241.64z"/>
		<path id="XMLID_2237_" class="st2" d="M180.17,237.22c7.03-4.06,12.73-13.93,12.73-22.05V188.5l0,0l3.19-1.84
			c3.51-2.03,6.69-2.22,8.99-0.9l0.03,0.01c0.03,0.02,0.06,0.04,0.09,0.06c2.24,1.36,3.63,4.17,3.63,8.17v30.36
			c0,8.12-5.7,17.99-12.73,22.05l-6.39,3.69c-7.03,4.06-12.73,0.77-12.73-7.35v-3.69L180.17,237.22z"/>
		<path id="XMLID_2231_" class="st3" d="M161.06,203.2c0-8.12,5.7-17.99,12.73-22.05l6.39-3.69c3.48-2.01,6.63-2.21,8.92-0.93
			l0.01,0l0.07,0.04l0.01,0.01l15.9,9.18c-2.3-1.32-5.48-1.13-8.99,0.9l-3.19,1.84v0v0l-3.19,1.84
			c-7.03,4.06-12.73,13.93-12.73,22.05v26.67l-3.19,1.84c-7.03,4.06-12.73,0.77-12.73-7.35V203.2z"/>
		<g id="XMLID_2221_">
			<g>
				<path id="XMLID_342_" class="st4" d="M166.37,206.27v30.35c0,5.64,2.74,8.94,6.77,9.08c-0.94-1.51-1.47-3.53-1.47-6.01v-30.36
					c0-8.11,5.7-17.98,12.73-22.05l6.39-3.69c2.16-1.24,4.18-1.79,5.96-1.72c0.62-0.04,2.13,0.31,2.13,0.31s-3.61-2.06-4.27-2.47
					c-2.31-1.41-5.55-1.24-9.13,0.82l-6.38,3.69C172.06,188.28,166.37,198.14,166.37,206.27z"/>
			</g>
		</g>
		<polygon id="XMLID_2241_" class="st5" points="192.9,188.5 192.9,188.5 192.9,188.5 		"/>
		<path id="XMLID_2250_" class="st4" d="M176.98,242.75c0,8.12,5.7,11.41,12.73,7.35l6.39-3.69c7.03-4.06,12.73-13.93,12.73-22.05
			v-30.36c0-8.12-5.7-11.41-12.73-7.35l-6.39,3.69c-7.03,4.06-12.73,13.93-12.73,22.05L176.98,242.75z M178.94,212.4
			c0-7.36,5.38-16.67,11.75-20.35l6.39-3.69c1.67-0.97,3.3-1.48,4.71-1.48c3.18,0,5.08,2.67,5.08,7.13v30.36
			c0,7.36-5.38,16.68-11.75,20.35l-6.39,3.69c-1.67,0.97-3.3,1.48-4.71,1.48c0,0,0,0,0,0c-1.49,0-2.68-0.55-3.56-1.65
			c-1-1.25-1.53-3.15-1.53-5.48V212.4z"/>
		<g id="XMLID_2214_">
			<path id="XMLID_2174_" class="st4" d="M152.05,207.22l3.86-1.95c0.01-0.01,0.02-0.01,0.04-0.01c0.18-0.09,0.38-0.15,0.59-0.18
				c0.02,0,0.04,0,0.05-0.01c0.2-0.03,0.41-0.03,0.64-0.01c0.03,0,0.05,0.01,0.08,0.01c0.47,0.06,0.97,0.24,1.5,0.55l19.38,11.19
				c1.18,0.68,2.25,1.86,3.02,3.21c0.18,0.31,0.35,0.64,0.49,0.97c0.46,1.05,0.73,2.15,0.73,3.17v0v26.97c0,0.53-0.08,1-0.21,1.4
				c-0.02,0.06-0.04,0.11-0.06,0.16c-0.02,0.06-0.05,0.13-0.08,0.19c-0.03,0.06-0.06,0.11-0.09,0.17c-0.03,0.05-0.06,0.11-0.09,0.15
				c-0.02,0.03-0.04,0.05-0.06,0.08c-0.17,0.24-0.38,0.43-0.61,0.57c-0.01,0.01-0.02,0.01-0.03,0.02l0,0
				c-0.01,0-0.01,0.01-0.02,0.01l-4.19,2.11l-2.26-4.42l-15.91-9.19c-2.34-1.35-4.24-4.64-4.24-7.35v-22.9L152.05,207.22z"/>
			<path id="XMLID_2212_" class="st6" d="M170.48,225.86l10.56-6.1c0.05,0.08,0.11,0.16,0.16,0.25c0.18,0.31,0.35,0.64,0.49,0.97
				c0.46,1.05,0.73,2.15,0.73,3.17v0v26.97c0,0.53-0.08,1-0.21,1.4c-0.02,0.06-0.04,0.11-0.06,0.16c-0.02,0.06-0.05,0.13-0.08,0.19
				c-0.03,0.06-0.06,0.11-0.09,0.17c-0.03,0.05-0.06,0.11-0.09,0.15c-0.02,0.03-0.04,0.05-0.06,0.08c-0.17,0.24-0.38,0.43-0.61,0.57
				c-0.01,0.01-0.02,0.01-0.03,0.02l0,0c-0.01,0-0.01,0.01-0.02,0.01l-4.19,2.11l-2.26-4.42l-4.23-2.45L170.48,225.86z"/>
			<path id="XMLID_2164_" class="st7" d="M174.2,218.82l-19.38-11.19c-2.34-1.35-4.24-0.26-4.24,2.45v26.97c0,2.71,1.9,6,4.24,7.35
				l19.38,11.19c2.34,1.35,4.24,0.26,4.24-2.45l0-26.97C178.45,223.46,176.55,220.17,174.2,218.82z"/>
			<g id="XMLID_2166_">
				<polygon id="XMLID_2165_" class="st8" points="174.47,223.57 170.48,221.27 170.48,225.86 174.47,228.16 				"/>
				<polygon id="XMLID_2168_" class="st8" points="174.47,229.15 170.48,226.86 170.48,229.43 174.47,231.72 				"/>
				<polygon id="XMLID_2182_" class="st8" points="174.47,232.76 170.48,230.46 170.48,231.74 174.47,234.04 				"/>
				<polygon id="XMLID_2197_" class="st8" points="174.47,235.06 170.48,232.76 170.48,233.35 174.47,235.64 				"/>
			</g>
		</g>
	</g>
</g>
<g id="Designed_by_Freepik">
</g>
</svg>
