<?xml version="1.0" encoding="utf-8"?>
<!-- Generator: Adobe Illustrator 23.0.3, SVG Export Plug-In . SVG Version: 6.00 Build 0)  -->
<svg version="1.1" xmlns="http://www.w3.org/2000/svg" xmlns:xlink="http://www.w3.org/1999/xlink" x="0px" y="0px"
	 viewBox="0 0 750 500" style="enable-background:new 0 0 750 500;" xml:space="preserve">
<style type="text/css">
	.st0{display:none;}
	.st1{opacity:0.15;fill:#6B99D1;}
	.st2{fill:#DCEEFF;}
	.st3{fill:#FFFFFF;}
	.st4{fill:#A5CBFA;}
	.st5{fill:#C8E2FF;}
	.st6{fill:#2D2979;}
	.st7{fill:#FFA8A7;}
	.st8{fill:#C4D9FF;}
	.st9{fill:#AACAF9;}
	.st10{fill:#F5FBFB;}
	.st11{fill:#F28F8F;}
	.st12{fill:#3A2C6D;}
	.st13{fill:#EFF6FE;}
	.st14{fill:#AAD1FC;}
	.st15{fill:#AEB5B7;}
</style>
<g id="Background" class="st0">
</g>
<g id="Objects">
	<g id="XMLID_199_">
		<g id="XMLID_2401_">
			<path id="XMLID_3613_" class="st1" d="M235.73,368.14L258.5,355c1.41-0.81,3.69-0.81,5.09,0l22.77,13.15
				c1.41,0.81,1.41,2.13,0,2.94l-22.77,13.15c-1.41,0.81-3.69,0.81-5.09,0l-22.77-13.15C234.32,370.27,234.32,368.96,235.73,368.14z
				"/>
			<path id="XMLID_2435_" class="st2" d="M235.73,341.55l22.77-13.15c1.41-0.81,3.69-0.81,5.09,0l22.77,13.15
				c1.41,0.81,1.41,2.13,0,2.94l-22.77,13.15c-1.41,0.81-3.69,0.81-5.09,0l-22.77-13.15C234.32,343.68,234.32,342.37,235.73,341.55z
				"/>
			<g id="XMLID_2415_">
				<path class="st3" d="M261.05,328.8c0.78,0,1.52,0.17,2.05,0.47l22.77,13.15c0.41,0.24,0.56,0.47,0.55,0.6
					c0,0.13-0.15,0.37-0.55,0.6l-22.77,13.15c-0.52,0.3-1.27,0.47-2.05,0.47c-0.78,0-1.52-0.17-2.05-0.47l-22.77-13.15
					c-0.41-0.24-0.56-0.47-0.55-0.6c0-0.13,0.15-0.37,0.55-0.6L259,329.27C259.52,328.97,260.27,328.8,261.05,328.8 M261.05,327.8
					c-0.92,0-1.84,0.2-2.55,0.61l-22.77,13.15c-1.41,0.81-1.41,2.13,0,2.94l22.77,13.15c0.7,0.41,1.62,0.61,2.55,0.61
					s1.84-0.2,2.55-0.61l22.77-13.15c1.41-0.81,1.41-2.13,0-2.94l-22.77-13.15C262.89,328,261.97,327.8,261.05,327.8L261.05,327.8z"
					/>
			</g>
			<path id="XMLID_2413_" class="st4" d="M234.67,366.01c0.01,0.61,0.41,1.08,1.05,1.47l22.77,13.15c0.66,0.38,1.5,0.59,2.55,0.61
				v-22.99c-1-0.01-1.85-0.21-2.55-0.61l-22.77-13.15c-0.57-0.32-1.05-0.81-1.05-1.47V366.01z"/>
			<path id="XMLID_2407_" class="st5" d="M287.42,366.01c-0.01,0.61-0.41,1.08-1.05,1.47l-22.77,13.15
				c-0.66,0.38-1.5,0.59-2.55,0.61v-22.99c1-0.01,1.85-0.21,2.55-0.61l22.77-13.15c0.57-0.32,1.05-0.81,1.05-1.47V366.01z"/>
		</g>
		<g id="XMLID_25_">
			<g id="XMLID_555_">
				<path id="XMLID_3037_" class="st6" d="M280.01,368.76c-0.52,1.05-0.16,2.01,0.04,2.99c0.38,1.9-0.07,4.33-0.07,4.33
					c0.1,0.23,0.86,0.39,1.11,0.08c0,0,0.41-4.04,1.44-3.58L280.01,368.76z"/>
				<path id="XMLID_3033_" class="st7" d="M288.3,376.15c-0.91-1.73-1.77-7.16-1.97-8.41c-0.08-0.53-0.08-1.41,0.07-2.4
					c0.27-1.77,1.53-6.13,1.53-6.13l-3.84-1.24l-1.42,6.7c-0.11,0.87-0.46,1.42-0.83,1.9c-0.37,0.49-1.14,1.67-1.41,2.23
					c-0.3,0.73-0.77,1.48,0.33,2.62c1.1,1.14,1.76,1.8,2.43,2.88c0.67,1.09,0.45,2.39,1.59,3.72c1.14,1.33,3.68,0.74,4.2,0.4
					C289.71,377.94,289.55,377.4,288.3,376.15z"/>
				<path id="XMLID_556_" class="st6" d="M287.96,377.46c-2.79,0.33-3.29-0.1-3.69-3.25c-0.3-2.42-0.62-4.16-1.54-5.19
					c-1.1-1.23-1.1-1.93-0.7-2.7c-0.27-0.05-0.6,0.03-0.85,0.61c-0.57,1.3-1.22,1.45-1.36,2.42c-0.14,0.96,0.41,1.89,1.07,2.45
					c1.09,0.93,1.37,1.31,1.78,2.53c0.48,1.43,0.16,2.91,0.44,4.22c1.7,1.7,3.6,2.91,6.82,1.89c0.77-1.47,1.35-2.11-1.63-4.29
					C288.81,376.9,289.01,377.34,287.96,377.46z"/>
			</g>
			<g id="XMLID_44_">
				<path id="XMLID_368_" class="st6" d="M274.41,374.79c-0.38,1.11,0.09,2.02,0.4,2.96c0.61,1.84,0.46,4.31,0.46,4.31
					c0.12,0.22,0.9,0.28,1.12-0.06c0,0-0.09-4.06,0.99-3.73L274.41,374.79z"/>
				<path id="XMLID_122_" class="st7" d="M283.55,381.11c-1.12-1.61-2.63-6.89-2.98-8.11c-0.15-0.51-0.25-1.39-0.22-2.4
					c0.05-1.79,0.49-5.29,0.62-6.29l-5.14-0.99l0.74,7.08c0,0.88-0.28,1.46-0.59,1.99c-0.3,0.53-0.93,1.79-1.13,2.39
					c-0.21,0.76-0.58,1.57,0.65,2.56c1.23,0.99,1.97,1.57,2.77,2.56c0.8,1,0.74,2.32,2.03,3.5c1.29,1.18,3.75,0.29,4.22-0.12
					C285.17,382.71,284.94,382.2,283.55,381.11z"/>
				<path id="XMLID_45_" class="st6" d="M283.36,382.46c-2.73,0.66-3.28,0.3-4.06-2.78c-0.6-2.36-1.13-4.05-2.16-4.96
					c-1.24-1.09-1.33-1.78-1.03-2.59c-0.27-0.02-0.59,0.11-0.77,0.7c-0.4,1.36-1.03,1.59-1.05,2.57c-0.02,0.98,0.63,1.83,1.36,2.3
					c1.2,0.79,1.52,1.14,2.08,2.29c0.65,1.36,0.52,2.86,0.95,4.13c1.9,1.48,3.93,2.45,7,1.04c0.59-1.55,1.08-2.26-2.15-4.05
					C284.14,381.79,284.4,382.2,283.36,382.46z"/>
			</g>
			<path id="XMLID_41_" class="st7" d="M276.65,330.11c1.54,2.23,3.15,3.65,5.2,5.41c0.56,0.48,0.84,0.99,1.78,2.05
				c0.94,1.06,2.31,2.02,3.49,2.32s1.68,0.22,1.87,0c0.25-0.28,0.11-0.56-0.41-0.76c-0.51-0.2-1.41-0.45-2.29-1.23
				c0,0,1.1,0.51,1.79,0.75c0.69,0.24,1.41,0.36,1.93,0.38c0.65,0.02,1.33-0.76,0.82-0.97c-0.52-0.22-0.99-0.24-2-0.61
				c-0.92-0.34-1.51-0.78-1.51-0.78s1.13,0.34,2.15,0.44c1.02,0.1,1.49-0.08,1.8-0.21c0.3-0.13,0.57-0.68-0.12-0.86
				c-0.61-0.16-1.49-0.1-2.59-0.6c-0.8-0.36-1.3-0.74-1.12-0.82c0.18-0.08,0.63,0.17,1.43,0.11c0.77-0.06,1.55-0.57,1.54-1
				c-0.01-0.43-0.17-0.19-0.96-0.26c-0.78-0.07-1.4-0.42-2.52-0.43c-0.99,0-1.63-0.04-2.48-0.29s-2.76-2.54-4.22-4.64
				c-1.85-2.64-3.24-5.93-3.74-7.58c-0.88-2.89-1.93-8.3-2.67-10.17c-0.74-1.88-2.03-2.73-3.26-2.77c-1.44-0.05-2.06,1.85-1.67,3.48
				C269.55,313.94,272.75,324.98,276.65,330.11z"/>
			<path id="XMLID_39_" class="st8" d="M258.05,334.78c-1.77,4.79-1.49,8.73,4.79,12.23c3.34,1.86,13.17,5.2,13.17,5.2
				s-1.13,1.8-1,5.16c0.15,3.93,1.4,12.99,1.4,12.99s2.17,1.12,4.01-0.05c0,0,0.82-7.68,1.43-13.05c0.77-6.71,1.41-6.74,1.07-8.19
				c-0.3-1.28-10.05-6.33-12.04-8.44l0.33-0.12l14.88,6.3c0,0-1.39,2.13-1.89,5.91c-0.7,5.29-1.36,11.01-1.36,11.01
				s2.11,1.53,3.91,0.03c0,0,7.82-18.08,6.77-20.68c-1.4-3.44-19.73-11.32-20.48-12.84L258.05,334.78z"/>
			<path id="XMLID_38_" class="st9" d="M270.88,340.63c0,0,2.02-2.11,2.93-5.06c0,0-0.17,2.07-0.63,3.56
				c-0.45,1.5,9.64,6.31,9.64,6.31l-11.62-4.92L270.88,340.63z"/>
			<path id="XMLID_37_" class="st7" d="M261.88,302.94c0,0,0.29,5.22,0.19,5.6c-0.1,0.38-2.05,0.75-2.6,1.2
				c-0.55,0.45,2.82,5.76,4.54,6.54c1.72,0.79,7.05-1.2,7.43-3.85c0.35-2.44-1.51-4.34-2.23-5.01c-0.48-0.1-1.25-0.01-1.47-0.04
				l-0.15-2.53C265.26,304.12,261.88,302.94,261.88,302.94z"/>
			<path id="XMLID_35_" class="st10" d="M261.14,309.05c-1.47,0.22-3.14,1-3.38,1.8c-0.27,0.94-0.87,5.35,0.39,8.71
				c1.26,3.36,2.54,5.64,3.26,7.09c0,0,5.75,1.73,10.87-1.42c0,0,0.52-2.73,0.55-4.66c4.56-3.96,0.99-8.83-2.84-12.72
				c-0.3-0.3-0.71-0.47-1.13-0.48c-0.27,0-0.54,0.01-0.74,0.02c0,0,1.46,1.3,2.18,2.95c0.66,1.52,0.16,3.1-1.12,3.67
				c-1.86,0.82-3.21,0.32-4.78-1.37C263.35,311.49,262.84,310,261.14,309.05z"/>
			<path id="XMLID_34_" class="st11" d="M267.71,306.91l-0.12-2.05l-1.66-0.54l-4.06-1.38c0,0,0.05,0.94,0.08,1.64
				c0,0,0.17,1.79,3.11,3.18C265.58,308,267.55,308.19,267.71,306.91z"/>
			<path id="XMLID_28_" class="st7" d="M271.82,296.47L271.82,296.47c-0.52-3.35-3.11-5.85-6.57-5.66
				c-3.68,0.21-6.49,3.35-6.29,7.03c0.12,2.15,1.26,3.98,2.91,5.11c0,0,0.33,0.91,0.53,1.18c1.3,1.75,4.47,2.63,5.55,2.65
				c0.93,0.01,1.87-0.78,2.61-2.29C272.07,301.37,272.11,298.12,271.82,296.47z"/>
			<path id="XMLID_57_" class="st12" d="M271.14,293.8c-1.43-2.17-4.05-3.46-6.91-2.86c-2.82,0.59-4.99,3.03-5.25,5.89
				c-0.24,2.58,1,4.81,2.89,6.11c-0.07-0.23-1.82-2.83-0.03-3.41c0.29,0.33,0.36,0.84,0.37,1.37c0,0,0.89-0.08,0.69-1.13
				c-0.06-0.29-0.11-0.56-0.15-0.8c-0.16-0.81,0.05-1.63,0.51-2.31c0.37-0.55,0.69-1.32,0.47-2.18c0,0,2.22,0.99,5.06,0.39
				C269.99,294.63,270.81,294.18,271.14,293.8z"/>
			<path id="XMLID_56_" class="st7" d="M261.88,302.94c0,0-0.16,0.33-0.81,0.37c-1.21,0.06-2.63-2.19-1.66-3.72
				c0.61-0.96,1.99-0.62,2.44-0.05L261.88,302.94z"/>
			<path id="XMLID_55_" class="st10" d="M261.06,325.97c0.36,0.68,0.18,1.6-0.58,3.15c-0.93,1.88-1.98,3.81-2.89,6.85
				c0.1,0.42,1.11,1.39,5.26,1.87c5.07,0.58,11.38-2.65,10.83-6.67c-0.34-2.14-1.14-3.83-1.39-5.94
				C272.04,323.11,261.06,325.97,261.06,325.97z"/>
			<path id="XMLID_51_" class="st12" d="M260.42,293.31c0,0,0.86-2.44,3.14-2.94c2.28-0.5,6.35-0.07,8.4,3.19
				c1.52,2.42,1.06,4.55,1.06,4.55s-5.81,1.39-9.29-3.62L260.42,293.31z"/>
			<path id="XMLID_32_" class="st12" d="M257.73,293.48c1.17,1.27,3.32,1.19,4.81-0.19c1.48-1.37,1.74-3.51,0.57-4.78
				c-1.17-1.27-3.32-1.18-4.81,0.19C256.81,290.07,256.56,292.21,257.73,293.48z"/>
			<path id="XMLID_26_" class="st7" d="M263.41,344.17c-0.69-0.46-1.11-1.11-2.13-1.68c-0.9-0.5-1.47-0.86-2.15-1.53
				c-0.68-0.68-1.68-3.51-2.2-6.28c-0.62-3.27-0.25-7.51,0.16-9.33c0.88-3.91,2.88-9,3.7-10.73c0.98-2.07,0.43-3.34-0.47-4.26
				c-1.05-1.08-2.15-1.05-3.4,1.84c-1.25,2.9-3.24,8.38-3.88,12.63c-0.31,2.06-0.65,5.31,0.13,9.51c0.54,2.93,1.35,5.25,2.53,7.98
				c0.32,0.75,0.38,1.38,0.83,2.88c0.45,1.5,1.33,3.11,2.28,4c0.96,0.89,1.44,1.06,1.71,0.95c0.33-0.14,0.31-0.49-0.08-0.94
				c-0.39-0.46-1.11-1.15-1.61-2.34c0,0,0.8,1.04,1.34,1.62c0.54,0.58,1.14,1.06,1.61,1.34c0.58,0.35,1.5-0.06,1.12-0.53
				c-0.38-0.47-0.8-0.73-1.59-1.6c-0.71-0.79-1.07-1.51-1.07-1.51s0.9,0.9,1.79,1.51c0.89,0.61,1.39,0.68,1.71,0.71
				c0.33,0.03,0.78-0.37,0.23-0.89c-0.5-0.47-1.32-0.84-2.13-1.88c-0.59-0.75-0.89-1.37-0.7-1.36c0.19,0.01,0.5,0.48,1.26,0.83
				c0.72,0.33,1.63,0.23,1.78-0.19C264.34,344.48,264.1,344.63,263.41,344.17z"/>
			<g id="XMLID_3751_">
				<g id="XMLID_3752_">
					<path id="XMLID_3926_" class="st13" d="M293.32,338.42L283,332.46c-0.18-0.11-0.41-0.11-0.59,0l-18.1,10.45l10.61,6.13
						L293.32,338.42z"/>
					<polygon id="XMLID_3805_" class="st14" points="274.83,348.16 269.27,344.95 285.54,335.56 291.13,338.75 					"/>
					<polygon id="XMLID_3803_" class="st15" points="272.1,339.24 272.2,339.29 274.93,340.87 279.78,338.07 279.88,338.01 
						277.05,336.38 					"/>
					<polygon id="XMLID_3800_" class="st14" points="272.2,339.29 274.93,340.87 279.78,338.07 277.05,336.5 					"/>
					<path id="XMLID_3765_" class="st5" d="M264.31,342.91v0.24c0,0.36,0.19,0.68,0.5,0.86l9.62,5.55c0.15,0.09,0.33,0.13,0.5,0.13
						c0.17,0,0.34-0.04,0.5-0.13l17.4-10.05c0.31-0.18,0.5-0.51,0.5-0.86v-0.24l-18.39,10.62L264.31,342.91z"/>
					<path id="XMLID_3764_" class="st14" d="M274.93,349.04v0.66c0.17,0,0.34-0.04,0.5-0.13l17.4-10.05c0.31-0.18,0.5-0.51,0.5-0.86
						v-0.24L274.93,349.04z"/>
					<path id="XMLID_3763_" class="st13" d="M275.21,349.19c0.33,0.13,0.7,0.1,1.02-0.08l17.32-10c0.3-0.18,0.51-0.48,0.57-0.82
						l1.9-11.31c0.01-0.06,0.02-0.13,0.02-0.19c0-0.32-0.13-0.62-0.35-0.84l-18,10.4c-0.22,0.13-0.38,0.35-0.42,0.61L275.21,349.19z
						"/>
					<path id="XMLID_3762_" class="st5" d="M274.93,349.04l0.12,0.07c0.05,0.03,0.11,0.06,0.16,0.08l2.05-12.24
						c0.04-0.26,0.2-0.48,0.42-0.61l18-10.4c-0.07-0.07-0.15-0.13-0.24-0.18l-18.04,10.41c-0.22,0.13-0.38,0.35-0.42,0.61
						L274.93,349.04z"/>
					<path id="XMLID_3755_" class="st14" d="M284.96,338.75c0.13-0.76,0.91-1.76,1.75-2.25s1.41-0.26,1.29,0.5
						c-0.13,0.76-0.91,1.76-1.75,2.25S284.84,339.5,284.96,338.75z"/>
				</g>
			</g>
		</g>
		<path id="XMLID_3640_" class="st1" d="M274.22,380.17l6.31-3.64c4.28-2.47,10.19-3.06,13.2-1.33c3.01,1.74,1.98,5.15-2.3,7.62
			l-6.31,3.64c-4.28,2.47-10.19,3.06-13.2,1.33C268.92,386.05,269.94,382.64,274.22,380.17z"/>
	</g>
</g>
<g id="Designed_by_Freepik">
</g>
</svg>
