<?xml version="1.0" encoding="utf-8"?>
<!-- Generator: Adobe Illustrator 23.0.3, SVG Export Plug-In . SVG Version: 6.00 Build 0)  -->
<svg version="1.1" xmlns="http://www.w3.org/2000/svg" xmlns:xlink="http://www.w3.org/1999/xlink" x="0px" y="0px"
	 viewBox="0 0 750 500" style="enable-background:new 0 0 750 500;" xml:space="preserve">
<style type="text/css">
	.st0{display:none;}
	.st1{opacity:0.15;fill:#6B99D1;}
	.st2{fill:url(#SVGID_1_);}
	.st3{fill:url(#SVGID_2_);}
	.st4{fill:url(#SVGID_3_);}
	.st5{fill:url(#SVGID_4_);}
	.st6{fill:url(#SVGID_5_);}
	.st7{fill:url(#SVGID_6_);}
	.st8{fill:url(#SVGID_7_);}
	.st9{fill:url(#SVGID_8_);}
	.st10{fill:url(#SVGID_9_);}
	.st11{fill:url(#SVGID_10_);}
	.st12{fill:url(#SVGID_11_);}
	.st13{fill:url(#SVGID_12_);}
	.st14{fill:url(#SVGID_13_);}
	.st15{fill:url(#SVGID_14_);}
	.st16{fill:url(#SVGID_15_);}
	.st17{fill:url(#SVGID_16_);}
	.st18{fill:url(#SVGID_17_);}
	.st19{fill:url(#SVGID_18_);}
	.st20{fill:url(#SVGID_19_);}
	.st21{fill:url(#SVGID_20_);}
	.st22{fill:#ABFFEF;}
	.st23{fill:#41E5C9;}
	.st24{fill:#6CFFE6;}
	.st25{fill:none;stroke:#FFFFFF;stroke-linecap:round;stroke-miterlimit:10;}
	.st26{fill:url(#SVGID_21_);}
	.st27{fill:url(#SVGID_22_);}
	.st28{fill:url(#SVGID_23_);}
	.st29{fill:url(#SVGID_24_);}
	.st30{fill:url(#SVGID_25_);}
	.st31{fill:url(#SVGID_26_);}
	.st32{fill:url(#SVGID_27_);}
	.st33{fill:url(#SVGID_28_);}
	.st34{fill:url(#SVGID_29_);}
	.st35{fill:url(#SVGID_30_);}
	.st36{fill:url(#SVGID_31_);}
	.st37{fill:url(#SVGID_32_);}
	.st38{fill:url(#XMLID_2_);}
	.st39{fill:url(#XMLID_3_);}
	.st40{fill:url(#XMLID_4_);}
	.st41{fill:url(#XMLID_5_);}
</style>
<g id="Background" class="st0">
</g>
<g id="Objects">
	<g id="XMLID_391_">
		<path id="XMLID_3606_" class="st1" d="M580.45,275.77l-6.48,3.74c-0.94,0.54-2.45,0.54-3.39-0.01l-28.19-16.56
			c-0.93-0.55-0.93-1.43,0.01-1.97l6.2-3.58c0.94-0.54,2.46-0.54,3.4,0l28.45,16.43C581.39,274.36,581.39,275.23,580.45,275.77z"/>
		<g id="XMLID_2308_">
			<g id="XMLID_2530_">
				<g>
					<g id="XMLID_771_">
						
							<linearGradient id="SVGID_1_" gradientUnits="userSpaceOnUse" x1="1740.7277" y1="140.0228" x2="1740.7277" y2="157.9731" gradientTransform="matrix(0.5 -0.866 0.866 0.5 -460.2412 1661.9299)">
							<stop  offset="0" style="stop-color:#C8E2FF"/>
							<stop  offset="0.1783" style="stop-color:#C2DEFC"/>
							<stop  offset="0.4099" style="stop-color:#B2D1F4"/>
							<stop  offset="0.671" style="stop-color:#97BCE7"/>
							<stop  offset="0.9518" style="stop-color:#729FD5"/>
							<stop  offset="1" style="stop-color:#6B99D1"/>
						</linearGradient>
						<polygon class="st2" points="545.37,234.38 546.96,231.63 533.52,223.87 531.93,226.62 						"/>
					</g>
					<g id="XMLID_770_">
						
							<linearGradient id="SVGID_2_" gradientUnits="userSpaceOnUse" x1="1740.7277" y1="140.0196" x2="1740.7277" y2="157.9735" gradientTransform="matrix(0.5 -0.866 0.866 0.5 -460.2412 1661.9299)">
							<stop  offset="0" style="stop-color:#C8E2FF"/>
							<stop  offset="0.1783" style="stop-color:#C2DEFC"/>
							<stop  offset="0.4099" style="stop-color:#B2D1F4"/>
							<stop  offset="0.671" style="stop-color:#97BCE7"/>
							<stop  offset="0.9518" style="stop-color:#729FD5"/>
							<stop  offset="1" style="stop-color:#6B99D1"/>
						</linearGradient>
						<path class="st3" d="M546.16,231.71c-0.62,0.36-1.12,1.23-1.12,1.94c0,0.71,0.5,1,1.12,0.65c0.62-0.36,1.12-1.23,1.12-1.94
							C547.28,231.64,546.78,231.36,546.16,231.71z"/>
					</g>
					<g id="XMLID_769_">
						
							<linearGradient id="SVGID_3_" gradientUnits="userSpaceOnUse" x1="1740.7275" y1="140.0227" x2="1740.7275" y2="157.9713" gradientTransform="matrix(0.5 -0.866 0.866 0.5 -460.2412 1661.9299)">
							<stop  offset="0" style="stop-color:#C8E2FF"/>
							<stop  offset="0.1783" style="stop-color:#C2DEFC"/>
							<stop  offset="0.4099" style="stop-color:#B2D1F4"/>
							<stop  offset="0.671" style="stop-color:#97BCE7"/>
							<stop  offset="0.9518" style="stop-color:#729FD5"/>
							<stop  offset="1" style="stop-color:#6B99D1"/>
						</linearGradient>
						<path class="st4" d="M533.52,223.87c0.76,0.44,1.02,1.41,0.58,2.16s-1.41,1.02-2.16,0.58c-0.76-0.44-1.02-1.41-0.58-2.16
							C531.79,223.7,532.76,223.44,533.52,223.87z"/>
					</g>
				</g>
			</g>
			<g id="XMLID_2499_">
				<g>
					<g id="XMLID_713_">
						
							<linearGradient id="SVGID_4_" gradientUnits="userSpaceOnUse" x1="1746.7015" y1="136.5772" x2="1746.7015" y2="154.5274" gradientTransform="matrix(0.5 -0.866 0.866 0.5 -460.2412 1661.9299)">
							<stop  offset="0" style="stop-color:#C8E2FF"/>
							<stop  offset="0.1783" style="stop-color:#C2DEFC"/>
							<stop  offset="0.4099" style="stop-color:#B2D1F4"/>
							<stop  offset="0.671" style="stop-color:#97BCE7"/>
							<stop  offset="0.9518" style="stop-color:#729FD5"/>
							<stop  offset="1" style="stop-color:#6B99D1"/>
						</linearGradient>
						<polygon class="st5" points="545.38,227.48 546.96,224.74 533.52,216.98 531.93,219.72 						"/>
					</g>
					<g id="XMLID_712_">
						
							<linearGradient id="SVGID_5_" gradientUnits="userSpaceOnUse" x1="1746.7015" y1="136.575" x2="1746.7015" y2="154.5278" gradientTransform="matrix(0.5 -0.866 0.866 0.5 -460.2412 1661.9299)">
							<stop  offset="0" style="stop-color:#C8E2FF"/>
							<stop  offset="0.1783" style="stop-color:#C2DEFC"/>
							<stop  offset="0.4099" style="stop-color:#B2D1F4"/>
							<stop  offset="0.671" style="stop-color:#97BCE7"/>
							<stop  offset="0.9518" style="stop-color:#729FD5"/>
							<stop  offset="1" style="stop-color:#6B99D1"/>
						</linearGradient>
						<path class="st6" d="M546.17,224.82c-0.62,0.36-1.12,1.23-1.12,1.94c0,0.71,0.5,1,1.12,0.65c0.62-0.36,1.12-1.23,1.12-1.94
							C547.29,224.75,546.79,224.46,546.17,224.82z"/>
					</g>
					<g id="XMLID_711_">
						
							<linearGradient id="SVGID_6_" gradientUnits="userSpaceOnUse" x1="1746.7015" y1="136.5768" x2="1746.7015" y2="154.5259" gradientTransform="matrix(0.5 -0.866 0.866 0.5 -460.2412 1661.9299)">
							<stop  offset="0" style="stop-color:#C8E2FF"/>
							<stop  offset="0.1783" style="stop-color:#C2DEFC"/>
							<stop  offset="0.4099" style="stop-color:#B2D1F4"/>
							<stop  offset="0.671" style="stop-color:#97BCE7"/>
							<stop  offset="0.9518" style="stop-color:#729FD5"/>
							<stop  offset="1" style="stop-color:#6B99D1"/>
						</linearGradient>
						<path class="st7" d="M533.52,216.98c0.76,0.44,1.02,1.41,0.58,2.16c-0.44,0.76-1.41,1.02-2.16,0.58s-1.02-1.41-0.58-2.16
							C531.79,216.8,532.76,216.54,533.52,216.98z"/>
					</g>
				</g>
			</g>
			<g id="XMLID_2385_">
				<g>
					<g id="XMLID_705_">
						
							<linearGradient id="SVGID_7_" gradientUnits="userSpaceOnUse" x1="1752.6757" y1="133.1312" x2="1752.6757" y2="151.0824" gradientTransform="matrix(0.5 -0.866 0.866 0.5 -460.2412 1661.9299)">
							<stop  offset="0" style="stop-color:#C8E2FF"/>
							<stop  offset="0.1783" style="stop-color:#C2DEFC"/>
							<stop  offset="0.4099" style="stop-color:#B2D1F4"/>
							<stop  offset="0.671" style="stop-color:#97BCE7"/>
							<stop  offset="0.9518" style="stop-color:#729FD5"/>
							<stop  offset="1" style="stop-color:#6B99D1"/>
						</linearGradient>
						<polygon class="st8" points="545.38,220.59 546.96,217.84 533.52,210.08 531.94,212.82 						"/>
					</g>
					<g id="XMLID_704_">
						
							<linearGradient id="SVGID_8_" gradientUnits="userSpaceOnUse" x1="1752.6758" y1="133.1346" x2="1752.6758" y2="151.0821" gradientTransform="matrix(0.5 -0.866 0.866 0.5 -460.2412 1661.9299)">
							<stop  offset="0" style="stop-color:#C8E2FF"/>
							<stop  offset="0.1783" style="stop-color:#C2DEFC"/>
							<stop  offset="0.4099" style="stop-color:#B2D1F4"/>
							<stop  offset="0.671" style="stop-color:#97BCE7"/>
							<stop  offset="0.9518" style="stop-color:#729FD5"/>
							<stop  offset="1" style="stop-color:#6B99D1"/>
						</linearGradient>
						<path class="st9" d="M546.17,217.92c-0.62,0.36-1.12,1.23-1.12,1.94c0,0.71,0.5,1,1.12,0.65c0.62-0.36,1.12-1.23,1.12-1.94
							C547.29,217.85,546.79,217.56,546.17,217.92z"/>
					</g>
					<g id="XMLID_703_">
						
							<linearGradient id="SVGID_9_" gradientUnits="userSpaceOnUse" x1="1752.6755" y1="133.1312" x2="1752.6755" y2="151.0851" gradientTransform="matrix(0.5 -0.866 0.866 0.5 -460.2412 1661.9299)">
							<stop  offset="0" style="stop-color:#C8E2FF"/>
							<stop  offset="0.1783" style="stop-color:#C2DEFC"/>
							<stop  offset="0.4099" style="stop-color:#B2D1F4"/>
							<stop  offset="0.671" style="stop-color:#97BCE7"/>
							<stop  offset="0.9518" style="stop-color:#729FD5"/>
							<stop  offset="1" style="stop-color:#6B99D1"/>
						</linearGradient>
						<path class="st10" d="M533.52,210.08c0.76,0.44,1.02,1.41,0.58,2.16c-0.44,0.76-1.41,1.02-2.16,0.58s-1.02-1.41-0.58-2.16
							C531.79,209.9,532.76,209.64,533.52,210.08z"/>
					</g>
				</g>
			</g>
			<g id="XMLID_2309_">
				<g>
					<g id="XMLID_696_">
						
							<linearGradient id="SVGID_10_" gradientUnits="userSpaceOnUse" x1="1758.6494" y1="129.6856" x2="1758.6494" y2="147.6368" gradientTransform="matrix(0.5 -0.866 0.866 0.5 -460.2412 1661.9299)">
							<stop  offset="0" style="stop-color:#C8E2FF"/>
							<stop  offset="0.1783" style="stop-color:#C2DEFC"/>
							<stop  offset="0.4099" style="stop-color:#B2D1F4"/>
							<stop  offset="0.671" style="stop-color:#97BCE7"/>
							<stop  offset="0.9518" style="stop-color:#729FD5"/>
							<stop  offset="1" style="stop-color:#6B99D1"/>
						</linearGradient>
						<polygon class="st11" points="545.38,213.69 546.97,210.95 533.52,203.19 531.94,205.93 						"/>
					</g>
					<g id="XMLID_692_">
						
							<linearGradient id="SVGID_11_" gradientUnits="userSpaceOnUse" x1="1758.6497" y1="129.6847" x2="1758.6497" y2="147.6368" gradientTransform="matrix(0.5 -0.866 0.866 0.5 -460.2412 1661.9299)">
							<stop  offset="0" style="stop-color:#C8E2FF"/>
							<stop  offset="0.1783" style="stop-color:#C2DEFC"/>
							<stop  offset="0.4099" style="stop-color:#B2D1F4"/>
							<stop  offset="0.671" style="stop-color:#97BCE7"/>
							<stop  offset="0.9518" style="stop-color:#729FD5"/>
							<stop  offset="1" style="stop-color:#6B99D1"/>
						</linearGradient>
						<path class="st12" d="M546.17,211.02c-0.62,0.36-1.12,1.23-1.12,1.94c0,0.71,0.5,1,1.12,0.65c0.62-0.36,1.12-1.23,1.12-1.94
							C547.29,210.96,546.79,210.67,546.17,211.02z"/>
					</g>
					<g id="XMLID_691_">
						
							<linearGradient id="SVGID_12_" gradientUnits="userSpaceOnUse" x1="1758.6492" y1="129.6854" x2="1758.6492" y2="147.6389" gradientTransform="matrix(0.5 -0.866 0.866 0.5 -460.2412 1661.9299)">
							<stop  offset="0" style="stop-color:#C8E2FF"/>
							<stop  offset="0.1783" style="stop-color:#C2DEFC"/>
							<stop  offset="0.4099" style="stop-color:#B2D1F4"/>
							<stop  offset="0.671" style="stop-color:#97BCE7"/>
							<stop  offset="0.9518" style="stop-color:#729FD5"/>
							<stop  offset="1" style="stop-color:#6B99D1"/>
						</linearGradient>
						<path class="st13" d="M533.52,203.19c0.76,0.44,1.02,1.41,0.58,2.16c-0.44,0.76-1.41,1.02-2.16,0.58
							c-0.76-0.44-1.02-1.41-0.58-2.16C531.8,203.01,532.77,202.75,533.52,203.19z"/>
					</g>
				</g>
			</g>
		</g>
		<g id="XMLID_2294_">
			<g>
				<g id="XMLID_839_">
					<g>
						<g id="XMLID_842_">
							
								<linearGradient id="SVGID_13_" gradientUnits="userSpaceOnUse" x1="1894.8701" y1="255.6806" x2="1894.8701" y2="272.7243" gradientTransform="matrix(-1 0 0 1 2466.0586 0)">
								<stop  offset="0" style="stop-color:#6B99D1"/>
								<stop  offset="0.0482" style="stop-color:#729FD5"/>
								<stop  offset="0.329" style="stop-color:#97BCE7"/>
								<stop  offset="0.5901" style="stop-color:#B2D1F4"/>
								<stop  offset="0.8217" style="stop-color:#C2DEFC"/>
								<stop  offset="1" style="stop-color:#C8E2FF"/>
							</linearGradient>
							<rect x="569.6" y="255.71" class="st14" width="3.17" height="15.52"/>
						</g>
						<g id="XMLID_841_">
							
								<linearGradient id="SVGID_14_" gradientUnits="userSpaceOnUse" x1="1894.8701" y1="255.6807" x2="1894.8701" y2="272.7236" gradientTransform="matrix(-1 0 0 1 2466.0586 0)">
								<stop  offset="0" style="stop-color:#6B99D1"/>
								<stop  offset="0.0482" style="stop-color:#729FD5"/>
								<stop  offset="0.329" style="stop-color:#97BCE7"/>
								<stop  offset="0.5901" style="stop-color:#B2D1F4"/>
								<stop  offset="0.8217" style="stop-color:#C2DEFC"/>
								<stop  offset="1" style="stop-color:#C8E2FF"/>
							</linearGradient>
							<path class="st15" d="M569.6,271.23c0,0.88,0.71,1.58,1.58,1.58s1.58-0.71,1.58-1.58s-0.71-1.58-1.58-1.58
								S569.6,270.36,569.6,271.23z"/>
						</g>
					</g>
				</g>
				<g id="XMLID_836_">
					<g>
						<g id="XMLID_838_">
							
								<linearGradient id="SVGID_15_" gradientUnits="userSpaceOnUse" x1="1900.8438" y1="252.2637" x2="1900.8438" y2="269.4486" gradientTransform="matrix(-1 0 0 1 2466.0586 0)">
								<stop  offset="0" style="stop-color:#6B99D1"/>
								<stop  offset="0.0482" style="stop-color:#729FD5"/>
								<stop  offset="0.329" style="stop-color:#97BCE7"/>
								<stop  offset="0.5901" style="stop-color:#B2D1F4"/>
								<stop  offset="0.8217" style="stop-color:#C2DEFC"/>
								<stop  offset="1" style="stop-color:#C8E2FF"/>
							</linearGradient>
							<rect x="563.63" y="252.26" class="st16" width="3.17" height="15.52"/>
						</g>
						<g id="XMLID_837_">
							
								<linearGradient id="SVGID_16_" gradientUnits="userSpaceOnUse" x1="1900.8438" y1="252.2716" x2="1900.8438" y2="269.4563" gradientTransform="matrix(-1 0 0 1 2466.0586 0)">
								<stop  offset="0" style="stop-color:#6B99D1"/>
								<stop  offset="0.0482" style="stop-color:#729FD5"/>
								<stop  offset="0.329" style="stop-color:#97BCE7"/>
								<stop  offset="0.5901" style="stop-color:#B2D1F4"/>
								<stop  offset="0.8217" style="stop-color:#C2DEFC"/>
								<stop  offset="1" style="stop-color:#C8E2FF"/>
							</linearGradient>
							<path class="st17" d="M563.63,267.79c0,0.88,0.71,1.58,1.58,1.58s1.58-0.71,1.58-1.58s-0.71-1.58-1.58-1.58
								S563.63,266.91,563.63,267.79z"/>
						</g>
					</g>
				</g>
				<g id="XMLID_832_">
					<g>
						<g id="XMLID_835_">
							
								<linearGradient id="SVGID_17_" gradientUnits="userSpaceOnUse" x1="1906.8174" y1="248.9326" x2="1906.8174" y2="265.976" gradientTransform="matrix(-1 0 0 1 2466.0586 0)">
								<stop  offset="0" style="stop-color:#6B99D1"/>
								<stop  offset="0.0482" style="stop-color:#729FD5"/>
								<stop  offset="0.329" style="stop-color:#97BCE7"/>
								<stop  offset="0.5901" style="stop-color:#B2D1F4"/>
								<stop  offset="0.8217" style="stop-color:#C2DEFC"/>
								<stop  offset="1" style="stop-color:#C8E2FF"/>
							</linearGradient>
							<rect x="557.66" y="248.82" class="st18" width="3.17" height="15.52"/>
						</g>
						<g id="XMLID_833_">
							
								<linearGradient id="SVGID_18_" gradientUnits="userSpaceOnUse" x1="1906.8174" y1="248.9327" x2="1906.8174" y2="265.9766" gradientTransform="matrix(-1 0 0 1 2466.0586 0)">
								<stop  offset="0" style="stop-color:#6B99D1"/>
								<stop  offset="0.0482" style="stop-color:#729FD5"/>
								<stop  offset="0.329" style="stop-color:#97BCE7"/>
								<stop  offset="0.5901" style="stop-color:#B2D1F4"/>
								<stop  offset="0.8217" style="stop-color:#C2DEFC"/>
								<stop  offset="1" style="stop-color:#C8E2FF"/>
							</linearGradient>
							<circle class="st19" cx="559.24" cy="264.34" r="1.58"/>
						</g>
					</g>
				</g>
				<g id="XMLID_829_">
					<g>
						<g id="XMLID_831_">
							
								<linearGradient id="SVGID_19_" gradientUnits="userSpaceOnUse" x1="1912.792" y1="245.3726" x2="1912.792" y2="262.4157" gradientTransform="matrix(-1 0 0 1 2466.0586 0)">
								<stop  offset="0" style="stop-color:#6B99D1"/>
								<stop  offset="0.0482" style="stop-color:#729FD5"/>
								<stop  offset="0.329" style="stop-color:#97BCE7"/>
								<stop  offset="0.5901" style="stop-color:#B2D1F4"/>
								<stop  offset="0.8217" style="stop-color:#C2DEFC"/>
								<stop  offset="1" style="stop-color:#C8E2FF"/>
							</linearGradient>
							<rect x="551.68" y="245.37" class="st20" width="3.17" height="15.52"/>
						</g>
						<g id="XMLID_830_">
							
								<linearGradient id="SVGID_20_" gradientUnits="userSpaceOnUse" x1="1912.792" y1="245.385" x2="1912.792" y2="262.4285" gradientTransform="matrix(-1 0 0 1 2466.0586 0)">
								<stop  offset="0" style="stop-color:#6B99D1"/>
								<stop  offset="0.0482" style="stop-color:#729FD5"/>
								<stop  offset="0.329" style="stop-color:#97BCE7"/>
								<stop  offset="0.5901" style="stop-color:#B2D1F4"/>
								<stop  offset="0.8217" style="stop-color:#C2DEFC"/>
								<stop  offset="1" style="stop-color:#C8E2FF"/>
							</linearGradient>
							<circle class="st21" cx="553.27" cy="260.9" r="1.58"/>
						</g>
					</g>
				</g>
			</g>
		</g>
		<g id="XMLID_2223_">
			<g id="XMLID_2299_">
				<path id="XMLID_2304_" class="st22" d="M557.1,235.45l23.34-13.47c-0.35-0.6-0.82-1.12-1.35-1.43l-24.93-14.39
					c-1.06-0.61-2.77-0.61-3.82,0l-7.61,4.39L557.1,235.45z"/>
				<path id="XMLID_2300_" class="st23" d="M571.47,260.34l7.61-4.39c1.05-0.61,1.91-2.09,1.91-3.31v-28.79
					c0-0.61-0.21-1.28-0.56-1.88l-23.34,13.47L571.47,260.34z"/>
			</g>
			<path id="XMLID_2296_" class="st24" d="M572.04,229.03l-0.01,30.07c0,1.22-0.86,1.71-1.91,1.1l-26.05-15.04
				c-1.05-0.61-1.91-2.09-1.91-3.31v-30.08c0-1.22,0.86-1.71,1.91-1.1l26.06,15.04C571.19,226.34,572.04,227.82,572.04,229.03z"/>
			<path id="XMLID_2236_" class="st25" d="M567.77,255.4l-21.35-12.32c-0.7-0.41-1.27-1.39-1.27-2.21v-24.66
				c0-0.81,0.57-1.14,1.27-0.73l21.36,12.34c0.7,0.41,1.27,1.39,1.27,2.21l-0.01,24.64C569.04,255.48,568.47,255.8,567.77,255.4z"/>
			<path id="XMLID_2230_" class="st25" d="M548.14,239.89l-0.08-19.35c0-0.41,0.29-0.57,0.64-0.37l16.73,9.74
				c0.35,0.2,0.64,0.7,0.64,1.1l0,19.23c0,0.41-0.29,0.57-0.64,0.37l-16.65-9.62C548.43,240.79,548.14,240.3,548.14,239.89z"/>
		</g>
		<g id="XMLID_2274_">
			<g id="XMLID_2273_">
				<g>
					<g id="XMLID_662_">
						
							<linearGradient id="SVGID_21_" gradientUnits="userSpaceOnUse" x1="1894.8701" y1="203.8893" x2="1894.8701" y2="221.8398" gradientTransform="matrix(-1 0 0 1 2466.0586 0)">
							<stop  offset="0" style="stop-color:#C8E2FF"/>
							<stop  offset="0.1783" style="stop-color:#C2DEFC"/>
							<stop  offset="0.4099" style="stop-color:#B2D1F4"/>
							<stop  offset="0.671" style="stop-color:#97BCE7"/>
							<stop  offset="0.9518" style="stop-color:#729FD5"/>
							<stop  offset="1" style="stop-color:#6B99D1"/>
						</linearGradient>
						<rect x="569.6" y="205.44" class="st26" width="3.17" height="15.52"/>
					</g>
					<g id="XMLID_661_">
						
							<linearGradient id="SVGID_22_" gradientUnits="userSpaceOnUse" x1="1894.8698" y1="203.89" x2="1894.8698" y2="221.8398" gradientTransform="matrix(-1 0 0 1 2466.0586 0)">
							<stop  offset="0" style="stop-color:#C8E2FF"/>
							<stop  offset="0.1783" style="stop-color:#C2DEFC"/>
							<stop  offset="0.4099" style="stop-color:#B2D1F4"/>
							<stop  offset="0.671" style="stop-color:#97BCE7"/>
							<stop  offset="0.9518" style="stop-color:#729FD5"/>
							<stop  offset="1" style="stop-color:#6B99D1"/>
						</linearGradient>
						<path class="st27" d="M570.07,220.31c0.62-0.36,1.62-0.36,2.24,0c0.62,0.36,0.62,0.94,0,1.29c-0.62,0.36-1.62,0.36-2.24,0
							C569.45,221.25,569.45,220.67,570.07,220.31z"/>
					</g>
					<g id="XMLID_660_">
						
							<linearGradient id="SVGID_23_" gradientUnits="userSpaceOnUse" x1="1894.8701" y1="203.8894" x2="1894.8701" y2="221.8398" gradientTransform="matrix(-1 0 0 1 2466.0586 0)">
							<stop  offset="0" style="stop-color:#C8E2FF"/>
							<stop  offset="0.1783" style="stop-color:#C2DEFC"/>
							<stop  offset="0.4099" style="stop-color:#B2D1F4"/>
							<stop  offset="0.671" style="stop-color:#97BCE7"/>
							<stop  offset="0.9518" style="stop-color:#729FD5"/>
							<stop  offset="1" style="stop-color:#6B99D1"/>
						</linearGradient>
						<circle class="st28" cx="571.19" cy="205.44" r="1.58"/>
					</g>
				</g>
			</g>
			<g id="XMLID_2276_">
				<g>
					<g id="XMLID_655_">
						
							<linearGradient id="SVGID_24_" gradientUnits="userSpaceOnUse" x1="1900.8438" y1="200.444" x2="1900.8438" y2="218.3945" gradientTransform="matrix(-1 0 0 1 2466.0586 0)">
							<stop  offset="0" style="stop-color:#C8E2FF"/>
							<stop  offset="0.1783" style="stop-color:#C2DEFC"/>
							<stop  offset="0.4099" style="stop-color:#B2D1F4"/>
							<stop  offset="0.671" style="stop-color:#97BCE7"/>
							<stop  offset="0.9518" style="stop-color:#729FD5"/>
							<stop  offset="1" style="stop-color:#6B99D1"/>
						</linearGradient>
						<rect x="563.63" y="201.99" class="st29" width="3.17" height="15.52"/>
					</g>
					<g id="XMLID_654_">
						
							<linearGradient id="SVGID_25_" gradientUnits="userSpaceOnUse" x1="1900.8438" y1="200.4447" x2="1900.8438" y2="218.3944" gradientTransform="matrix(-1 0 0 1 2466.0586 0)">
							<stop  offset="0" style="stop-color:#C8E2FF"/>
							<stop  offset="0.1783" style="stop-color:#C2DEFC"/>
							<stop  offset="0.4099" style="stop-color:#B2D1F4"/>
							<stop  offset="0.671" style="stop-color:#97BCE7"/>
							<stop  offset="0.9518" style="stop-color:#729FD5"/>
							<stop  offset="1" style="stop-color:#6B99D1"/>
						</linearGradient>
						<path class="st30" d="M564.09,216.87c0.62-0.36,1.62-0.36,2.24,0c0.62,0.36,0.62,0.94,0,1.29c-0.62,0.36-1.62,0.36-2.24,0
							C563.48,217.8,563.48,217.22,564.09,216.87z"/>
					</g>
					<g id="XMLID_653_">
						
							<linearGradient id="SVGID_26_" gradientUnits="userSpaceOnUse" x1="1900.8438" y1="200.4441" x2="1900.8438" y2="218.3945" gradientTransform="matrix(-1 0 0 1 2466.0586 0)">
							<stop  offset="0" style="stop-color:#C8E2FF"/>
							<stop  offset="0.1783" style="stop-color:#C2DEFC"/>
							<stop  offset="0.4099" style="stop-color:#B2D1F4"/>
							<stop  offset="0.671" style="stop-color:#97BCE7"/>
							<stop  offset="0.9518" style="stop-color:#729FD5"/>
							<stop  offset="1" style="stop-color:#6B99D1"/>
						</linearGradient>
						<path class="st31" d="M563.63,201.99c0,0.87,0.71,1.58,1.58,1.58s1.58-0.71,1.58-1.58c0-0.88-0.71-1.58-1.58-1.58
							S563.63,201.12,563.63,201.99z"/>
					</g>
				</g>
			</g>
			<g id="XMLID_2324_">
				<g>
					<g id="XMLID_648_">
						
							<linearGradient id="SVGID_27_" gradientUnits="userSpaceOnUse" x1="1906.8174" y1="196.9987" x2="1906.8174" y2="214.9487" gradientTransform="matrix(-1 0 0 1 2466.0586 0)">
							<stop  offset="0" style="stop-color:#C8E2FF"/>
							<stop  offset="0.1783" style="stop-color:#C2DEFC"/>
							<stop  offset="0.4099" style="stop-color:#B2D1F4"/>
							<stop  offset="0.671" style="stop-color:#97BCE7"/>
							<stop  offset="0.9518" style="stop-color:#729FD5"/>
							<stop  offset="1" style="stop-color:#6B99D1"/>
						</linearGradient>
						<rect x="557.66" y="198.55" class="st32" width="3.17" height="15.52"/>
					</g>
					<g id="XMLID_647_">
						
							<linearGradient id="SVGID_28_" gradientUnits="userSpaceOnUse" x1="1906.8177" y1="196.9981" x2="1906.8177" y2="214.949" gradientTransform="matrix(-1 0 0 1 2466.0586 0)">
							<stop  offset="0" style="stop-color:#C8E2FF"/>
							<stop  offset="0.1783" style="stop-color:#C2DEFC"/>
							<stop  offset="0.4099" style="stop-color:#B2D1F4"/>
							<stop  offset="0.671" style="stop-color:#97BCE7"/>
							<stop  offset="0.9518" style="stop-color:#729FD5"/>
							<stop  offset="1" style="stop-color:#6B99D1"/>
						</linearGradient>
						<path class="st33" d="M558.12,213.42c0.62-0.36,1.62-0.36,2.24,0c0.62,0.36,0.62,0.94,0,1.29c-0.62,0.36-1.62,0.36-2.24,0
							C557.5,214.36,557.5,213.78,558.12,213.42z"/>
					</g>
					<g id="XMLID_645_">
						
							<linearGradient id="SVGID_29_" gradientUnits="userSpaceOnUse" x1="1906.8174" y1="196.9988" x2="1906.8174" y2="214.9487" gradientTransform="matrix(-1 0 0 1 2466.0586 0)">
							<stop  offset="0" style="stop-color:#C8E2FF"/>
							<stop  offset="0.1783" style="stop-color:#C2DEFC"/>
							<stop  offset="0.4099" style="stop-color:#B2D1F4"/>
							<stop  offset="0.671" style="stop-color:#97BCE7"/>
							<stop  offset="0.9518" style="stop-color:#729FD5"/>
							<stop  offset="1" style="stop-color:#6B99D1"/>
						</linearGradient>
						<path class="st34" d="M557.66,198.55c0,0.87,0.71,1.58,1.58,1.58c0.87,0,1.58-0.71,1.58-1.58c0-0.88-0.71-1.58-1.58-1.58
							C558.37,196.96,557.66,197.67,557.66,198.55z"/>
					</g>
				</g>
			</g>
			<g id="XMLID_2344_">
				<g>
					<g id="XMLID_636_">
						
							<linearGradient id="SVGID_30_" gradientUnits="userSpaceOnUse" x1="1912.792" y1="193.5529" x2="1912.792" y2="211.5034" gradientTransform="matrix(-1 0 0 1 2466.0586 0)">
							<stop  offset="0" style="stop-color:#C8E2FF"/>
							<stop  offset="0.1783" style="stop-color:#C2DEFC"/>
							<stop  offset="0.4099" style="stop-color:#B2D1F4"/>
							<stop  offset="0.671" style="stop-color:#97BCE7"/>
							<stop  offset="0.9518" style="stop-color:#729FD5"/>
							<stop  offset="1" style="stop-color:#6B99D1"/>
						</linearGradient>
						<rect x="551.68" y="195.1" class="st35" width="3.17" height="15.52"/>
					</g>
					<g id="XMLID_635_">
						
							<linearGradient id="SVGID_31_" gradientUnits="userSpaceOnUse" x1="1912.7916" y1="193.5526" x2="1912.7916" y2="211.5035" gradientTransform="matrix(-1 0 0 1 2466.0586 0)">
							<stop  offset="0" style="stop-color:#C8E2FF"/>
							<stop  offset="0.1783" style="stop-color:#C2DEFC"/>
							<stop  offset="0.4099" style="stop-color:#B2D1F4"/>
							<stop  offset="0.671" style="stop-color:#97BCE7"/>
							<stop  offset="0.9518" style="stop-color:#729FD5"/>
							<stop  offset="1" style="stop-color:#6B99D1"/>
						</linearGradient>
						<path class="st36" d="M552.15,209.98c0.62-0.36,1.62-0.36,2.24,0c0.62,0.36,0.62,0.94,0,1.29c-0.62,0.36-1.62,0.36-2.24,0
							C551.53,210.91,551.53,210.33,552.15,209.98z"/>
					</g>
					<g id="XMLID_634_">
						
							<linearGradient id="SVGID_32_" gradientUnits="userSpaceOnUse" x1="1912.792" y1="193.553" x2="1912.792" y2="211.5029" gradientTransform="matrix(-1 0 0 1 2466.0586 0)">
							<stop  offset="0" style="stop-color:#C8E2FF"/>
							<stop  offset="0.1783" style="stop-color:#C2DEFC"/>
							<stop  offset="0.4099" style="stop-color:#B2D1F4"/>
							<stop  offset="0.671" style="stop-color:#97BCE7"/>
							<stop  offset="0.9518" style="stop-color:#729FD5"/>
							<stop  offset="1" style="stop-color:#6B99D1"/>
						</linearGradient>
						<path class="st37" d="M551.68,195.1c0,0.88,0.71,1.58,1.58,1.58c0.88,0,1.58-0.71,1.58-1.58c0-0.87-0.71-1.58-1.58-1.58
							C552.39,193.52,551.68,194.23,551.68,195.1z"/>
					</g>
				</g>
			</g>
		</g>
		<g id="XMLID_2311_">
			<g>
				
					<linearGradient id="XMLID_2_" gradientUnits="userSpaceOnUse" x1="1874.8282" y1="258.9941" x2="1890.224" y2="250.2622" gradientTransform="matrix(-1 0 0 1 2466.0586 0)">
					<stop  offset="0" style="stop-color:#C8E2FF"/>
					<stop  offset="0.1783" style="stop-color:#C2DEFC"/>
					<stop  offset="0.4099" style="stop-color:#B2D1F4"/>
					<stop  offset="0.671" style="stop-color:#97BCE7"/>
					<stop  offset="0.9518" style="stop-color:#729FD5"/>
					<stop  offset="1" style="stop-color:#6B99D1"/>
				</linearGradient>
				<path id="XMLID_641_" class="st38" d="M575.42,251.23c0-0.71,0.5-1.58,1.12-1.94c0.32-0.19,0.61-0.19,0.81-0.06l13.4,7.74l0,0
					c0.75,0.44,1.01,1.4,0.57,2.16c-0.44,0.76-1.41,1.02-2.16,0.58c-0.01-0.01-0.02-0.02-0.04-0.03l-13.4-7.73l0-0.01
					C575.54,251.82,575.42,251.58,575.42,251.23z"/>
				
					<linearGradient id="XMLID_3_" gradientUnits="userSpaceOnUse" x1="1874.6866" y1="252.3597" x2="1890.129" y2="243.3517" gradientTransform="matrix(-1 0 0 1 2466.0586 0)">
					<stop  offset="0" style="stop-color:#C8E2FF"/>
					<stop  offset="0.1783" style="stop-color:#C2DEFC"/>
					<stop  offset="0.4099" style="stop-color:#B2D1F4"/>
					<stop  offset="0.671" style="stop-color:#97BCE7"/>
					<stop  offset="0.9518" style="stop-color:#729FD5"/>
					<stop  offset="1" style="stop-color:#6B99D1"/>
				</linearGradient>
				<path id="XMLID_640_" class="st39" d="M575.54,244.47c0-0.71,0.5-1.58,1.12-1.94c0.3-0.17,0.57-0.19,0.78-0.08l0,0l0.01,0.01
					c0,0,0,0,0,0l13.43,7.75l0,0c0.75,0.44,1.01,1.4,0.58,2.16c-0.44,0.76-1.41,1.02-2.16,0.58c-0.01-0.01-0.02-0.02-0.04-0.03
					l-13.4-7.73l0,0C575.66,245.06,575.54,244.81,575.54,244.47z"/>
				
					<linearGradient id="XMLID_4_" gradientUnits="userSpaceOnUse" x1="1874.6708" y1="245.4259" x2="1890.1127" y2="236.51" gradientTransform="matrix(-1 0 0 1 2466.0586 0)">
					<stop  offset="0" style="stop-color:#C8E2FF"/>
					<stop  offset="0.1783" style="stop-color:#C2DEFC"/>
					<stop  offset="0.4099" style="stop-color:#B2D1F4"/>
					<stop  offset="0.671" style="stop-color:#97BCE7"/>
					<stop  offset="0.9518" style="stop-color:#729FD5"/>
					<stop  offset="1" style="stop-color:#6B99D1"/>
				</linearGradient>
				<path id="XMLID_639_" class="st40" d="M575.55,237.57c0-0.71,0.5-1.58,1.12-1.94c0.3-0.17,0.57-0.19,0.78-0.08l0,0l0.01,0.01
					c0,0,0,0,0,0l13.42,7.75l0,0c0.75,0.44,1.01,1.4,0.58,2.16c-0.44,0.76-1.41,1.02-2.16,0.58c-0.01-0.01-0.02-0.02-0.04-0.03
					l-13.4-7.73l0,0C575.67,238.16,575.55,237.92,575.55,237.57z"/>
				
					<linearGradient id="XMLID_5_" gradientUnits="userSpaceOnUse" x1="1874.8334" y1="238.2734" x2="1889.9072" y2="229.8786" gradientTransform="matrix(-1 0 0 1 2466.0586 0)">
					<stop  offset="0" style="stop-color:#C8E2FF"/>
					<stop  offset="0.1783" style="stop-color:#C2DEFC"/>
					<stop  offset="0.4099" style="stop-color:#B2D1F4"/>
					<stop  offset="0.671" style="stop-color:#97BCE7"/>
					<stop  offset="0.9518" style="stop-color:#729FD5"/>
					<stop  offset="1" style="stop-color:#6B99D1"/>
				</linearGradient>
				<path id="XMLID_638_" class="st41" d="M575.55,230.67c0-0.71,0.5-1.58,1.12-1.94c0.3-0.17,0.57-0.19,0.78-0.09l0,0l0.01,0.01
					l0,0l13.42,7.75l0,0c0.75,0.44,1.01,1.4,0.58,2.16c-0.44,0.76-1.41,1.02-2.16,0.58c-0.01-0.01-0.02-0.02-0.04-0.03l-13.4-7.73
					l0,0C575.67,231.27,575.55,231.02,575.55,230.67z"/>
			</g>
		</g>
	</g>
</g>
<g id="Designed_by_Freepik">
</g>
</svg>
