<?xml version="1.0" encoding="utf-8"?>
<!-- Generator: Adobe Illustrator 23.0.3, SVG Export Plug-In . SVG Version: 6.00 Build 0)  -->
<svg version="1.1" xmlns="http://www.w3.org/2000/svg" xmlns:xlink="http://www.w3.org/1999/xlink" x="0px" y="0px"
	 viewBox="0 0 750 500" style="enable-background:new 0 0 750 500;" xml:space="preserve">
<style type="text/css">
	.st0{display:none;}
	.st1{opacity:0.15;fill:#6B99D1;}
	.st2{fill:#291D51;}
	.st3{fill:#FFA8A7;}
	.st4{fill:#2D2979;}
	.st5{fill:#AACAF9;}
	.st6{fill:#C4D9FF;}
	.st7{fill:#DCEEFF;}
	.st8{fill:#FFFFFF;}
	.st9{fill:#C8E2FF;}
	.st10{fill:#A5CBFA;}
	.st11{fill:#543354;}
	.st12{fill:#F28F8F;}
	.st13{fill:#B7D6FD;}
	.st14{fill:#EFF6FE;}
	.st15{fill:#D2EAFF;}
	.st16{fill:#97C3F4;}
	.st17{fill:#AAD1FC;}
	.st18{opacity:0.2;fill:#94C3FB;}
	.st19{fill:#1E3779;}
	.st20{fill:#344593;}
	.st21{fill:#031F60;}
	.st22{fill:#2B3D89;}
	.st23{fill:#F5FBFB;}
	.st24{fill:#E4F2F2;}
</style>
<g id="Background" class="st0">
</g>
<g id="Objects">
	<g id="XMLID_18_">
		<path id="XMLID_3607_" class="st1" d="M452.36,361.16l9.13-5.27c6.2-3.58,14.75-4.44,19.11-1.92c4.36,2.52,2.87,7.46-3.33,11.03
			l-9.13,5.27c-6.2,3.58-14.75,4.44-19.11,1.92C444.68,369.68,446.17,364.74,452.36,361.16z"/>
		<g id="XMLID_30_">
			<g id="XMLID_3152_">
				<path id="XMLID_3171_" class="st2" d="M465.69,365.53c0,0,0.36,0.64,2.34-0.19c1.98-0.83,2.53-1.82,2.53-1.82
					s-0.51-3.97-1.74-2.97C467.6,361.55,465.69,365.53,465.69,365.53z"/>
				<path id="XMLID_3168_" class="st3" d="M470.66,351.64c-0.03,2.08-0.08,3.67,0.71,4.79c0.79,1.12,0.86,1.88,0.86,1.88
					s-2.35,0.33-3.55,1.95c-1.19,1.62-1.13,3.24-2.24,3.5c-1.11,0.27-2.96-1-2.96-1s1.17-0.05,1.63-1.52
					c0.46-1.47,1.64-4.61,1.68-5.44c0.04-0.83,0-4.02,0-4.02L470.66,351.64z"/>
				<path id="XMLID_3154_" class="st4" d="M470.68,356.97c-1.02,0.06-2.59,1.21-3.11,2.39c-0.52,1.18-1.39,2.85-2.05,3.22
					c-0.67,0.37-1.84-0.17-2.85-0.18c-1-0.01-1.72,0.46-1.77,1.19c0,0,3.22,1.52,4.18,1.98c0.96,0.46,1.78,0.47,2.54-1.53
					c0.76-2,1.04-3.13,1.65-1.77c0.6,1.36,0.85,4.43,0.85,4.43s0.82,0.3,1.22-0.51c0,0-0.03-1.44,0.15-2.67
					c0.17-1.23,1.29-2.78,1.21-4.27C472.6,357.78,471.79,356.9,470.68,356.97z"/>
			</g>
			<g id="XMLID_3084_">
				<path id="XMLID_3085_" class="st5" d="M469.28,331.72c0,0-0.31,1.51-0.34,2.72c1.42,3.7,2.02,15,1.72,19.49
					c0,0-1.95,0.77-3.86-0.41c0,0-2.7-10.9-4.25-17.95c-0.56-2.56,1.68-4.85,4.25-4.34L469.28,331.72z"/>
			</g>
			<g id="XMLID_2946_">
				<path id="XMLID_3067_" class="st2" d="M455.44,369.38c0,0,0.37,0.64,2.34-0.19c1.98-0.83,2.53-1.82,2.53-1.82
					s-0.51-3.97-1.74-2.97C457.36,365.4,455.44,369.38,455.44,369.38z"/>
				<path id="XMLID_2957_" class="st3" d="M460.41,355.49c-0.03,2.08-0.09,3.67,0.71,4.79c0.79,1.11,0.86,1.87,0.86,1.87
					s-2.35,0.33-3.54,1.95c-1.19,1.62-1.13,3.24-2.24,3.5c-1.11,0.27-2.96-1-2.96-1s1.17-0.05,1.63-1.52
					c0.46-1.47,1.64-4.61,1.68-5.44c0.04-0.83,0-4.02,0-4.02L460.41,355.49z"/>
				<path id="XMLID_2948_" class="st4" d="M460.43,360.82c-1.02,0.06-2.59,1.21-3.11,2.39c-0.52,1.18-1.39,2.85-2.05,3.22
					c-0.67,0.37-1.84-0.17-2.85-0.18c-1-0.01-1.72,0.46-1.77,1.19c0,0,3.22,1.53,4.18,1.98c0.96,0.46,1.78,0.47,2.54-1.53
					c0.76-2,1.05-3.13,1.65-1.77c0.6,1.36,0.85,4.43,0.85,4.43s0.82,0.3,1.22-0.51c0,0-0.03-1.44,0.15-2.68
					c0.17-1.23,1.29-2.78,1.21-4.27C462.35,361.62,461.54,360.75,460.43,360.82z"/>
			</g>
			<path id="XMLID_2649_" class="st6" d="M458.84,336.06l1.84-0.02c0,0,1.29,0.69,1.26,1.9c1.36,2.23-0.86,11.31-1.51,20.07
				c0,0-1.64,1.42-3.87,0.27c0,0-1.4-14.62-1.73-17.95"/>
		</g>
		<g id="XMLID_24_">
			<path id="XMLID_3608_" class="st1" d="M509.67,375.92l-22.77-13.15c-1.41-0.81-3.69-0.81-5.09,0l-22.77,13.15
				c-1.41,0.81-1.41,2.13,0,2.94l22.77,13.15c1.41,0.81,3.69,0.81,5.09,0l22.77-13.15C511.07,378.05,511.07,376.73,509.67,375.92z"
				/>
			<path id="XMLID_3511_" class="st7" d="M509.67,348.6l-22.77-13.15c-1.41-0.81-3.69-0.81-5.09,0l-22.77,13.15
				c-1.41,0.81-1.41,2.13,0,2.94l22.77,13.15c1.41,0.81,3.69,0.81,5.09,0l22.77-13.15C511.07,350.73,511.07,349.41,509.67,348.6z"/>
			<g id="XMLID_3494_">
				<path class="st8" d="M484.35,335.84c0.78,0,1.52,0.17,2.05,0.47l22.77,13.15c0.41,0.24,0.55,0.47,0.55,0.6
					c0,0.13-0.15,0.37-0.55,0.6l-22.77,13.15c-0.52,0.3-1.27,0.47-2.05,0.47c-0.78,0-1.52-0.17-2.05-0.47l-22.77-13.15
					c-0.41-0.24-0.55-0.47-0.55-0.6c0-0.13,0.15-0.37,0.55-0.6l22.77-13.15C482.82,336.02,483.57,335.84,484.35,335.84
					 M484.35,334.84c-0.92,0-1.84,0.2-2.55,0.61l-22.77,13.15c-1.41,0.81-1.41,2.13,0,2.94l22.77,13.15
					c0.7,0.41,1.62,0.61,2.55,0.61s1.84-0.2,2.55-0.61l22.77-13.15c1.41-0.81,1.41-2.13,0-2.94l-22.77-13.15
					C486.19,335.05,485.27,334.84,484.35,334.84L484.35,334.84z"/>
			</g>
			<path id="XMLID_1808_" class="st9" d="M510.72,373.05c-0.01,0.61-0.41,1.08-1.05,1.47l-22.77,13.15
				c-0.66,0.38-1.5,0.59-2.55,0.61v-22.99c1-0.01,1.84-0.21,2.55-0.61l22.77-13.15c0.57-0.32,1.05-0.81,1.05-1.47V373.05z"/>
			<path id="XMLID_131_" class="st10" d="M457.97,373.05c0.01,0.61,0.41,1.08,1.05,1.47l22.77,13.15c0.66,0.38,1.5,0.59,2.55,0.61
				v-22.99c-1-0.01-1.85-0.21-2.55-0.61l-22.77-13.15c-0.57-0.32-1.05-0.81-1.05-1.47V373.05z"/>
		</g>
		<g id="XMLID_49_">
			<path id="XMLID_559_" class="st11" d="M477.46,305.66c0,0-2.29-1.33-2.06-3.32c0.23-1.99,3.27-6.86,8.7-4.5
				C489.18,298.95,477.46,305.66,477.46,305.66z"/>
			<path id="XMLID_363_" class="st3" d="M489.28,315.03c-2.6-0.16-2.39-0.37-2.6-1.29c-0.07-0.33-0.22-2.62-0.22-2.62
				c0.23-0.24,0.65-0.96,0.65-0.96c1.7-1.05,2.92-2.82,3.15-4.96c0.38-3.66-2.28-6.94-5.94-7.33c-3.44-0.36-5.98,2.06-6.66,5.38
				c-0.36,1.64-0.74,4.99,0.28,7.68c0.58,1.52,1.11,2.58,2.49,2.53c0.26-0.01,0.75-0.09,1.36-0.24c0.05,0.5,0.11,1.23,0.08,1.91
				c-0.04,0.66,0.08,1-1.22,1.8c-1.3,0.8,1.97,2.45,4.1,2.29c2.13-0.16,4.54-1.45,5.19-2.83
				C490.66,314.85,490.5,315.1,489.28,315.03z"/>
			<path id="XMLID_181_" class="st12" d="M487.88,309.6l-2.24,0.12l-2.44-0.04l-0.75-0.88c0,0-0.16,2.81-0.92,3.5
				c-0.74,0.66-1.7,1.05-1.77,1.07c0.2,0.06,0.42,0.1,0.67,0.09c0.26-0.01,0.75-0.09,1.36-0.24c0.05,0.5,0.11,1.23,0.08,1.91
				c-0.04,0.66,0.08,1-1.22,1.8c-1.3,0.8,1.97,2.45,4.1,2.29c2.13-0.16,4.54-1.45,5.19-2.83c0.73-1.54,0.58-1.29-0.65-1.36
				c-2.6-0.16-2.39-0.37-2.6-1.29c-0.07-0.33-0.22-2.62-0.22-2.62c0.23-0.24,0.65-0.96,0.65-0.96
				C487.38,309.99,487.63,309.8,487.88,309.6z"/>
			<path id="XMLID_178_" class="st5" d="M469.28,331.72c2.4,0.88,17.79,6.96,17.79,6.96s-0.64,11.5-4.1,9.64l-15.79-9.1l-4.33-2.86
				C462.47,332.61,466.64,330.76,469.28,331.72z"/>
			<g id="XMLID_172_">
				<path id="XMLID_175_" class="st6" d="M454.83,340.32c-0.37-3.75,2.98-5.88,5.61-4.92c2.4,0.87,16.8,6.98,16.8,6.98l16.83-1.69
					c1.41,7.56-4.54,10.56-8.97,12.67c-3.04,1.45-8.45,1.1-11.91-0.76l-14.94-10.24"/>
			</g>
			<g id="XMLID_8649_">
				<g id="XMLID_8650_">
					<g id="XMLID_8834_">
						<path id="XMLID_9024_" class="st9" d="M452.26,335.45L452.26,335.45c0,0.4,0.21,0.77,0.56,0.98l10.55,6.09
							c0.35,0.2,0.78,0.2,1.13,0l14.79-8.54c0.35-0.2,0.56-0.57,0.56-0.97v-0.08L452.26,335.45z"/>
						<path id="XMLID_9023_" class="st10" d="M466.34,340.99l11.26-6.47c0.08-0.04,0.14-0.03,0.14,0.04c0,0.07-0.06,0.16-0.14,0.21
							l-11.26,6.48c-0.08,0.04-0.14,0.02-0.14-0.05C466.2,341.13,466.26,341.03,466.34,340.99z"/>
						<path id="XMLID_9020_" class="st10" d="M452.83,336.43l10.55,6.09c0.17,0.1,0.37,0.15,0.56,0.15v-7.22h-11.67
							C452.26,335.85,452.48,336.23,452.83,336.43z"/>
						<path id="XMLID_9017_" class="st13" d="M463.05,342.33l0.32,0.18c0.35,0.2,0.78,0.2,1.13,0l0.32-0.18v-0.71h-1.77V342.33z"/>
						<g id="XMLID_8859_">
							<g>
								<path id="XMLID_28_" class="st14" d="M463.54,341.96c0.25,0.14,0.55,0.14,0.79,0l15.37-8.87c0.2-0.11,0.2-0.3,0-0.41
									l-11.32-6.54l-16.12,9.31L463.54,341.96z"/>
							</g>
						</g>
						<path id="XMLID_8856_" class="st15" d="M454.13,335.61l-0.4-0.23c-0.07-0.04-0.07-0.1,0-0.14l14.31-8.26
							c0.07-0.04,0.17-0.04,0.24,0l0.4,0.23c0.07,0.04,0.07,0.1,0,0.14l-14.31,8.26C454.31,335.65,454.2,335.65,454.13,335.61z"/>
						<g id="XMLID_8846_">
							<polygon id="XMLID_8853_" class="st16" points="473.39,335.45 473.31,335.5 468.38,338.34 465.68,336.78 465.6,336.74 
								470.61,333.85 							"/>
							<polygon id="XMLID_8850_" class="st15" points="473.31,335.5 468.38,338.34 465.68,336.78 470.61,333.94 							"/>
							<path id="XMLID_8847_" class="st17" d="M470.21,334.17c0.7,0.38,0.99,2.29-2.01,4.06l0.19,0.11l4.93-2.84l-2.7-1.56
								L470.21,334.17z"/>
						</g>
						<g id="XMLID_8835_">
							<g id="XMLID_8836_">
								<path id="XMLID_8843_" class="st16" d="M474.34,330.75L474.34,330.75l-14.21,8.2c-0.07,0.04-0.17,0.04-0.24,0l-5.04-2.91
									l0,0c-0.07-0.04-0.07-0.1,0-0.14l14.2-8.2c0.07-0.04,0.17-0.04,0.24,0l5.05,2.92C474.41,330.65,474.41,330.71,474.34,330.75
									z"/>
								<polygon id="XMLID_8840_" class="st16" points="454.85,335.89 454.86,335.89 454.84,335.9 								"/>
								<path id="XMLID_8837_" class="st17" d="M474.34,330.75l-14.21,8.19c-0.07,0.04-0.17,0.04-0.24,0l-5.04-2.91l14.2-8.2
									c0.07-0.04,0.17-0.04,0.24,0L474.34,330.75z"/>
							</g>
						</g>
					</g>
					<g id="XMLID_8651_">
						<g id="XMLID_8652_">
							<g id="XMLID_8661_">
								<path id="XMLID_8831_" class="st10" d="M452.26,335.45L452.26,335.45l16.12-9.31v-12.68l-0.12-0.28l-0.13-0.07l0,0
									c-0.34-0.2-0.77-0.2-1.11,0l-14.75,8.52c-0.34,0.2-0.56,0.57-0.56,0.96v11.89C451.81,335.11,451.92,335.25,452.26,335.45z"
									/>
								<path id="XMLID_8819_" class="st9" d="M453.74,323.17l14.64-9.28v-0.42l-0.12-0.28l-0.13-0.07c-0.34-0.2-0.77-0.2-1.11,0
									l-14.75,8.52c-0.18,0.11-0.33,0.26-0.42,0.44L453.74,323.17z"/>
								<path id="XMLID_8815_" class="st13" d="M451.71,323.18l0.95,0.55l1.19-1.61l-1.22-0.7l-0.39,0.23
									c-0.33,0.2-0.53,0.56-0.53,0.95V323.18z"/>
								<path id="XMLID_8801_" class="st7" d="M468.01,313.18l-15.48,8.94c-0.17,0.1-0.27,0.27-0.27,0.47v12.87l16.12-9.31V313.4
									C468.38,313.21,468.18,313.09,468.01,313.18z"/>
								<path id="XMLID_8711_" class="st7" d="M468.01,313.18l-15.48,8.94c-0.17,0.1-0.27,0.27-0.27,0.47v12.87l16.12-9.31V313.4
									C468.38,313.21,468.18,313.09,468.01,313.18z"/>
								<path id="XMLID_8694_" class="st18" d="M468.01,313.18l-1.79,1.04l-0.56,0.32c0,3.18-0.29,11.32-13.21,18.88v1.93l15.93-9.2
									V313.4C468.38,313.21,468.18,313.09,468.01,313.18z"/>
								<polygon id="XMLID_8662_" class="st18" points="452.26,335.45 452.26,334.99 468.38,325.68 468.38,326.14 								"/>
							</g>
							<polygon id="XMLID_8660_" class="st19" points="467.96,325.47 467.96,313.85 467.77,313.96 467.77,325.37 							"/>
							<polygon id="XMLID_8657_" class="st20" points="467.77,313.96 467.77,325.37 452.78,334 452.78,322.61 							"/>
							<polygon id="XMLID_8656_" class="st21" points="467.96,325.47 452.78,334.23 452.78,334 467.77,325.37 							"/>
							<path id="XMLID_8653_" class="st22" d="M467.77,313.96l-2.12,1.22c-0.08,3.51-1.07,11-12.87,18.04V334l14.99-8.63V313.96z"/>
						</g>
					</g>
				</g>
			</g>
			<path id="XMLID_168_" class="st23" d="M486.84,314.58c0.48,0.6,0.61,0.97-0.73,1.54c-2.3,0.97-4.49-0.07-4.49-0.07
				s-2.07,1.08-3.77,2.27c-4.14,2.88-5.13,7.59-0.95,9.31c0.25,1.88,1.46,4.37,1.54,5.47c-0.23,3.34-1.19,4.31-1.94,11.91
				c1.67,1.95,5.65,3,9.27,1.94c4.62-1.35,7.09-4.76,8.31-6.27c-0.67-4.66-3.4-7.67-3.37-9.01c0.12-5.09,1.88-8.26,1.41-12.98
				c-0.27-2.7-1.26-3.77-2.8-4.13C488.53,314.44,487.36,314.54,486.84,314.58z"/>
			<path id="XMLID_163_" class="st3" d="M456.23,332.17c0.74,0.43,1.53,0.58,2.53,1.26c0.88,0.6,1.25,0.84,2.22,1.04
				c1.05,0.22,3.5,0,6.92-0.5c3.41-0.5,5.38-1.95,6.46-3.55c2.36-3.49,2.14-7.59,3.04-10.69c0.63-2.18,2.42-2.65,3.41-1.76
				c0.77,0.69,1.68,3.51,0.88,7.66c-0.62,3.21-2.48,7.57-5.19,9.58c-1.73,1.29-4.26,2.29-6.2,2.66c-3.16,0.61-5.7,0.66-8.78,0.82
				c-0.84,0.04-1.45,0.28-3.05,0.56c-1.59,0.27-3.5,0.2-4.76-0.27c-1.27-0.48-1.65-0.85-1.66-1.15c-0.02-0.38,0.31-0.51,0.91-0.36
				c0.6,0.15,1.58,0.5,2.91,0.41c0,0-1.34-0.27-2.12-0.5c-0.79-0.23-1.51-0.57-1.99-0.88c-0.59-0.38-0.63-1.42-0.02-1.28
				c0.62,0.14,1.05,0.41,2.22,0.73c1.06,0.29,1.9,0.3,1.9,0.3s-1.25-0.42-2.23-0.96c-0.98-0.55-1.27-0.97-1.45-1.27
				c-0.18-0.29-0.01-0.89,0.72-0.62c0.66,0.24,1.39,0.84,2.73,1.11c0.97,0.2,1.68,0.2,1.58,0.03c-0.1-0.17-0.68-0.25-1.35-0.79
				c-0.64-0.52-0.96-1.4-0.65-1.74C455.54,331.67,455.48,331.74,456.23,332.17z"/>
			<path id="XMLID_21_" class="st11" d="M487.83,310.39c1.67-1.53,2.2-3.04,2.42-5.19c0.38-3.66-2.28-6.94-5.94-7.33
				c-2.37-0.25-4.86,0.6-6.05,3.56c0,0,0.18,0.4,0.81,0.52c0,0-0.17,0.78,0.36,1.38c0.39,0.43,0.76,1.13,0.83,1.9
				c0.05,0.63-0.06,1.55,0.12,2.22c0.23,0.83,1.14,0.77,1.14,0.77s0.06-1.38,0.2-2.7c0.41-0.93,2.07-1.14,2.38,0.06
				c0.28,1.09,0.01,1.76-0.38,2.55c-0.29,0.59-0.8,0.9-1.27,0.67c0,1.64,0.61,2.38,2.06,2.79c1.45,0.41,1.58-0.13,2.33-0.51
				C487.28,310.86,487.83,310.39,487.83,310.39z"/>
			<path id="XMLID_52_" class="st11" d="M482.45,308.8v15.66c0,0,1.95,1.62,4.92,0.2c2.97-1.42,2.93-1.98,2.93-3.55l0-16.71
				c0,0-3.38,4.01-5.82,4.83C482.59,309.89,482.45,308.8,482.45,308.8z"/>
			<path id="XMLID_50_" class="st24" d="M479.7,317.5c1.17,0.09,2.37,0.83,2.53,5.81c0.15,4.98-2.8,9.71-5.21,11.8
				c-2.41,2.09-7.28,3.58-12.01,3.4c0,0-1.68-1.57-0.28-4.12c0,0,3.45-0.4,5.66-1.28c2.21-0.88,4.11-2.21,5.43-6.54
				C477.14,322.23,476.4,317.65,479.7,317.5z"/>
		</g>
	</g>
</g>
<g id="Designed_by_Freepik">
</g>
</svg>
