<?xml version="1.0" encoding="utf-8"?>
<!-- Generator: Adobe Illustrator 23.0.3, SVG Export Plug-In . SVG Version: 6.00 Build 0)  -->
<svg version="1.1" xmlns="http://www.w3.org/2000/svg" xmlns:xlink="http://www.w3.org/1999/xlink" x="0px" y="0px"
	 viewBox="0 0 750 500" style="enable-background:new 0 0 750 500;" xml:space="preserve">
<style type="text/css">
	.st0{opacity:0.15;fill:#6B99D1;}
	.st1{fill:#2D2979;}
	.st2{fill:#FFA8A7;}
	.st3{fill:#543354;}
	.st4{fill:#F5FBFB;}
	.st5{fill:#F28F8F;}
	.st6{fill:#C4D9FF;}
	.st7{fill:#AACAF9;}
	.st8{fill:#7FA8E6;}
	.st9{opacity:0.9;}
	.st10{opacity:0.8;fill:#57F7E0;}
	.st11{fill:none;stroke:#E9FFFB;stroke-miterlimit:10;}
	.st12{opacity:0.8;fill:#0B3FA5;}
	.st13{opacity:0.8;}
	.st14{fill:#0B3FA5;}
	.st15{fill:#C8E2FF;}
	.st16{fill:#A5CBFA;}
	.st17{fill:#031F60;}
	.st18{fill:#1E3779;}
	.st19{fill:#344593;}
	.st20{fill:#2B3D89;}
	.st21{fill:#DCEEFF;}
	.st22{opacity:0.4;}
	.st23{fill:#FAFDFF;}
	.st24{fill:#7AA3E5;}
	.st25{opacity:0.6;}
	.st26{fill:#57F7E0;}
	.st27{fill:none;stroke:#E9FFFB;stroke-linecap:round;stroke-miterlimit:10;}
</style>
<g id="Background">
</g>
<g id="Objects">
	<g id="XMLID_3438_">
		<path id="XMLID_3984_" class="st0" d="M236.02,128.88l-44.72-25.82c-1.47-0.85-3.86-0.85-5.34,0l-94.78,54.73
			c-1.47,0.85-1.47,2.23,0,3.08l44.72,25.82c1.47,0.85,3.86,0.85,5.34,0l94.78-54.73C237.49,131.11,237.49,129.73,236.02,128.88z"/>
		<path id="XMLID_3972_" class="st0" d="M99.97,132.33l8.54-4.93c5.79-3.35,13.79-4.15,17.87-1.8c4.08,2.35,2.68,6.97-3.11,10.32
			l-8.54,4.93c-5.79,3.35-13.79,4.15-17.87,1.8C92.79,140.29,94.18,135.68,99.97,132.33z"/>
		<g id="XMLID_2474_">
			<g id="XMLID_401_">
				<path id="XMLID_551_" class="st1" d="M110.19,124.93c-0.38,1.11,0.12,2.04,0.43,2.98c0.62,1.84,0.47,4.3,0.47,4.3
					c0.12,0.22,0.9,0.28,1.12-0.06c0,0-0.1-4.06,0.98-3.73L110.19,124.93z"/>
				<path id="XMLID_546_" class="st2" d="M119.37,131.24c-1.13-1.61-2.89-6.77-3.25-7.99c-0.15-0.51-0.55-1.55-0.53-2.55
					c0.05-1.79,0.6-6.78,0.6-6.78l-4.3,0.01l0.07,6.47c-0.03,0.99-0.06,1.26-0.35,1.99c-0.22,0.57-0.77,1.95-0.96,2.54
					c-0.21,0.76-0.58,1.57,0.65,2.56c1.23,0.99,1.97,1.56,2.77,2.56c0.8,1,0.75,2.32,2.04,3.49c1.3,1.17,3.75,0.27,4.22-0.13
					C120.99,132.84,120.77,132.34,119.37,131.24z"/>
				<path id="XMLID_505_" class="st1" d="M119.19,132.59c-2.73,0.67-3.28,0.31-4.07-2.77c-0.6-2.36-1.14-4.05-2.18-4.96
					c-1.24-1.09-1.33-1.71-1.34-2.48c-0.27-0.02-0.41,0.18-0.58,0.78c-0.4,1.37-0.91,1.41-0.92,2.38c-0.02,0.98,0.64,1.82,1.37,2.3
					c1.2,0.78,1.53,1.13,2.08,2.29c0.66,1.36,0.52,2.86,0.97,4.13c1.9,1.47,3.94,2.44,7,1.02c0.58-1.55,1.08-2.26-2.16-4.05
					C119.96,131.93,120.22,132.34,119.19,132.59z"/>
			</g>
			<g id="XMLID_346_">
				<path id="XMLID_378_" class="st1" d="M102.89,126.67c-0.28,0.72-0.8,1.54-0.65,3.43c0.15,1.89,0.56,1.5,0.43,4.02
					c-0.08,1.55-0.82,3.53-0.01,4.71c1.42,1.41,5.15,1.22,5.93,0.47c0.2-0.66,0.39-1.31,0.28-1.92c-0.1-0.52-0.95-1.08-1.08-1.6
					c-0.1-0.42-0.24-0.92-0.38-1.63c-0.45-2.25-0.97-7.49-0.97-7.49L102.89,126.67z"/>
				<path id="XMLID_349_" class="st2" d="M105.79,136.62c-0.78,0.04-1.71-0.28-1.71-0.28c-0.27-0.14-0.46-0.52-0.52-0.96
					c-0.18-1.19,0.22-2.64-0.31-4.29c-0.53-1.65-0.64-2.64-0.36-4.41c0.27-1.77,0.05-4.45,0.05-4.45l3.63-0.08
					c0,0-0.15,2.98-0.13,4.52c0.02,1.55,0.32,6.39,0.64,7.99c0.16,0.8,0.29,1.11,0.2,1.44
					C107.27,136.09,106.96,136.55,105.79,136.62z"/>
			</g>
			<path id="XMLID_2502_" class="st3" d="M111.71,25.41c-0.81-1.31-7.03-2.17-9.08,3.1c-0.78,2-0.66,7.1-1.31,10.31
				c-0.65,3.21-2.18,5.03-2.73,7.63c-0.55,2.6,0.35,6.97,6.62,7.74c6.27,0.77,11.1-1.43,12.58-3.43s1.51-6.25-0.03-8.53
				c-1.54-2.28-2.71-4.14-2.67-7.11L111.71,25.41z"/>
			<path id="XMLID_383_" class="st2" d="M142.93,60.51c-0.81,0.28-1.62,0.21-2.73,0.69c-0.98,0.42-1.63,0.67-2.62,0.8
				c-0.98,0.13-3.94-0.84-6.55-2.16c-3.07-1.55-6.33-4.53-7.56-6.01c-2.66-3.19-5.58-8.05-6.48-9.81c-1.08-2.11-2.47-2.46-3.79-2.3
				c-1.55,0.18-2.22,1.1-0.63,3.95c1.59,2.85,4.83,7.95,7.92,11.16c1.5,1.55,3.95,3.88,7.89,5.89c2.75,1.41,5.16,2.2,8.15,2.96
				c0.82,0.21,1.37,0.56,2.88,1.14c1.51,0.58,3.39,0.88,4.73,0.65c1.33-0.22,1.78-0.52,1.85-0.8c0.09-0.36-0.2-0.56-0.82-0.53
				c-0.62,0.03-1.64,0.19-2.94-0.16c0,0,1.36,0,2.18-0.08c0.81-0.07,1.59-0.27,2.12-0.48c0.65-0.26,0.9-1.27,0.27-1.26
				c-0.63,0.02-1.11,0.2-2.32,0.29c-1.1,0.08-1.92-0.07-1.92-0.07s1.31-0.17,2.37-0.52c1.06-0.35,1.43-0.71,1.66-0.96
				c0.23-0.25,0.18-0.88-0.59-0.75c-0.7,0.11-1.53,0.55-2.89,0.56c-0.99,0-1.69-0.13-1.56-0.28c0.13-0.15,0.71-0.11,1.47-0.51
				c0.73-0.38,1.22-1.19,0.97-1.58C143.77,59.94,143.74,60.23,142.93,60.51z"/>
			<path id="XMLID_2501_" class="st3" d="M111.61,25.48c0,0,2.22-1.9,4.88,0.81c1.7,1.73,1.62,5.09,1.24,6.57
				c-0.38,1.48-1.75,3.26-2.93,3.37C113.64,36.34,111.61,25.48,111.61,25.48z"/>
			<path id="XMLID_2489_" class="st2" d="M100.47,71.81c-1.28,5.55,0.46,14.34,0.75,18.89c0.29,4.55,0.71,9.85,0.71,9.85
				s-1.38,4.81-1.3,8.51c0.08,3.93,2.42,15.19,2.42,15.19s1.47,1.09,3.35-0.01c0,0,0.55-9.74,1.07-14.26
				c0.54-4.71,0.72-8.15,1.2-10.9c0.6-3.43,1.95-21.76,1.95-21.76l0.15,2.77l1.67,18.08c0,0-1.19,2.6-1.19,4.7
				c0.01,2.88,0.62,16.39,0.62,16.39s1.63,1.24,3.63,0.02c0,0,2.84-18.54,3.24-20.72c0.37-2.01,1.2-22.86-0.45-27.71L100.47,71.81z"
				/>
			<path id="XMLID_2488_" class="st2" d="M105.81,37.27c0,0,0.31,5.22,0.21,5.6c-0.09,0.38-2.05,0.75-2.6,1.21
				c-0.55,0.46,2.84,5.75,4.56,6.53c1.72,0.78,7.05-1.22,7.42-3.87c0.34-2.44-1.53-4.34-2.24-5c-0.48-0.1-1.25-0.01-1.47-0.04
				l-0.16-2.53C109.2,38.43,105.81,37.27,105.81,37.27z"/>
			<path id="XMLID_2487_" class="st4" d="M105.09,43.38c-1.47,0.23-3.14,1.01-3.37,1.81c-0.27,0.94-0.85,5.35,0.42,8.71
				c1.27,3.36,2.75,5.63,3.48,7.08c0,0,5.55,1.72,10.67-1.46c0,0,0.51-2.73,0.53-4.66c4.72-4.12,0.69-9.2-3.31-13.14
				c-0.39-0.06-1.06-0.04-1.44-0.02c0,0,2.36,6.05,1.09,6.62C111.31,49.15,106.79,44.33,105.09,43.38z"/>
			<path id="XMLID_2486_" class="st5" d="M111.66,41.22l-0.13-2.05l-1.66-0.54l-4.06-1.37c0,0,0.05,0.94,0.08,1.64
				c0,0,0.17,1.78,3.12,3.17C109.53,42.32,111.5,42.5,111.66,41.22z"/>
			<path id="XMLID_2483_" class="st2" d="M115.56,30.8L115.56,30.8c-0.53-3.35-2.95-5.88-6.4-5.68c-3.68,0.22-6.48,3.37-6.27,7.05
				c0.13,2.15,1.27,3.97,2.93,5.1c0,0,0.31,1.21,0.53,1.46c1.23,1.43,4.48,2.33,5.55,2.35c0.93,0.01,1.73-0.86,2.6-2.3
				C116.3,35.78,115.85,32.46,115.56,30.8z"/>
			<path id="XMLID_2482_" class="st3" d="M115.31,28.72c-1.48-3.03-4.41-4.09-7.23-3.53c-2.42,0.48-4.28,2.29-4.94,4.67
				c-0.86,3.12,0.45,5.91,2.67,7.42c-0.07-0.23-1.83-2.83-0.04-3.41c0.03,0.25,0.07,1.18,0.16,1.76c0,0,0.88,0.06,0.85-1.04
				c-0.01-0.3-0.06-0.8-0.06-1.04c0.01-0.8-0.02-1.34,0.44-2.03c0.2-0.3,0.29-0.63,0.41-1.01c0.29-0.94,0.97-1.75,1.9-2.06
				c0.88-0.3,2.09-0.22,3.41,1.25C114.21,27.57,114.86,28.27,115.31,28.72z"/>
			<path id="XMLID_2481_" class="st2" d="M105.81,37.27c0,0-0.16,0.33-0.81,0.37c-1.21,0.06-2.64-2.19-1.67-3.72
				c0.61-0.96,1.99-0.63,2.44-0.06L105.81,37.27z"/>
			<path id="XMLID_2480_" class="st4" d="M105.27,60.3c0.36,0.68,0.43,1.65-0.76,3.38c-1.19,1.73-3.6,5.25-4.04,8.13
				c0.96,1.01,2.32,3.08,6.45,3.72c5.94,0.92,10.36-1.7,11.76-3.23c0,0-0.08-2.49-1.14-6.99c-0.63-2.71-0.99-3.68-1.24-5.79
				C116.04,57.41,105.27,60.3,105.27,60.3z"/>
			<path id="XMLID_192_" class="st6" d="M105,62.49c-0.67,1.13-1.23,2.11-2.5,3.87c-1.22,1.69-3.59,5.4-3.02,11.89
				c0.37,4.24,2.46,22.31,2.46,22.31s-1.06,3.1-1.39,6.96c-0.33,3.86,2.36,16.82,2.36,16.82s0.64,0.6,1.94,0.57
				c1.29-0.03,1.7-0.7,1.7-0.7s0.48-7.22,0.74-10.97c0.25-3.75,0.93-9.71,1.12-11.2c0.19-1.49,0.67-4.09,0.9-7
				c0.23-2.92,1.33-17.72,1.33-17.72l0.15,2.77c0,0,0.14,4.5,0.79,10.06c0.65,5.56,0.87,8.02,0.87,8.02s-1.12,2.06-1.27,3.59
				s0.7,17.5,0.7,17.5s0.54,0.89,2,1.04c1.49,0.16,1.87-0.28,1.87-0.28s2.35-16.74,2.63-18.45c0.28-1.71,0.52-2.55,0.84-7.92
				c0.33-5.37,0.21-17.03-0.33-21.26c-0.54-4.23-2.1-10.38-2.1-10.38s-1.97,1.03-4.7,1.17C109.37,63.32,105,62.49,105,62.49z"/>
			<path id="XMLID_377_" class="st7" d="M116.83,72.31c0,0-0.61,1.38-2.29,2.92c-1.68,1.54-3.91,2.08-3.91,2.08l0.15,2.77
				c0,0,0.14,4.5,0.79,10.06c0.35,3.04,0.58,5.15,0.72,6.44l0,0l-0.19-18.21C116.23,76.53,116.83,72.31,116.83,72.31z"/>
			<path id="XMLID_2478_" class="st8" d="M105.48,60.95c0,0,3.81,1.14,6.55,0.89c3.04-0.27,4-1.11,4.35-1.67
				c0,0,0.46,1.08,0.41,1.85c-1.32,1.53-3.01,1.89-5.45,1.88c-2.78-0.01-5.9-1.05-6.35-1.41C105,62.49,105.37,61.62,105.48,60.95z"
				/>
			<path id="XMLID_370_" class="st2" d="M106.49,79.96c-0.7-0.49-1.12-1.19-2.16-1.8c-0.92-0.54-1.5-0.93-2.18-1.65
				c-0.68-0.72-1.64-3.69-2.1-6.57c-0.55-3.4-0.05-7.78,0.42-9.65c1.02-4.03,3.23-9.24,4.13-11.01c1.07-2.12,0.75-3.59-0.37-4.42
				c-1.25-0.94-2.44-0.53-3.57,1.81c-1.42,2.94-3.59,8.58-4.37,12.97c-0.38,2.13-0.82,5.48-0.13,9.85c0.48,3.05,1.25,5.47,2.4,8.34
				c0.31,0.78,0.35,1.44,0.77,3c0.42,1.56,1.28,3.26,2.25,4.21c0.96,0.95,1.46,1.14,1.74,1.03c0.35-0.14,0.34-0.5-0.05-0.98
				c-0.39-0.48-1.12-1.22-1.6-2.47c0,0,0.8,1.1,1.34,1.72c0.54,0.62,1.15,1.13,1.63,1.44c0.59,0.38,1.56-0.02,1.17-0.52
				c-0.38-0.5-0.81-0.78-1.6-1.7c-0.71-0.84-1.07-1.6-1.07-1.6s0.9,0.96,1.81,1.61c0.91,0.66,1.42,0.74,1.76,0.78
				c0.34,0.04,0.82-0.37,0.26-0.92c-0.5-0.5-1.34-0.91-2.15-2.01c-0.58-0.8-0.89-1.44-0.69-1.42c0.2,0.02,0.51,0.51,1.28,0.89
				c0.74,0.37,1.68,0.29,1.85-0.14C107.44,80.3,107.19,80.45,106.49,79.96z"/>
		</g>
		<g id="XMLID_140_">
			<g id="XMLID_557_" class="st9">
				<path id="XMLID_1867_" class="st10" d="M213.27,52.95l26.36-15.22c0.87-0.5,1.57-0.09,1.57,0.91v19.08c0,1-0.7,2.22-1.57,2.72
					l-26.36,15.22c-0.87,0.5-1.57,0.1-1.57-0.91V55.68C211.69,54.67,212.4,53.46,213.27,52.95z"/>
				<path id="XMLID_1864_" class="st11" d="M213.27,52.95l26.36-15.22c0.87-0.5,1.57-0.09,1.57,0.91v19.08c0,1-0.7,2.22-1.57,2.72
					l-26.36,15.22c-0.87,0.5-1.57,0.1-1.57-0.91V55.68C211.69,54.67,212.4,53.46,213.27,52.95z"/>
				<path id="XMLID_1861_" class="st12" d="M214.94,55.81l10.72-6.19c0.43-0.25,0.79-0.05,0.79,0.45v0.04c0,0.5-0.35,1.11-0.79,1.36
					l-10.72,6.19c-0.43,0.25-0.79,0.05-0.79-0.45v-0.04C214.15,56.67,214.5,56.06,214.94,55.81z"/>
				<path id="XMLID_1858_" class="st12" d="M228.71,47.85l9.24-5.33c0.43-0.25,0.79-0.05,0.79,0.45v0.04c0,0.5-0.35,1.11-0.79,1.36
					l-9.24,5.33c-0.43,0.25-0.79,0.05-0.79-0.45v-0.04C227.93,48.71,228.28,48.1,228.71,47.85z"/>
				<g id="XMLID_1844_" class="st13">
					<g>
						<g id="XMLID_913_">
							<path class="st14" d="M214.94,64.55l10.72-6.19c0.43-0.25,0.79-0.05,0.79,0.45v0.04c0,0.5-0.35,1.11-0.79,1.36l-10.72,6.19
								c-0.43,0.25-0.79,0.05-0.79-0.45v-0.04C214.15,65.42,214.5,64.81,214.94,64.55z"/>
						</g>
						<g id="XMLID_912_">
							<path class="st14" d="M228.71,56.6l9.24-5.33c0.43-0.25,0.79-0.05,0.79,0.45v0.04c0,0.5-0.35,1.11-0.79,1.36l-9.24,5.33
								c-0.43,0.25-0.79,0.05-0.79-0.45v-0.04C227.93,57.46,228.28,56.85,228.71,56.6z"/>
						</g>
					</g>
				</g>
				<g id="XMLID_1809_" class="st13">
					<g>
						<g id="XMLID_925_">
							<path class="st14" d="M214.94,60.18l5.8-3.35c0.43-0.25,0.79-0.05,0.79,0.45v0.04c0,0.5-0.35,1.11-0.79,1.36l-5.8,3.35
								c-0.43,0.25-0.79,0.05-0.79-0.45v-0.04C214.15,61.04,214.5,60.43,214.94,60.18z"/>
						</g>
						<g id="XMLID_924_">
							<path class="st14" d="M223.35,55.32l4.92-2.86c0.43-0.25,0.79-0.05,0.79,0.45v0.04c0,0.5-0.35,1.11-0.79,1.36l-4.92,2.86
								c-0.43,0.25-0.79,0.05-0.79-0.45v-0.04C222.56,56.19,222.91,55.58,223.35,55.32z"/>
						</g>
						<g id="XMLID_923_">
							<path class="st14" d="M231.06,50.85l6.89-3.96c0.43-0.25,0.79-0.05,0.79,0.46v0.04c0,0.5-0.35,1.11-0.79,1.36l-6.89,3.96
								c-0.43,0.25-0.79,0.05-0.79-0.46v-0.04C230.27,51.71,230.63,51.1,231.06,50.85z"/>
						</g>
					</g>
				</g>
				<g id="XMLID_1727_" class="st13">
					<g>
						<g id="XMLID_917_">
							<path class="st14" d="M214.94,68.98l9.35-5.39c0.43-0.25,0.79-0.05,0.79,0.45v0.04c0,0.5-0.35,1.11-0.79,1.36l-9.35,5.39
								c-0.43,0.25-0.79,0.05-0.79-0.45v-0.04C214.15,69.84,214.5,69.23,214.94,68.98z"/>
						</g>
						<g id="XMLID_916_">
							<path class="st14" d="M226.89,62.09l4.92-2.86c0.43-0.25,0.79-0.05,0.79,0.45v0.04c0,0.5-0.35,1.11-0.79,1.36l-4.92,2.86
								c-0.43,0.25-0.79,0.05-0.79-0.45v-0.04C226.11,62.95,226.46,62.34,226.89,62.09z"/>
						</g>
						<g id="XMLID_915_">
							<path class="st14" d="M234.61,57.61l3.34-1.92c0.43-0.25,0.79-0.05,0.79,0.46v0.04c0,0.5-0.35,1.11-0.79,1.36l-3.34,1.92
								c-0.43,0.25-0.79,0.05-0.79-0.46v-0.04C233.82,58.47,234.17,57.86,234.61,57.61z"/>
						</g>
					</g>
				</g>
			</g>
			<g id="XMLID_396_">
				<g id="XMLID_151_">
					<path id="XMLID_1770_" class="st15" d="M237.12,123.89L237.12,123.89l0-6.03l-6.78,2.88l-41.2-23.78
						c-1.47-0.85-3.86-0.85-5.34,0l-78.08,45.08l-15.65,4.74v6.03c0,0,0,0,0,0v0.01l0,0c0.01,0.55,0.37,1.1,1.1,1.53l44.72,25.82
						c1.47,0.85,3.86,0.85,5.34,0l94.78-54.73C236.76,125.02,237.13,124.46,237.12,123.89z"/>
					<path id="XMLID_1761_" class="st16" d="M90.07,146.79v6.03c0,0,0,0,0,0v0.01l0,0c0.01,0.55,0.37,1.1,1.1,1.53l44.72,25.82
						c0.74,0.43,1.7,0.64,2.67,0.64v-27.55L112.75,138l-7.02,4.05L90.07,146.79z"/>
					<path id="XMLID_1759_" class="st17" d="M230.58,118.01l-10.96-6.33c-0.98-0.57-2.58-0.57-3.56,0l-0.61,0.35
						c-0.98,0.57-2.58,0.57-3.56,0l-13.13-7.58c-0.98-0.57-0.98-1.49,0-2.05l0.61-0.35c0.98-0.57,0.98-1.49,0-2.05l-11.11-6.41
						c-0.98-0.57-2.58-0.57-3.56,0l-88.18,50.94c-0.98,0.57-0.98,1.49,0,2.05l42.32,24.42c0.98,0.57,2.58,0.57,3.56,0l88.18-50.94
						C231.56,119.5,231.56,118.58,230.58,118.01z"/>
					<polygon id="XMLID_1740_" class="st18" points="217.83,110.66 232.4,119.02 230.39,122.73 217.83,115.48 					"/>
					<polygon id="XMLID_1726_" class="st18" points="186.48,97.38 186.48,92.57 201.15,101.03 196.98,103.44 					"/>
					<path id="XMLID_1756_" class="st19" d="M142.4,171.01l87.82-50.73l-10.6-6.12c-0.98-0.57-2.58-0.57-3.56,0l-0.61,0.35
						c-0.98,0.57-2.58,0.57-3.56,0l-13.13-7.58c-0.98-0.57-0.98-1.49,0-2.05l0.36-0.21l-0.36-0.21c-0.98-0.57-0.98-1.49,0-2.05
						l0.25-0.15l-10.75-6.2c-0.98-0.57-2.58-0.57-3.56,0L96.88,146.8l41.96,24.21C139.82,171.58,141.42,171.58,142.4,171.01z"/>
					<path id="XMLID_1773_" class="st20" d="M219.61,114.16c-0.98-0.57-2.58-0.57-3.56,0l-0.61,0.35c-0.98,0.57-2.58,0.57-3.56,0
						l-13.13-7.58c-0.98-0.57-0.98-1.49,0-2.05l0.36-0.21l-0.36-0.21c-0.98-0.57-0.98-1.49,0-2.05l0.25-0.15l-10.75-6.2
						c-0.49-0.28-1.14-0.43-1.78-0.43c0,0,5.86,14.8,0.86,30.34c-4.67,14.5-31.87,37.18-42.81,43.8l85.68-49.5L219.61,114.16z"/>
					<path id="XMLID_1741_" class="st18" d="M198.02,103.44v2.47c0.01,0.42,0.28,0.75,0.74,1.03l13.13,7.58
						c0.46,0.27,1.06,0.42,1.88,0.42l0-3.17L198.02,103.44z"/>
					<path id="XMLID_1758_" class="st21" d="M236.02,116.34l-44.72-25.82c-1.47-0.85-3.86-0.85-5.34,0l-94.78,54.73
						c-1.47,0.85-1.47,2.23,0,3.08l44.72,25.82c1.47,0.85,3.86,0.85,5.34,0l94.78-54.73C237.49,118.57,237.49,117.19,236.02,116.34z
						 M230.58,120.07l-88.18,50.94c-0.98,0.57-2.58,0.57-3.56,0l-42.32-24.42c-0.98-0.57-0.98-1.49,0-2.05l88.18-50.94
						c0.98-0.57,2.58-0.57,3.56,0l11.11,6.41c0.98,0.57,0.98,1.49,0,2.05l-0.61,0.35c-0.98,0.57-0.98,1.49,0,2.05l13.13,7.58
						c0.98,0.57,2.58,0.57,3.56,0l0.61-0.35c0.98-0.57,2.58-0.57,3.56,0l10.96,6.33C231.56,118.58,231.56,119.5,230.58,120.07z"/>
					<g id="XMLID_411_" class="st22">
						<polygon id="XMLID_420_" class="st23" points="127.4,126.7 135.04,122.29 130.95,122.29 123.31,126.7 						"/>
						<polygon id="XMLID_421_" class="st23" points="156.13,110.1 171.41,101.28 167.33,101.28 152.05,110.1 						"/>
						<path id="XMLID_436_" class="st23" d="M187.29,93.26c0.35,0.07,0.69,0.17,0.97,0.33l4.84,2.79h8.35l-5.41-3.13H187.29z"/>
						<path id="XMLID_437_" class="st23" d="M175.8,96.39h4.07l4.83-2.79c0.28-0.16,0.62-0.26,0.97-0.33h-4.46L175.8,96.39z"/>
						<path id="XMLID_438_" class="st23" d="M200.06,101.28c-0.09,0.28-0.31,0.56-0.7,0.78l-0.61,0.35c-0.98,0.57-0.98,1.49,0,2.05
							l9.76,5.64h16.68l-15.28-8.82H200.06z"/>
						<polygon id="XMLID_439_" class="st23" points="105.23,139.5 120.51,130.68 116.41,130.68 101.13,139.5 						"/>
						<polygon id="XMLID_441_" class="st23" points="138.13,170.6 122.84,161.77 114.47,161.77 129.75,170.6 						"/>
						<polygon id="XMLID_442_" class="st23" points="226.74,122.29 219.1,126.7 223.42,126.7 231.06,122.29 						"/>
						<polygon id="XMLID_443_" class="st23" points="212.21,130.68 196.94,139.5 201.25,139.5 216.53,130.68 						"/>
						<polygon id="XMLID_444_" class="st23" points="115.94,157.79 108.3,153.38 99.93,153.38 107.57,157.79 						"/>
						<polygon id="XMLID_453_" class="st23" points="172.91,153.38 165.27,157.79 169.57,157.79 177.21,153.38 						"/>
						<polygon id="XMLID_455_" class="st23" points="158.38,161.77 143.11,170.6 147.39,170.6 162.67,161.77 						"/>
					</g>
					<path id="XMLID_1754_" class="st17" d="M205.01,103.27l6.37,3.68c0.55,0.32,0.64,0.77,0.22,1.02
						c-0.43,0.25-1.22,0.19-1.76-0.13l-6.37-3.68c-0.55-0.32-0.64-0.77-0.22-1.02C203.68,102.9,204.47,102.95,205.01,103.27z"/>
					<path id="XMLID_154_" class="st24" d="M110.21,162.56c0-0.69,1.45-0.41,3.24,0.62c1.79,1.03,3.24,2.43,3.24,3.12l0,1.25
						l-6.48-3.74C110.21,163.81,110.21,163.25,110.21,162.56z"/>
					<g id="XMLID_4002_">
						<g>
							<g id="XMLID_1027_">
								<path id="XMLID_1036_" class="st24" d="M118.7,168.31c0,0.26,0.18,0.58,0.41,0.71c0.23,0.13,0.41,0.02,0.41-0.24
									c0-0.26-0.18-0.58-0.41-0.71C118.88,167.95,118.7,168.05,118.7,168.31z"/>
								<path id="XMLID_1035_" class="st24" d="M120.72,169.48c0,0.26,0.18,0.58,0.41,0.71c0.23,0.13,0.41,0.02,0.41-0.24
									s-0.18-0.58-0.41-0.71C120.9,169.11,120.72,169.22,120.72,169.48z"/>
								<path id="XMLID_1033_" class="st24" d="M122.74,170.65c0,0.26,0.18,0.58,0.41,0.71c0.23,0.13,0.41,0.03,0.41-0.24
									c0-0.26-0.18-0.58-0.41-0.71C122.92,170.28,122.74,170.39,122.74,170.65z"/>
								<path id="XMLID_1032_" class="st24" d="M124.76,171.81c0,0.26,0.18,0.58,0.41,0.71c0.23,0.13,0.41,0.02,0.41-0.24
									s-0.18-0.58-0.41-0.71C124.94,171.45,124.76,171.55,124.76,171.81z"/>
								<path id="XMLID_1031_" class="st24" d="M126.78,172.98c0,0.26,0.18,0.58,0.41,0.71c0.23,0.13,0.41,0.02,0.41-0.24
									s-0.18-0.58-0.41-0.71C126.96,172.61,126.78,172.72,126.78,172.98z"/>
								<path id="XMLID_1030_" class="st24" d="M128.8,174.15c0,0.26,0.18,0.58,0.41,0.71c0.23,0.13,0.41,0.02,0.41-0.24
									s-0.18-0.58-0.41-0.71C128.98,173.78,128.8,173.89,128.8,174.15z"/>
								<path id="XMLID_1029_" class="st24" d="M130.82,175.31c0,0.26,0.18,0.58,0.41,0.71c0.23,0.13,0.41,0.02,0.41-0.24
									s-0.18-0.58-0.41-0.71C131,174.95,130.82,175.05,130.82,175.31z"/>
							</g>
							<g id="XMLID_1018_">
								<path id="XMLID_1026_" class="st24" d="M118.64,166.21c0,0.26,0.18,0.58,0.41,0.71c0.23,0.13,0.41,0.02,0.41-0.24
									c0-0.26-0.18-0.58-0.41-0.71C118.83,165.84,118.64,165.95,118.64,166.21z"/>
								<path id="XMLID_1025_" class="st24" d="M120.66,167.37c0,0.26,0.18,0.58,0.41,0.71c0.23,0.13,0.41,0.02,0.41-0.24
									s-0.18-0.58-0.41-0.71C120.85,167.01,120.66,167.11,120.66,167.37z"/>
								<path id="XMLID_1024_" class="st24" d="M122.69,168.54c0,0.26,0.18,0.58,0.41,0.71c0.23,0.13,0.41,0.02,0.41-0.24
									s-0.18-0.58-0.41-0.71C122.87,168.17,122.69,168.28,122.69,168.54z"/>
								<path id="XMLID_1023_" class="st24" d="M124.71,169.71c0,0.26,0.18,0.58,0.41,0.71c0.23,0.13,0.41,0.02,0.41-0.24
									c0-0.26-0.18-0.58-0.41-0.71C124.89,169.34,124.71,169.45,124.71,169.71z"/>
								<path id="XMLID_1021_" class="st24" d="M126.73,170.87c0,0.26,0.18,0.58,0.41,0.71c0.23,0.13,0.41,0.03,0.41-0.24
									c0-0.26-0.18-0.58-0.41-0.71C126.91,170.51,126.73,170.61,126.73,170.87z"/>
								<path id="XMLID_1020_" class="st24" d="M128.75,172.04c0,0.26,0.18,0.58,0.41,0.71c0.23,0.13,0.41,0.02,0.41-0.24
									c0-0.26-0.18-0.58-0.41-0.71C128.93,171.67,128.75,171.78,128.75,172.04z"/>
								<path id="XMLID_1019_" class="st24" d="M130.77,173.21c0,0.26,0.18,0.58,0.41,0.71c0.23,0.13,0.41,0.02,0.41-0.24
									c0-0.26-0.18-0.58-0.41-0.71C130.95,172.84,130.77,172.95,130.77,173.21z"/>
							</g>
						</g>
					</g>
					<g id="XMLID_153_">
						<g>
							<g id="XMLID_1008_">
								<path id="XMLID_1017_" class="st24" d="M94.92,154.58c0,0.26,0.18,0.58,0.41,0.71c0.23,0.13,0.41,0.02,0.41-0.24
									c0-0.26-0.18-0.58-0.41-0.71C95.11,154.22,94.92,154.32,94.92,154.58z"/>
								<path id="XMLID_1015_" class="st24" d="M96.95,155.75c0,0.26,0.18,0.58,0.41,0.71c0.23,0.13,0.41,0.02,0.41-0.24
									c0-0.26-0.18-0.58-0.41-0.71C97.13,155.38,96.95,155.49,96.95,155.75z"/>
								<path id="XMLID_1014_" class="st24" d="M98.97,156.92c0,0.26,0.18,0.58,0.41,0.71c0.23,0.13,0.41,0.02,0.41-0.24
									c0-0.26-0.18-0.58-0.41-0.71C99.15,156.55,98.97,156.66,98.97,156.92z"/>
								<path id="XMLID_1013_" class="st24" d="M100.99,158.08c0,0.26,0.18,0.58,0.41,0.71c0.23,0.13,0.41,0.02,0.41-0.24
									c0-0.26-0.18-0.58-0.41-0.71C101.17,157.72,100.99,157.82,100.99,158.08z"/>
								<path id="XMLID_1012_" class="st24" d="M103.01,159.25c0,0.26,0.18,0.58,0.41,0.71c0.23,0.13,0.41,0.03,0.41-0.24
									c0-0.26-0.18-0.58-0.41-0.71C103.19,158.88,103.01,158.99,103.01,159.25z"/>
								<path id="XMLID_1011_" class="st24" d="M105.03,160.42c0,0.26,0.18,0.58,0.41,0.71c0.23,0.13,0.41,0.02,0.41-0.24
									c0-0.26-0.18-0.58-0.41-0.71C105.21,160.05,105.03,160.16,105.03,160.42z"/>
								<path id="XMLID_1009_" class="st24" d="M107.05,161.58c0,0.26,0.18,0.58,0.41,0.71c0.23,0.13,0.41,0.02,0.41-0.24
									s-0.18-0.58-0.41-0.71C107.23,161.22,107.05,161.32,107.05,161.58z"/>
							</g>
							<g id="XMLID_999_">
								<path id="XMLID_1007_" class="st24" d="M94.87,152.48c0,0.26,0.18,0.58,0.41,0.71c0.23,0.13,0.41,0.02,0.41-0.24
									s-0.18-0.58-0.41-0.71C95.06,152.11,94.87,152.21,94.87,152.48z"/>
								<path id="XMLID_1006_" class="st24" d="M96.89,153.64c0,0.26,0.18,0.58,0.41,0.71c0.23,0.13,0.41,0.02,0.41-0.24
									c0-0.26-0.18-0.58-0.41-0.71C97.08,153.28,96.89,153.38,96.89,153.64z"/>
								<path id="XMLID_1005_" class="st24" d="M98.91,154.81c0,0.26,0.18,0.58,0.41,0.71c0.23,0.13,0.41,0.02,0.41-0.24
									s-0.18-0.58-0.41-0.71C99.1,154.44,98.91,154.55,98.91,154.81z"/>
								<path id="XMLID_1003_" class="st24" d="M100.94,155.98c0,0.26,0.18,0.58,0.41,0.71c0.23,0.13,0.41,0.02,0.41-0.24
									s-0.18-0.58-0.41-0.71C101.12,155.61,100.94,155.72,100.94,155.98z"/>
								<path id="XMLID_1002_" class="st24" d="M102.96,157.14c0,0.26,0.18,0.58,0.41,0.71c0.23,0.13,0.41,0.02,0.41-0.24
									c0-0.26-0.18-0.58-0.41-0.71C103.14,156.78,102.96,156.88,102.96,157.14z"/>
								<path id="XMLID_1001_" class="st24" d="M104.98,158.31c0,0.26,0.18,0.58,0.41,0.71c0.23,0.13,0.41,0.02,0.41-0.24
									c0-0.26-0.18-0.58-0.41-0.71C105.16,157.94,104.98,158.05,104.98,158.31z"/>
								<path id="XMLID_1000_" class="st24" d="M107,159.48c0,0.26,0.18,0.58,0.41,0.71c0.23,0.13,0.41,0.02,0.41-0.24
									s-0.18-0.58-0.41-0.71C107.18,159.11,107,159.22,107,159.48z"/>
							</g>
						</g>
					</g>
					<path id="XMLID_152_" class="st17" d="M212.34,108.36c-0.41,0.24-0.41,0.63,0,0.87c0.41,0.24,1.08,0.24,1.5,0
						c0.41-0.24,0.41-0.63,0-0.87C213.43,108.12,212.76,108.12,212.34,108.36z"/>
				</g>
				<g id="XMLID_145_" class="st25">
					<path id="XMLID_149_" class="st26" d="M181.68,86.91c0-4.61-3.27-6.5-7.26-4.19l-0.07,0.04c-3.99,2.31-7.52,7.96-7.84,12.56
						l-0.32,4.59c-0.17,2.54-2.61,5.92-5.45,7.56c-2.83,1.64-5.13,0.28-5.14-3.03l0-4.11c0-3.71-2.63-5.23-5.85-3.38l0,0
						c-3.05,1.76-5.79,6.07-6.08,9.58l-0.44,5.35c-0.27,3.28-2.83,7.32-5.68,8.97l-0.46,0.26c-2.85,1.65-5.46,0.31-5.79-2.96
						l-2.32-22.86c-0.46-4.59-4.11-6.46-8.11-4.15l-0.07,0.04c-3.99,2.31-7.26,7.97-7.26,12.58v47.81l68.14-39.34V86.91z"/>
					<path id="XMLID_146_" class="st27" d="M181.68,112.24V86.91c0-4.61-3.27-6.5-7.26-4.19l-0.07,0.04
						c-3.99,2.31-7.52,7.96-7.84,12.56l-0.32,4.59c-0.17,2.54-2.61,5.92-5.45,7.56c-2.83,1.64-5.13,0.28-5.14-3.03l0-4.11
						c0-3.71-2.63-5.23-5.85-3.38l0,0c-3.05,1.76-5.79,6.07-6.08,9.58l-0.44,5.35c-0.27,3.28-2.83,7.32-5.68,8.97l-0.46,0.26
						c-2.85,1.65-5.46,0.31-5.79-2.96l-2.32-22.86c-0.46-4.59-4.11-6.46-8.11-4.15l-0.07,0.04c-3.99,2.31-7.26,7.97-7.26,12.58
						v47.81"/>
				</g>
				<g id="XMLID_403_">
					<path id="XMLID_143_" class="st10" d="M185.19,110.12c-0.27,3.3-2.81,7.31-5.68,8.95c-2.92,1.68-5.66,0.36-6.18-2.91
						c0,0-0.34-2.14-0.75-4.77c-0.41-2.63-2.72-3.63-5.16-2.22c-2.43,1.41-4.81,5.2-5.32,8.47l-1.03,6.69
						c-0.5,3.27-2.79,7.01-5.11,8.34c-2.32,1.34-4.54-0.24-4.96-3.52l-1.97-11.45c-0.79-4.56-4.68-6.39-8.69-4.07l-0.07,0.04
						c-4.01,2.32-7.26,7.95-7.26,12.58v36.57l68.14-39.34V75.67c0-4.63-2.93-6.7-6.54-4.62c-3.61,2.08-6.85,7.51-7.22,12.12
						L185.19,110.12z"/>
					<path id="XMLID_141_" class="st27" d="M201.15,123.48V75.67c0-4.63-2.93-6.7-6.54-4.62c-3.61,2.08-6.85,7.51-7.22,12.12
						l-2.19,26.94c-0.27,3.3-2.81,7.31-5.68,8.95c-2.92,1.68-5.66,0.36-6.18-2.91c0,0-0.34-2.14-0.75-4.77
						c-0.41-2.63-2.72-3.63-5.16-2.22c-2.43,1.41-4.81,5.2-5.32,8.47l-1.03,6.69c-0.5,3.27-2.79,7.01-5.11,8.34
						c-2.32,1.34-4.54-0.24-4.96-3.52l-1.97-11.45c-0.79-4.56-4.68-6.39-8.69-4.07l-0.07,0.04c-4.01,2.32-7.26,7.95-7.26,12.58
						v36.57"/>
				</g>
			</g>
		</g>
	</g>
</g>
<g id="Designed_by_Freepik">
</g>
</svg>
