<?xml version="1.0" encoding="utf-8"?>
<!-- Generator: Adobe Illustrator 23.0.3, SVG Export Plug-In . SVG Version: 6.00 Build 0)  -->
<svg version="1.1" xmlns="http://www.w3.org/2000/svg" xmlns:xlink="http://www.w3.org/1999/xlink" x="0px" y="0px"
	 viewBox="0 0 750 500" style="enable-background:new 0 0 750 500;" xml:space="preserve">
<style type="text/css">
	.st0{opacity:0.15;fill:#6B99D1;}
	.st1{fill:#2D2979;}
	.st2{fill:#FFA8A7;}
	.st3{fill:#F5FBFB;}
	.st4{fill:#F28F8F;}
	.st5{fill:#3A2C6D;}
	.st6{fill:#7FA8E6;}
	.st7{fill:#DCEEFF;}
	.st8{fill:#A5CBFA;}
	.st9{fill:#C8E2FF;}
	.st10{fill:#FFFFFF;}
	.st11{fill:#344593;}
	.st12{fill:#1E3779;}
	.st13{fill:#031F60;}
	.st14{fill:#E73555;}
	.st15{fill:#0662DD;}
	.st16{fill:none;stroke:#344593;stroke-miterlimit:10;}
	.st17{fill:url(#XMLID_2_);}
	.st18{fill:url(#XMLID_3_);}
	.st19{fill:url(#XMLID_4_);}
	.st20{opacity:0.3;fill:#57F7E0;}
	.st21{opacity:0.2;fill:#57F7E0;}
	.st22{opacity:0.5;fill:#57F7E0;}
</style>
<g id="Background">
</g>
<g id="Objects">
	<g id="XMLID_132_">
		<path id="XMLID_139_" class="st0" d="M568.78,410.57l9.13-5.27c6.2-3.58,14.75-4.44,19.11-1.92c4.36,2.52,2.87,7.46-3.33,11.03
			l-9.13,5.27c-6.2,3.58-14.75,4.44-19.11,1.92C561.09,419.08,562.58,414.14,568.78,410.57z"/>
		<path id="XMLID_3442_" class="st0" d="M688.74,435.94l-46.66,26.94c-0.71,0.41-1.63,0.61-2.55,0.61c-0.92,0-1.84-0.2-2.55-0.61
			l-46.66-26.94c-0.71-0.4-1.06-0.93-1.06-1.47c0-0.38,0.19-0.77,0.56-1.11c0.14-0.13,0.3-0.25,0.5-0.36l46.66-26.93
			c1.4-0.81,3.68-0.81,5.1,0L688.74,433C690.14,433.82,690.14,435.14,688.74,435.94z"/>
		<g id="XMLID_134_">
			<g id="XMLID_2607_">
				<path id="XMLID_3117_" class="st1" d="M576.7,402.21c-0.38,1.11,0.11,2.04,0.42,2.99c0.61,1.84,0.46,4.31,0.46,4.31
					c0.12,0.22,0.9,0.28,1.12-0.06c0,0-0.09-4.05,0.99-3.73L576.7,402.21z"/>
				<path id="XMLID_2613_" class="st2" d="M585.85,408.55c-1.12-1.61-2.63-6.89-2.99-8.11c-0.15-0.51-0.25-1.39-0.22-2.4
					c0.05-1.79,2.18-5.99,2.18-5.99l-4.73-0.83l-1.1,6.68c-0.31,1.13-0.41,1.4-0.72,1.93c-0.3,0.53-0.93,1.79-1.13,2.39
					c-0.21,0.76-0.58,1.57,0.65,2.56c1.23,0.99,1.97,1.57,2.77,2.56c0.8,1,0.74,2.32,2.03,3.5c1.29,1.18,3.75,0.29,4.22-0.12
					C587.47,410.16,587.25,409.65,585.85,408.55z"/>
				<path id="XMLID_2609_" class="st1" d="M585.67,409.9c-2.73,0.66-3.28,0.3-4.06-2.78c-0.6-2.36-1.13-4.05-2.16-4.96
					c-1.24-1.09-1.37-1.97-1.37-2.74c-0.27-0.02-0.41,0.3-0.59,0.9c-0.4,1.36-0.87,1.54-0.89,2.51c-0.02,0.98,0.63,1.83,1.36,2.3
					c1.2,0.79,1.52,1.14,2.08,2.29c0.65,1.36,0.52,2.86,0.95,4.13c1.9,1.48,3.93,2.45,7,1.04c0.59-1.55,1.08-2.26-2.15-4.05
					C586.44,409.24,586.7,409.65,585.67,409.9z"/>
			</g>
			<g id="XMLID_2590_">
				<path id="XMLID_2600_" class="st1" d="M575.26,405.88c-0.28,0.72-0.81,1.54-0.66,3.43c0.15,1.89,0.56,1.5,0.42,4.02
					c-0.09,1.55-0.84,3.53-0.02,4.71c1.41,1.41,5.15,1.23,5.93,0.48c0.2-0.66,0.39-1.31,0.28-1.92c-0.09-0.52-0.95-1.08-1.08-1.6
					c-0.1-0.42-0.24-0.92-0.38-1.63c-0.45-2.25-0.95-7.5-0.95-7.5H575.26z"/>
				<path id="XMLID_2595_" class="st2" d="M578.13,415.83c-0.79,0.04-1.71-0.29-1.71-0.29c-0.27-0.14-0.45-0.52-0.52-0.96
					c-0.17-1.19,0.23-2.64-0.29-4.29c-0.52-1.65-0.63-2.64-0.35-4.41c0.28-1.77,0.06-4.45,0.06-4.45l3.63-0.07
					c0,0-0.16,2.97-0.15,4.52c0.01,1.55,0.3,6.4,0.61,7.99c0.16,0.8,0.29,1.11,0.2,1.44C579.61,415.31,579.3,415.77,578.13,415.83z"
					/>
			</g>
			<g id="XMLID_137_">
				<g id="XMLID_138_">
					<path id="XMLID_409_" class="st2" d="M603.83,352.5c-0.84-0.17-1.51-0.63-2.71-0.76c-1.06-0.12-1.75-0.24-2.66-0.62
						c-0.92-0.38-3-2.7-4.6-5.14c-1.88-2.88-3.22-7.09-3.55-8.99c-0.71-4.09-0.82-9.75-0.72-11.73c0.12-2.37-0.92-3.36-2.14-3.89
						c-1.43-0.61-2.48-0.16-2.52,3.11c-0.04,3.27,0.22,9.3,1.3,13.62c0.52,2.09,1.49,5.33,3.89,9.04c1.68,2.59,3.37,4.48,5.59,6.63
						c0.61,0.59,0.91,1.17,1.93,2.42c1.02,1.25,2.5,2.45,3.77,2.92c1.27,0.47,1.8,0.44,2.01,0.23c0.26-0.27,0.11-0.59-0.45-0.87
						c-0.55-0.28-1.52-0.66-2.47-1.6c0,0,1.18,0.68,1.92,1.02c0.74,0.34,1.52,0.56,2.08,0.64c0.7,0.1,1.41-0.66,0.86-0.95
						c-0.55-0.3-1.06-0.38-2.15-0.9c-0.99-0.48-1.63-1.02-1.63-1.02s1.21,0.51,2.31,0.74c1.1,0.23,1.6,0.1,1.92,0
						c0.33-0.1,0.6-0.67-0.14-0.95c-0.66-0.25-1.6-0.28-2.78-0.96c-0.86-0.49-1.4-0.95-1.21-1.02c0.19-0.07,0.67,0.26,1.53,0.29
						c0.82,0.03,1.65-0.42,1.63-0.89C604.84,352.43,604.67,352.66,603.83,352.5z"/>
					<path id="XMLID_314_" class="st2" d="M573.02,351.24c-1.29,5.55,0.42,14.34,0.69,18.89c0.28,4.55,0.68,9.85,0.68,9.85
						s-1.39,4.8-1.32,8.51c0.07,3.93,2.31,13.53,2.31,15.82c1.36,0.27,2.64,0.24,3.45-0.54c0,0,0.54-9.82,1.08-14.33
						c0.56-4.71,0.75-8.15,1.23-10.9c0.61-3.43,1.63-19.14,1.63-19.14l0.53,0.15l1.25,15.44c0,0-1.71,2.73-2.43,5.52
						c-0.72,2.79-3.04,16.04-3.04,16.04s1.67,1.92,3.67,0.71c0.66-2.06,7.62-18.24,8.56-19.77c1.07-1.74,1.18-22.31-0.46-27.16
						L573.02,351.24z"/>
					<path id="XMLID_312_" class="st2" d="M578.47,316.71c0,0,0.29,5.22,0.2,5.6c-0.1,0.38-2.05,0.75-2.6,1.2
						c-0.55,0.45,2.82,5.76,4.54,6.54c1.72,0.79,7.05-1.2,7.43-3.85c0.35-2.44-1.51-4.34-2.23-5.01c-0.48-0.1-1.25-0.01-1.47-0.04
						l-0.15-2.53C581.86,317.88,578.47,316.71,578.47,316.71z"/>
					<path id="XMLID_310_" class="st3" d="M577.73,322.81c-1.47,0.22-3.14,1-3.38,1.8c-0.27,0.94-0.87,5.35,0.39,8.71
						c1.26,3.36,2.74,5.64,3.46,7.09c0,0,5.55,1.73,10.67-1.42c0,0,0.52-2.73,0.55-4.66c4.73-4.1,0.71-9.19-3.27-13.15
						c-0.39-0.06-1.06-0.05-1.44-0.02c0,0,1.46,1.3,2.18,2.95c0.66,1.52,0.16,3.1-1.12,3.67c-1.86,0.82-3.21,0.32-4.78-1.37
						C579.94,325.26,579.43,323.77,577.73,322.81z"/>
					<path id="XMLID_308_" class="st4" d="M584.31,320.68l-0.12-2.05l-1.66-0.54l-4.06-1.38c0,0,0.05,0.94,0.08,1.64
						c0,0,0.17,1.79,3.11,3.18C582.17,321.77,584.14,321.96,584.31,320.68z"/>
					<path id="XMLID_303_" class="st2" d="M588.23,310.27L588.23,310.27c-0.52-3.35-2.93-5.89-6.39-5.7
						c-3.68,0.21-6.49,3.35-6.29,7.03c0.12,2.15,1.26,3.98,2.91,5.11c0,0,0.31,1.21,0.53,1.47c1.22,1.43,4.47,2.35,5.54,2.36
						c0.93,0.01,1.73-0.85,2.61-2.29C588.97,315.25,588.52,311.93,588.23,310.27z"/>
					<path id="XMLID_300_" class="st5" d="M587.73,307.57c-1.43-2.17-4.05-3.46-6.91-2.86c-2.82,0.59-4.99,3.03-5.25,5.89
						c-0.23,2.58,1,4.81,2.89,6.11c-0.07-0.23-1.82-2.83-0.03-3.41c0.28,0.33,0.36,0.84,0.37,1.37c0,0,0.89-0.08,0.69-1.13
						c-0.06-0.29-0.11-0.56-0.16-0.8c-0.16-0.81,0.05-1.63,0.51-2.31c0.37-0.55,0.69-1.32,0.47-2.18c0,0,2.22,0.99,5.06,0.39
						C586.59,308.39,587.4,307.94,587.73,307.57z"/>
					<path id="XMLID_299_" class="st5" d="M578.42,303.4c1.19,0.95,0.75,2.43-0.38,3.86c-1.13,1.43-2.54,2.25-3.73,1.31
						c-1.19-0.95-1.23-2.87-0.1-4.29C575.35,302.85,577.23,302.46,578.42,303.4z"/>
					<path id="XMLID_296_" class="st5" d="M580.33,308.25c0,0,0.77,2.14,0.46,4.2c0,0,1.92,0.46,3.81,0.29
						c1.89-0.17,3.65-0.37,4.8-1.75c0.44-1.04-0.5-6.55-5.46-6.2L580.33,308.25z"/>
					<path id="XMLID_295_" class="st2" d="M578.47,316.71c0,0-0.16,0.33-0.81,0.37c-1.21,0.06-2.63-2.19-1.65-3.72
						c0.61-0.96,1.99-0.62,2.44-0.05L578.47,316.71z"/>
					<path id="XMLID_293_" class="st3" d="M577.85,339.74c0.36,0.68,0.41,1.42-0.78,3.15c-1.19,1.73-3.6,5.47-4.05,8.35
						c0.95,1.01,2.31,3.09,6.43,3.74c5.94,0.94,10.37-1.67,11.77-3.19c0,0-0.08-2.49-1.12-7c-0.63-2.71-0.98-3.68-1.23-5.8
						C588.63,336.88,577.85,339.74,577.85,339.74z"/>
					<path id="XMLID_281_" class="st6" d="M577.56,342.12c-0.78,1.2-3.63,4.68-4.53,7.74c-0.9,3.05-1,5.02-0.23,14.04
						c0.77,9.01,1.57,15.59,1.57,15.59s1.11,1.84,4.26,2.23c3.15,0.38,10.56-1.44,13.49-5.77c0,0,0.35-7.37,0.21-13.87
						c-0.14-6.5-1.78-17.62-3.24-21.75c0,0-0.58,2.13-4.9,3.14C580.2,344.4,577.75,343.18,577.56,342.12z"/>
					<path id="XMLID_275_" class="st2" d="M578.98,359.39c-0.7-0.5-1.12-1.19-2.16-1.81c-0.92-0.55-1.49-0.93-2.18-1.66
						c-0.68-0.72-1.63-3.69-2.08-6.57c-0.54-3.4-0.03-7.78,0.45-9.65c1.04-4.02,3.26-9.23,4.16-10.99c1.08-2.11,0.76-3.58-0.35-4.42
						c-1.25-0.94-2.44-0.54-3.58,1.8c-1.43,2.94-3.62,8.57-4.41,12.95c-0.38,2.13-0.84,5.47-0.16,9.84
						c0.47,3.05,1.23,5.47,2.37,8.34c0.31,0.78,0.35,1.44,0.76,3c0.42,1.56,1.27,3.26,2.24,4.22c0.96,0.95,1.46,1.14,1.74,1.03
						c0.35-0.14,0.34-0.49-0.05-0.98c-0.39-0.48-1.12-1.22-1.59-2.47c0,0,0.8,1.1,1.34,1.72c0.54,0.62,1.15,1.13,1.63,1.44
						c0.59,0.38,1.56-0.02,1.18-0.51c-0.38-0.5-0.81-0.78-1.59-1.71c-0.71-0.84-1.06-1.6-1.06-1.6s0.9,0.96,1.81,1.62
						c0.91,0.66,1.41,0.75,1.75,0.78c0.34,0.04,0.82-0.36,0.26-0.92c-0.5-0.5-1.34-0.92-2.14-2.02c-0.58-0.8-0.88-1.44-0.69-1.43
						c0.2,0.02,0.51,0.51,1.28,0.9c0.74,0.37,1.68,0.29,1.85-0.14C579.93,359.74,579.68,359.89,578.98,359.39z"/>
				</g>
			</g>
		</g>
		<g id="XMLID_2020_">
			<g id="XMLID_1994_">
				<path id="XMLID_2002_" class="st7" d="M688.74,429.47l-46.66,26.93c-0.71,0.41-1.63,0.61-2.55,0.61c-0.92,0-1.83-0.2-2.54-0.6
					l-46.67-26.94c-0.71-0.41-1.06-0.94-1.06-1.47c0-0.54,0.35-1.07,1.06-1.47l7.41-4.27l39.25-22.67c1.4-0.81,3.68-0.81,5.1,0
					l46.66,26.94C690.14,427.33,690.14,428.66,688.74,429.47z"/>
				<path id="XMLID_2001_" class="st8" d="M639.53,446.38v10.62c-0.92,0-1.83-0.2-2.54-0.6l-46.67-26.94
					c-0.71-0.41-1.06-0.94-1.06-1.47v-9.2c0-0.38,0.19-0.77,0.56-1.11l7.91,4.57L639.53,446.38z"/>
				<path id="XMLID_1990_" class="st9" d="M639.53,446.38v10.62c0.92,0,1.83-0.2,2.54-0.6l46.67-26.94
					c0.71-0.41,1.06-0.94,1.06-1.47v-9.2c0-0.38-0.19-0.77-0.56-1.11l-7.91,4.57L639.53,446.38z"/>
				<path id="XMLID_2010_" class="st7" d="M688.74,420.27l-46.66,26.94c-0.71,0.41-1.63,0.61-2.55,0.61c-0.92,0-1.84-0.2-2.55-0.61
					l-46.66-26.94c-0.71-0.4-1.06-0.93-1.06-1.47c0-0.38,0.19-0.77,0.56-1.11c0.14-0.13,0.3-0.26,0.5-0.36l46.66-26.93
					c1.4-0.81,3.68-0.81,5.1,0l46.66,26.93C690.14,418.14,690.14,419.46,688.74,420.27z"/>
				<g id="XMLID_2018_">
					<path class="st10" d="M639.53,390.79c0.78,0,1.53,0.17,2.05,0.48l46.66,26.93c0.41,0.24,0.55,0.48,0.55,0.61
						c0,0.13-0.14,0.37-0.55,0.6l-46.66,26.94c-0.51,0.3-1.26,0.47-2.04,0.47c-0.79,0-1.53-0.17-2.05-0.47l-46.66-26.94
						c-0.34-0.19-0.55-0.43-0.55-0.6c0-0.1,0.08-0.23,0.24-0.37c0.1-0.09,0.2-0.16,0.32-0.23l46.66-26.93
						C638.01,390.96,638.75,390.79,639.53,390.79 M639.53,389.79c-0.92,0-1.84,0.2-2.54,0.61l-46.66,26.93
						c-0.2,0.11-0.36,0.24-0.5,0.36c-0.37,0.33-0.56,0.72-0.56,1.11c0,0.54,0.35,1.07,1.06,1.47l46.66,26.94
						c0.71,0.41,1.63,0.61,2.55,0.61c0.92,0,1.84-0.2,2.55-0.61l46.66-26.94c1.4-0.8,1.4-2.13,0-2.94l-46.66-26.93
						C641.37,389.99,640.45,389.79,639.53,389.79L639.53,389.79z"/>
				</g>
				<path id="XMLID_1993_" class="st11" d="M637.83,396.8l-36.41,21.02c-0.94,0.54-0.94,1.42,0,1.96l36.41,21.02
					c0.94,0.54,2.46,0.54,3.39,0l36.41-21.02c0.94-0.54,0.94-1.42,0-1.96l-36.41-21.02C640.29,396.26,638.77,396.26,637.83,396.8z"
					/>
				<path id="XMLID_1998_" class="st12" d="M677.64,417.82l-36.41-21.02c-0.47-0.27-1.08-0.41-1.7-0.41v1.72l37.82,21.83l0.29-0.17
					C678.58,419.24,678.58,418.36,677.64,417.82z"/>
				<path id="XMLID_1997_" class="st13" d="M639.53,396.39c-0.61,0-1.23,0.13-1.7,0.41l-36.41,21.02c-0.94,0.54-0.94,1.42,0,1.96
					l0.29,0.17l37.82-21.83V396.39z"/>
			</g>
			<polygon id="XMLID_1989_" class="st14" points="643.51,452.74 646.35,451.1 646.35,447.81 643.51,449.46 			"/>
			<polygon id="XMLID_1995_" class="st15" points="647.49,450.63 650.34,448.99 650.34,445.71 647.49,447.35 			"/>
			<g id="XMLID_2043_">
				<polyline id="XMLID_527_" class="st16" points="627.83,381.49 653.04,358.51 658.46,386.27 				"/>
				<linearGradient id="XMLID_2_" gradientUnits="userSpaceOnUse" x1="623.5773" y1="377.2365" x2="632.2809" y2="385.94">
					<stop  offset="0" style="stop-color:#91F1E6"/>
					<stop  offset="1" style="stop-color:#0662DD"/>
				</linearGradient>
				<path id="XMLID_405_" class="st17" d="M621.29,381.49c0-3.61,2.93-6.54,6.54-6.54c3.61,0,6.54,2.93,6.54,6.54
					c0,3.61-2.93,6.54-6.54,6.54C624.22,388.03,621.29,385.1,621.29,381.49z"/>
				<linearGradient id="XMLID_3_" gradientUnits="userSpaceOnUse" x1="650.7479" y1="356.2143" x2="655.4418" y2="360.9082">
					<stop  offset="0" style="stop-color:#91F1E6"/>
					<stop  offset="1" style="stop-color:#0662DD"/>
				</linearGradient>
				<path id="XMLID_531_" class="st18" d="M649.52,358.51c0-1.95,1.58-3.53,3.53-3.53c1.95,0,3.53,1.58,3.53,3.53
					c0,1.95-1.58,3.53-3.53,3.53C651.09,362.04,649.52,360.46,649.52,358.51z"/>
				<linearGradient id="XMLID_4_" gradientUnits="userSpaceOnUse" x1="655.5839" y1="383.3895" x2="661.4662" y2="389.2719">
					<stop  offset="0" style="stop-color:#91F1E6"/>
					<stop  offset="1" style="stop-color:#0662DD"/>
				</linearGradient>
				<path id="XMLID_2042_" class="st19" d="M654.04,386.27c0-2.44,1.98-4.42,4.42-4.42c2.44,0,4.42,1.98,4.42,4.42
					s-1.98,4.42-4.42,4.42C656.02,390.69,654.04,388.71,654.04,386.27z"/>
			</g>
			<polyline id="XMLID_2031_" class="st20" points="639.53,324.78 589.27,295.78 589.27,419.66 639.53,448.68 			"/>
			<polyline id="XMLID_1996_" class="st21" points="639.53,448.68 689.79,419.66 689.8,295.78 639.53,324.78 			"/>
			<g id="XMLID_1999_">
				<path id="XMLID_2027_" class="st7" d="M688.74,297.25l-46.66,26.93c-0.71,0.41-1.63,0.61-2.55,0.61c-0.92,0-1.83-0.2-2.54-0.6
					l-46.67-26.94c-0.71-0.41-1.06-0.94-1.06-1.47c0-0.54,0.35-1.07,1.06-1.47l7.41-4.27l39.25-22.67c1.4-0.81,3.68-0.81,5.1,0
					l46.66,26.94C690.14,295.11,690.14,296.43,688.74,297.25z"/>
				<path id="XMLID_2024_" class="st8" d="M639.53,314.16v10.62c-0.92,0-1.83-0.2-2.54-0.6l-46.67-26.94
					c-0.71-0.41-1.06-0.94-1.06-1.47v-9.2c0-0.38,0.19-0.77,0.56-1.11l7.91,4.57L639.53,314.16z"/>
				<path id="XMLID_2021_" class="st9" d="M639.53,314.16v10.62c0.92,0,1.83-0.2,2.54-0.6l46.67-26.94
					c0.71-0.41,1.06-0.94,1.06-1.47v-9.2c0-0.38-0.19-0.77-0.56-1.11l-7.91,4.57L639.53,314.16z"/>
				<path id="XMLID_2006_" class="st7" d="M688.74,288.04l-46.66,26.94c-0.71,0.41-1.63,0.61-2.55,0.61c-0.92,0-1.84-0.2-2.55-0.61
					l-46.66-26.94c-0.71-0.4-1.06-0.93-1.06-1.47c0-0.38,0.19-0.77,0.56-1.11c0.14-0.13,0.3-0.25,0.5-0.36l46.66-26.93
					c1.4-0.81,3.68-0.81,5.1,0l46.66,26.93C690.14,285.92,690.14,287.24,688.74,288.04z"/>
				<g id="XMLID_493_">
					<path class="st10" d="M639.53,258.56c0.78,0,1.53,0.17,2.05,0.48l46.66,26.93c0.41,0.24,0.55,0.48,0.55,0.61
						c0,0.13-0.14,0.37-0.55,0.6l-46.66,26.94c-0.51,0.3-1.26,0.47-2.04,0.47c-0.79,0-1.53-0.17-2.05-0.47l-46.66-26.94
						c-0.34-0.19-0.55-0.43-0.55-0.6c0-0.1,0.08-0.24,0.24-0.37c0.1-0.09,0.2-0.16,0.32-0.23l46.66-26.93
						C638.01,258.74,638.75,258.56,639.53,258.56 M639.53,257.56c-0.92,0-1.84,0.2-2.54,0.61l-46.66,26.93
						c-0.2,0.11-0.36,0.24-0.5,0.36c-0.37,0.33-0.56,0.73-0.56,1.11c0,0.54,0.35,1.07,1.06,1.47l46.66,26.94
						c0.71,0.41,1.63,0.61,2.55,0.61c0.92,0,1.84-0.2,2.55-0.61l46.66-26.94c1.4-0.8,1.4-2.13,0-2.94l-46.66-26.93
						C641.37,257.77,640.45,257.56,639.53,257.56L639.53,257.56z"/>
				</g>
				<path id="XMLID_2004_" class="st11" d="M637.83,264.58l-36.41,21.02c-0.94,0.54-0.94,1.42,0,1.96l36.41,21.02
					c0.94,0.54,2.46,0.54,3.39,0l36.41-21.02c0.94-0.54,0.94-1.42,0-1.96l-36.41-21.02C640.29,264.03,638.77,264.03,637.83,264.58z"
					/>
				<path id="XMLID_2003_" class="st12" d="M677.64,285.6l-36.41-21.02c-0.47-0.27-1.08-0.41-1.7-0.41v1.72l37.82,21.83l0.29-0.17
					C678.58,287.02,678.58,286.14,677.64,285.6z"/>
				<path id="XMLID_2000_" class="st13" d="M639.53,264.17c-0.61,0-1.23,0.14-1.7,0.41l-36.41,21.02c-0.94,0.54-0.94,1.42,0,1.96
					l0.29,0.17l37.82-21.83V264.17z"/>
			</g>
			<g id="XMLID_2044_">
				<path id="XMLID_2045_" class="st20" d="M636.99,324.19c0.19,0.1,0.39,0.2,0.59,0.27C637.38,324.38,637.18,324.29,636.99,324.19z
					"/>
				<path id="XMLID_2046_" class="st20" d="M638.81,324.75c0.01,0,0.03,0.01,0.04,0.01C638.83,324.76,638.82,324.75,638.81,324.75z"
					/>
				<path id="XMLID_2047_" class="st20" d="M639.48,441.2c-0.55-0.01-1.1-0.14-1.65-0.4C638.38,441.07,638.93,441.2,639.48,441.2z"
					/>
				<path id="XMLID_2048_" class="st20" d="M637.82,324.53c0.13,0.04,0.25,0.09,0.38,0.12
					C638.07,324.62,637.94,324.57,637.82,324.53z"/>
				<path id="XMLID_2049_" class="st20" d="M642.08,324.18c-0.74,0.47-1.6,0.64-2.55,0.61c-0.01,0-0.03,0-0.04,0
					c0.01,0,0.02,0,0.04,0v116.42c0.57,0,1.13-0.13,1.7-0.41l36.12-20.85c0.67-0.37,1-0.7,1-1.15V303.25L642.08,324.18z"/>
				<path id="XMLID_2050_" class="st22" d="M639.53,441.21L639.53,441.21c-0.02,0-0.03,0-0.05,0
					C639.5,441.2,639.51,441.21,639.53,441.21z"/>
				<path id="XMLID_2051_" class="st22" d="M637.58,324.46c0.08,0.03,0.16,0.05,0.24,0.07
					C637.74,324.51,637.66,324.49,637.58,324.46z"/>
				<path id="XMLID_2052_" class="st22" d="M638.2,324.65c0.2,0.05,0.4,0.08,0.61,0.1C638.6,324.73,638.4,324.7,638.2,324.65z"/>
				<path id="XMLID_2053_" class="st22" d="M638.85,324.76c0.21,0.02,0.42,0.03,0.64,0.03
					C639.27,324.79,639.06,324.78,638.85,324.76z"/>
				<path id="XMLID_2055_" class="st22" d="M639.49,324.78c-0.22,0-0.43,0-0.64-0.03c-0.01,0-0.03,0-0.04-0.01
					c-0.21-0.02-0.41-0.05-0.61-0.1c-0.13-0.03-0.26-0.08-0.38-0.12c-0.08-0.03-0.16-0.04-0.24-0.07c-0.2-0.08-0.4-0.17-0.59-0.27
					l-36.28-20.94V418.8c0.02,0.42,0.28,0.73,0.7,0.98l36.42,21.03c0.55,0.26,1.1,0.39,1.65,0.4c0.02,0,0.03,0,0.05,0V324.78
					C639.52,324.78,639.5,324.78,639.49,324.78z"/>
			</g>
		</g>
	</g>
</g>
<g id="Designed_by_Freepik">
</g>
</svg>
