<?xml version="1.0" encoding="utf-8"?>
<!-- Generator: Adobe Illustrator 23.0.3, SVG Export Plug-In . SVG Version: 6.00 Build 0)  -->
<svg version="1.1" xmlns="http://www.w3.org/2000/svg" xmlns:xlink="http://www.w3.org/1999/xlink" x="0px" y="0px"
	 viewBox="0 0 750 500" style="enable-background:new 0 0 750 500;" xml:space="preserve">
<style type="text/css">
	.st0{display:none;}
	.st1{opacity:0.15;fill:#6B99D1;}
	.st2{fill:#C8E2FF;}
	.st3{fill:#A5CBFA;}
	.st4{fill:#DCEEFF;}
	.st5{fill:#031F60;}
	.st6{fill:#1E3779;}
	.st7{fill:#344593;}
	.st8{fill:none;stroke:#FFFFFF;stroke-miterlimit:10;}
	.st9{fill:#41E5C9;}
</style>
<g id="Background" class="st0">
</g>
<g id="Objects">
	<g id="XMLID_127_">
		<path id="XMLID_3612_" class="st1" d="M366.47,424.79l-26.75,15.45c-1.41,0.81-1.41,2.13,0,2.94l26.75,15.45
			c1.41,0.81,3.69,0.81,5.09,0l26.75-15.45c1.41-0.81,1.41-2.13,0-2.94l-26.75-15.45C370.15,423.98,367.87,423.98,366.47,424.79z"/>
		<path id="XMLID_3496_" class="st2" d="M399.37,358.92v76.06c0,1.62-1.14,3.6-2.55,4.41l-25.26,14.58
			c-0.71,0.4-1.63,0.61-2.55,0.61c-0.92,0-1.84-0.21-2.54-0.61l-25.26-14.58c-1.41-0.81-2.55-2.79-2.55-4.41v-76.06H399.37z"/>
		<path id="XMLID_3493_" class="st3" d="M369.01,358.92v95.66c-0.92,0-1.84-0.21-2.54-0.61l-25.26-14.58
			c-1.41-0.81-2.55-2.79-2.55-4.41v-76.06H369.01z"/>
		<path id="XMLID_3490_" class="st4" d="M366.47,342.01l-26.75,15.45c-1.41,0.81-1.41,2.13,0,2.94l26.75,15.45
			c1.41,0.81,3.69,0.81,5.09,0l26.75-15.45c1.41-0.81,1.41-2.13,0-2.94l-26.75-15.45C370.15,341.2,367.87,341.2,366.47,342.01z"/>
		<g id="XMLID_3486_">
			<path id="XMLID_3489_" class="st5" d="M373,381.59v65.02c0,1.09,0.76,1.53,1.7,0.99l0.29-0.18l20.2-11.67
				c0.47-0.27,0.89-0.74,1.21-1.27l-1.86-1.25l-21.02-53.31C373.19,380.44,373,381.04,373,381.59z"/>
			<path id="XMLID_3488_" class="st6" d="M396.88,368.12l-0.01-0.33c0.01-1.08-0.75-1.52-1.7-0.98l-0.16,0.09l-20.32,11.74
				c-0.47,0.27-0.89,0.74-1.2,1.27l20.94,53.45l1.95,1.11c0.3-0.53,0.5-1.13,0.49-1.66V368.12z"/>
			<path id="XMLID_3487_" class="st7" d="M395.03,431.55c0.01,0.54-0.19,1.13-0.5,1.67c-0.3,0.53-0.72,1-1.2,1.27l-20.21,11.67
				l-0.13,0.08v-64.66c0-0.55,0.2-1.15,0.51-1.68c0.3-0.54,0.73-1,1.2-1.27l20.32-11.74L395.03,431.55z"/>
		</g>
		<g id="XMLID_3482_">
			<path id="XMLID_3485_" class="st5" d="M365.02,381.59v65.02c0,1.09-0.76,1.53-1.7,0.99l-0.29-0.18l-20.2-11.67
				c-0.47-0.27-0.89-0.74-1.21-1.27l1.86-1.25l21.02-53.31C364.83,380.44,365.02,381.04,365.02,381.59z"/>
			<path id="XMLID_3484_" class="st6" d="M341.14,368.12l0.01-0.33c-0.01-1.08,0.75-1.52,1.7-0.98l0.16,0.09l20.32,11.74
				c0.47,0.27,0.89,0.74,1.2,1.27l-20.94,53.45l-1.95,1.11c-0.3-0.53-0.5-1.13-0.49-1.66V368.12z"/>
			<path id="XMLID_3483_" class="st7" d="M342.99,431.55c-0.01,0.54,0.19,1.13,0.5,1.67c0.3,0.53,0.73,1,1.2,1.27l20.21,11.67
				l0.13,0.08v-64.66c0-0.55-0.2-1.15-0.51-1.68c-0.3-0.54-0.73-1-1.2-1.27L343,366.9L342.99,431.55z"/>
		</g>
		<path id="XMLID_3479_" class="st4" d="M366.47,342.01l-26.75,15.45c-1.41,0.81-1.41,2.13,0,2.94l26.75,15.45
			c1.41,0.81,3.69,0.81,5.09,0l26.75-15.45c1.41-0.81,1.41-2.13,0-2.94l-26.75-15.45C370.15,341.2,367.87,341.2,366.47,342.01z"/>
		<path id="XMLID_3609_" class="st8" d="M366.47,342.01l-26.75,15.45c-1.41,0.81-1.41,2.13,0,2.94l26.75,15.45
			c1.41,0.81,3.69,0.81,5.09,0l26.75-15.45c1.41-0.81,1.41-2.13,0-2.94l-26.75-15.45C370.15,341.2,367.87,341.2,366.47,342.01z"/>
		<g id="XMLID_3468_">
			<g id="XMLID_3472_">
				<path id="XMLID_3476_" class="st2" d="M356.91,397.45l1.44-0.84c0.29-0.17,0.53-0.58,0.53-0.92v-7.36c0-0.4-0.14-0.85-0.37-1.25
					l-6.31,3.65L356.91,397.45z"/>
				<path id="XMLID_3473_" class="st3" d="M357.61,386.14l-9.45-5.46c-0.23-0.13-0.62-0.13-0.85,0l-1.54,0.9l6.43,9.15l6.31-3.65
					C358.28,386.69,357.96,386.34,357.61,386.14z"/>
			</g>
			<path id="XMLID_3469_" class="st4" d="M346.67,381.67l9.35,5.4c0.7,0.4,1.27,1.39,1.27,2.19v7.36c0,0.81-0.57,1.13-1.27,0.73
				l-9.35-5.4c-0.7-0.4-1.27-1.39-1.27-2.19v-7.36C345.4,381.59,345.97,381.27,346.67,381.67z"/>
		</g>
		<g id="XMLID_3370_">
			<g id="XMLID_3461_">
				<path id="XMLID_3465_" class="st2" d="M378.78,393.73l-1.64-0.95c-0.29-0.17-0.53-0.58-0.53-0.92v-2.81
					c0-0.4,0.14-0.85,0.37-1.25l4.87,2.8L378.78,393.73z"/>
				<path id="XMLID_3462_" class="st3" d="M377.88,386.87l11.94-6.91c0.23-0.13,0.62-0.13,0.85,0l1.74,1.01l-10.56,9.64l-4.87-2.8
					C377.21,387.42,377.53,387.07,377.88,386.87z"/>
			</g>
			<path id="XMLID_3372_" class="st4" d="M391.51,381.06l-11.84,6.85c-0.7,0.4-1.27,1.39-1.27,2.19v2.81c0,0.81,0.57,1.13,1.27,0.73
				l11.84-6.85c0.7-0.4,1.27-1.39,1.27-2.19v-2.81C392.78,380.98,392.21,380.65,391.51,381.06z"/>
		</g>
		<g id="XMLID_2284_">
			<g id="XMLID_3361_">
				<path id="XMLID_3367_" class="st2" d="M378.78,406.78l-1.64-0.95c-0.29-0.17-0.53-0.58-0.53-0.92v-2.81
					c0-0.4,0.14-0.85,0.37-1.25l4.87,2.8L378.78,406.78z"/>
				<path id="XMLID_3362_" class="st3" d="M377.88,399.91l11.94-6.91c0.23-0.13,0.62-0.13,0.85,0l1.74,1.01l-10.56,9.64l-4.87-2.8
					C377.21,400.46,377.53,400.11,377.88,399.91z"/>
			</g>
			<path id="XMLID_2290_" class="st4" d="M391.51,394.1l-11.84,6.85c-0.7,0.4-1.27,1.39-1.27,2.19v2.81c0,0.81,0.57,1.14,1.27,0.73
				l11.84-6.85c0.7-0.4,1.27-1.39,1.27-2.19v-2.81C392.78,394.02,392.21,393.7,391.51,394.1z"/>
		</g>
		<g id="XMLID_2202_">
			<g id="XMLID_2220_">
				<path id="XMLID_2261_" class="st2" d="M378.78,419.82l-1.64-0.95c-0.29-0.17-0.53-0.58-0.53-0.92v-2.81
					c0-0.4,0.14-0.85,0.37-1.25l4.87,2.8L378.78,419.82z"/>
				<path id="XMLID_2224_" class="st3" d="M377.88,412.96l11.94-6.91c0.23-0.14,0.62-0.13,0.85,0l1.74,1.01l-10.56,9.64l-4.87-2.8
					C377.21,413.5,377.53,413.16,377.88,412.96z"/>
			</g>
			<path id="XMLID_2210_" class="st4" d="M391.51,407.14l-11.84,6.85c-0.7,0.4-1.27,1.39-1.27,2.19v2.81c0,0.81,0.57,1.13,1.27,0.73
				l11.84-6.85c0.7-0.4,1.27-1.39,1.27-2.19v-2.81C392.78,407.07,392.21,406.74,391.51,407.14z"/>
		</g>
		<g id="XMLID_2033_">
			<g id="XMLID_2185_">
				<path id="XMLID_2196_" class="st2" d="M378.78,432.86l-1.64-0.95c-0.29-0.17-0.53-0.58-0.53-0.92v-2.81
					c0-0.4,0.14-0.85,0.37-1.25l4.87,2.8L378.78,432.86z"/>
				<path id="XMLID_2187_" class="st3" d="M377.88,426l11.94-6.91c0.23-0.13,0.62-0.13,0.85,0l1.74,1.01l-10.56,9.64l-4.87-2.8
					C377.21,426.55,377.53,426.2,377.88,426z"/>
			</g>
			<path id="XMLID_2041_" class="st4" d="M391.51,420.19l-11.84,6.85c-0.7,0.4-1.27,1.39-1.27,2.19v2.81c0,0.81,0.57,1.13,1.27,0.73
				l11.84-6.85c0.7-0.4,1.27-1.39,1.27-2.19v-2.81C392.78,420.11,392.21,419.78,391.51,420.19z"/>
		</g>
		<path id="XMLID_1815_" class="st9" d="M380.08,389.52l1.57-0.9c0.12-0.07,0.21-0.01,0.21,0.12v1.81c0,0.13-0.1,0.3-0.21,0.37
			l-1.57,0.9c-0.12,0.07-0.21,0.01-0.21-0.12v-1.81C379.87,389.76,379.96,389.59,380.08,389.52z"/>
		<path id="XMLID_1804_" class="st9" d="M380.08,402.57l1.57-0.9c0.12-0.07,0.21-0.01,0.21,0.12v1.81c0,0.14-0.1,0.3-0.21,0.37
			l-1.57,0.9c-0.12,0.07-0.21,0.01-0.21-0.12v-1.81C379.87,402.8,379.96,402.63,380.08,402.57z"/>
		<path id="XMLID_133_" class="st9" d="M380.08,415.61l1.57-0.9c0.12-0.07,0.21-0.01,0.21,0.12v1.81c0,0.13-0.1,0.3-0.21,0.37
			l-1.57,0.9c-0.12,0.07-0.21,0.01-0.21-0.12v-1.81C379.87,415.84,379.96,415.68,380.08,415.61z"/>
		<path id="XMLID_128_" class="st9" d="M380.08,428.65l1.57-0.9c0.12-0.07,0.21-0.01,0.21,0.12v1.81c0,0.14-0.1,0.3-0.21,0.37
			l-1.57,0.9c-0.12,0.07-0.21,0.01-0.21-0.12v-1.81C379.87,428.89,379.96,428.72,380.08,428.65z"/>
	</g>
</g>
<g id="Designed_by_Freepik">
</g>
</svg>
