<?xml version="1.0" encoding="utf-8"?>
<!-- Generator: Adobe Illustrator 23.0.3, SVG Export Plug-In . SVG Version: 6.00 Build 0)  -->
<svg version="1.1" xmlns="http://www.w3.org/2000/svg" xmlns:xlink="http://www.w3.org/1999/xlink" x="0px" y="0px"
	 viewBox="0 0 750 500" style="enable-background:new 0 0 750 500;" xml:space="preserve">
<style type="text/css">
	.st0{display:none;}
	.st1{fill:#2D2979;}
	.st2{fill:#6F89D1;}
	.st3{fill:#7FA8E6;}
	.st4{opacity:0.15;fill:#6B99D1;}
	.st5{fill:#DCEEFF;}
	.st6{fill:#FFFFFF;}
	.st7{fill:#A5CBFA;}
	.st8{fill:#C8E2FF;}
	.st9{fill:#FFA8A7;}
	.st10{fill:#F28F8F;}
	.st11{fill:#543354;}
	.st12{fill:#F5FBFB;}
	.st13{fill:#E4F2F2;}
</style>
<g id="Background" class="st0">
</g>
<g id="Objects">
	<g id="XMLID_211_">
		<g id="XMLID_2629_">
			<g id="XMLID_3048_">
				<g>
					<g id="XMLID_58_">
						<path class="st1" d="M106.31,285.73c0.7,0.88,2.3,1.34,3.39,1.09c0.8-0.18,1.33-0.33,1.94-0.52c0.8-0.25,2-0.27,2.84-0.32
							c1-0.06,1.79,0.02,2.79-0.13c0.85-0.13,1.73-0.38,2.52-0.71c1.06-0.45,2.87-2.62,1.54-3.43c-0.1-0.06-0.22-0.08-0.33-0.1
							c-3.56-0.54-8.15-0.32-9.28-1.69c0,0-4.78-0.24-4.83-0.24c0.14,0.01-0.78,4.36-0.86,4.72c-0.04,0.2-0.09,0.39-0.07,0.59
							C105.99,285.26,106.13,285.51,106.31,285.73z"/>
					</g>
				</g>
			</g>
			<g id="XMLID_2714_">
				<path id="XMLID_2991_" class="st2" d="M109.31,257.93l-2.01-1.69c0,0-1.28,3.33-1.25,4.52c0.03,1.19,0.86,18.94,0.86,18.94
					s2.7,2.05,4.81,0.22c0,0,1.44-20.99,1.77-24.27L109.31,257.93"/>
			</g>
			<g id="XMLID_2699_">
				<g>
					<g id="XMLID_54_">
						<path class="st1" d="M116.99,291.16c0.78,0.82,2.41,1.12,3.47,0.77c0.78-0.26,1.3-0.45,1.89-0.69
							c0.77-0.32,1.97-0.45,2.8-0.58c0.99-0.15,1.79-0.15,2.76-0.38c0.84-0.2,1.68-0.53,2.44-0.94c1.02-0.54,2.62-2.87,1.22-3.56
							c-0.1-0.05-0.22-0.06-0.34-0.07c-3.59-0.21-8.15,0.42-9.39-0.84c0,0-4.78,0.2-4.83,0.2c0.14-0.01-0.38,4.42-0.43,4.78
							c-0.02,0.2-0.05,0.4-0.01,0.6C116.63,290.72,116.8,290.96,116.99,291.16z"/>
					</g>
				</g>
			</g>
			<path id="XMLID_2632_" class="st3" d="M117.4,261.62c0,0-1.28,3.33-1.25,4.52c0.03,1.19,0.86,18.94,0.86,18.94
				s2.73,1.62,4.83-0.2c0,0,1.42-20.57,1.74-23.85"/>
		</g>
		<g id="XMLID_2585_">
			<path id="XMLID_3641_" class="st4" d="M67.19,295.59l22.77-13.15c1.41-0.81,3.69-0.81,5.09,0l22.77,13.15
				c1.41,0.81,1.41,2.13,0,2.94l-22.77,13.15c-1.41,0.81-3.69,0.81-5.09,0l-22.77-13.15C65.78,297.72,65.78,296.4,67.19,295.59z"/>
			<path id="XMLID_2623_" class="st5" d="M67.19,267.89l22.77-13.15c1.41-0.81,3.69-0.81,5.09,0l22.77,13.15
				c1.41,0.81,1.41,2.13,0,2.94l-22.77,13.15c-1.41,0.81-3.69,0.81-5.09,0l-22.77-13.15C65.78,270.02,65.78,268.7,67.19,267.89z"/>
			<g id="XMLID_2608_">
				<path class="st6" d="M92.51,255.13c0.78,0,1.52,0.17,2.05,0.48l22.77,13.15c0.41,0.24,0.55,0.47,0.55,0.6
					c0,0.13-0.15,0.37-0.55,0.6l-22.77,13.15c-0.52,0.3-1.27,0.47-2.05,0.47c-0.78,0-1.52-0.17-2.05-0.47l-22.77-13.15
					c-0.41-0.24-0.55-0.47-0.55-0.6c0-0.13,0.15-0.37,0.55-0.6l22.77-13.15C90.98,255.3,91.73,255.13,92.51,255.13 M92.51,254.13
					c-0.92,0-1.84,0.2-2.55,0.61l-22.77,13.15c-1.41,0.81-1.41,2.13,0,2.94l22.77,13.15c0.7,0.41,1.62,0.61,2.55,0.61
					c0.92,0,1.84-0.2,2.55-0.61l22.77-13.15c1.41-0.81,1.41-2.13,0-2.94l-22.77-13.15C94.35,254.33,93.43,254.13,92.51,254.13
					L92.51,254.13z"/>
			</g>
			<path id="XMLID_2603_" class="st7" d="M66.13,292.34c0.01,0.61,0.41,1.08,1.05,1.47l22.77,13.15c0.66,0.38,1.5,0.59,2.55,0.61
				v-22.98c-1-0.01-1.85-0.21-2.55-0.61l-22.77-13.15c-0.57-0.32-1.05-0.81-1.05-1.47V292.34z"/>
			<path id="XMLID_2594_" class="st8" d="M118.88,292.34c-0.01,0.61-0.41,1.08-1.05,1.47l-22.77,13.15
				c-0.66,0.38-1.5,0.59-2.55,0.61v-22.98c1-0.01,1.85-0.21,2.55-0.61l22.77-13.15c0.57-0.32,1.05-0.81,1.05-1.47V292.34z"/>
		</g>
		<g id="XMLID_214_">
			<g id="XMLID_2573_">
				<path id="XMLID_2581_" class="st2" d="M107.15,251.07c-2.36,0.86-18.33,6.85-18.33,6.85s0.63,11.33,4.04,9.5l16.45-9.5
					l4.17-2.28C113.85,251.95,109.74,250.13,107.15,251.07z"/>
				<path id="XMLID_2578_" class="st3" d="M123.59,261.03c0.37-3.7-3.74-5.52-6.33-4.57c-2.36,0.86-18.33,6.85-18.33,6.85
					l-15.85-1.34c-0.39,5.93,3.46,8.47,7.88,10.41c4.42,1.94,8.6,2.25,12.01,0.42l16.45-9.5l-2.01-1.69"/>
			</g>
			<path id="XMLID_2496_" class="st9" d="M100.31,223.28c-0.34-3.38-2.63-6.03-6.09-6.02c-3.68,0.02-6.66,3.02-6.64,6.7
				c0.01,2.15,1.05,4.04,2.64,5.25c0,0,0.09,0.43,0.21,0.84l0,0c0,0-0.35,1.78-0.52,2.08c-0.21,0.38-1.21,0.01-2.56-0.19
				c-0.92-0.14-1.13,1.58-0.55,3.19c0.52,1.44,2.78,2.96,4.89,3.33c2.11,0.37,5.52-0.94,4.31-1.87c-1.22-0.93-1.23-1.27-1.04-1.91
				c0.15-0.5,0.49-1.36,0.63-1.72c0.75,0.16,1.38,0.24,1.7,0.21c1.37-0.13,1.79-0.82,2.24-2.38
				C100.5,227.47,100.51,224.95,100.31,223.28z"/>
			<path id="XMLID_2293_" class="st10" d="M96.09,231.87c-0.89-0.62-0.69-2-0.84-3.07l-1.48,1.26l-2.03,0.17l-1.4-0.58
				c0.03,0.13,0.07,0.26,0.11,0.4l0,0c0,0-0.35,1.78-0.52,2.08c-0.21,0.38-1.21,0.01-2.56-0.19c-0.9-0.13-1.12,1.52-0.58,3.1
				l1.05,1.49c0.27,0.25,0.56,0.49,0.89,0.71l7.15-0.75c-1.07-0.84-1.09-1.19-0.91-1.81c0.15-0.5,0.49-1.36,0.63-1.72
				c0.75,0.16,1.38,0.24,1.7,0.21c0.37-0.03,0.66-0.11,0.91-0.23C97.59,232.68,96.65,232.26,96.09,231.87z"/>
			<path id="XMLID_2278_" class="st11" d="M100.95,216.85c-2.11,0.66-9.93-2.35-11.34,2.3c0,0-1.55,0.56-2.02,2.84
				c-0.48,2.27-0.48,3.95,0.81,6.23c1.29,2.27,1.71,3.31,1.71,3.31s0.93,0.78,2.21,1.01c1.29,0.23,2.18-1.04,2.54-1.78
				c0.36-0.74,0.39-1.38,0.39-1.96c-0.22,0.26-1.13,0.14-1.43-0.82c-0.28-0.92-0.42-1.76,0.19-2.82c0.61-1.06,2-0.72,2.27,0.12
				c0.24,0.73,0.09,2.3,0.09,2.3s0.95-0.11,1.14-1.06c0.13-0.67,0.27-1.66,0.29-2.31c0.02-0.58,0.14-1.18,0.57-1.57
				c0.59-0.55,0.38-1.42,0.38-1.42s1.85-0.1,2.84-1.88C102.57,217.54,103.06,216.19,100.95,216.85z"/>
			<path id="XMLID_2275_" class="st12" d="M89.2,232.24c-0.15,0.49,0.27,1.29,2.01,2.22c2.36,1.26,3.76,1.09,3.76,1.09
				s2.79,1.51,4.01,2.36c1.53,1.07,2.21,4.16,2.41,9.38c0.18,4.62,0.24,11.95,0.16,15.84c-0.03,1.78-1.06,3.4-2.66,4.17
				c-1.09,0.52-2.45,0.93-3.96,0.81c-3.66-0.3-10.37-3.64-11.86-6.14c0.04-5.3,0.49-8.52,0.3-11.68
				c-0.33-5.58-1.55-10.01-0.01-14.49c1.34-3.9,2.9-4.09,4.39-3.88C88.6,232.04,89.2,232.24,89.2,232.24z"/>
			<path id="XMLID_2264_" class="st13" d="M90.08,231.61c-0.36-0.15-0.95,0.28-1.25,0.52c0,0-0.51,1.42,1.58,2.75
				c3.03,1.94,4.79,1.33,5.24,1.04c0.03-0.02,0-1.69-0.52-1.85c0,0-0.82,0.31-2.91-0.52C90.27,232.77,90.08,231.61,90.08,231.61z"/>
			<path id="XMLID_2243_" class="st9" d="M122.69,251.64c-0.72,0.47-1.5,0.66-2.46,1.39c-0.85,0.65-1.21,0.9-2.17,1.16
				c-1.04,0.28-3.49,0.18-6.93-0.14c-3.43-0.32-5.47-1.67-6.63-3.21c-2.54-3.37-2.53-7.46-3.6-10.52c-0.75-2.14-2.56-2.52-3.5-1.58
				c-0.73,0.73-1.5,3.6-0.48,7.69c0.79,3.17,2.87,7.43,5.68,9.3c1.8,1.19,4.37,2.06,6.33,2.33c3.19,0.44,5.73,0.36,8.81,0.36
				c0.84,0,1.47,0.21,3.07,0.4c1.61,0.19,3.5,0.02,4.74-0.52c1.24-0.54,1.6-0.93,1.6-1.23c0-0.38-0.33-0.5-0.93-0.31
				c-0.59,0.18-1.55,0.59-2.89,0.56c0,0,1.32-0.33,2.09-0.61c0.77-0.27,1.48-0.65,1.94-0.98c0.57-0.41,0.56-1.45-0.04-1.28
				c-0.61,0.17-1.02,0.46-2.17,0.85c-1.05,0.35-1.88,0.4-1.88,0.4s1.22-0.48,2.17-1.08c0.95-0.6,1.22-1.04,1.38-1.34
				c0.16-0.3-0.04-0.89-0.76-0.58c-0.65,0.28-1.35,0.91-2.66,1.25c-0.96,0.25-1.67,0.29-1.58,0.11c0.09-0.18,0.66-0.28,1.31-0.86
				c0.61-0.55,0.89-1.45,0.56-1.77C123.35,251.11,123.41,251.18,122.69,251.64z"/>
			<path id="XMLID_2242_" class="st13" d="M98.44,238.12c-1.02,0.08-2.25,0.81-2.18,5.37c0.06,4.57,3.09,9.37,4.2,10.57
				c1.11,1.19,2.88,2.87,6.34,3.76c3.46,0.9,9.61,0.62,9.61,0.62s0.7-2.41,0-4.08c0,0-4.81-0.09-7.55-0.9
				c-2.75-0.81-3.79-1.94-4.99-3.67c-1.19-1.73-2.21-7.19-2.48-8.45C101.13,240.09,100.35,237.97,98.44,238.12z"/>
		</g>
	</g>
</g>
<g id="Designed_by_Freepik">
</g>
</svg>
